<svg xmlns="http://www.w3.org/2000/svg" width="148.771" height="147.391" viewBox="0 0 148.771 147.391">
  <g id="المحكمين" transform="translate(-7195.444 22453.734)">
    <g id="المتسابقون" transform="translate(473.734 -184.143)">
      <g id="Group_10920" data-name="Group 10920" transform="matrix(0.946, 0.326, -0.326, 0.946, 6759.858, -22268.191)">
        <path id="Path_11768" data-name="Path 11768" d="M115.083,35.428C110.744,9.266,80.266-4.5,54.287,1.324,25.476,7.784,11.135,36.34,8.774,41.265.56,58.4-6.487,89.565,10,105.2c18.325,17.371,52.2,2.738,68.628-8.537C82.935,93.7,120.365,67.286,115.083,35.428Z" transform="translate(0 0)" fill="none" stroke="#e7d8bb" stroke-width="2"/>
        <path id="Path_11521" data-name="Path 11521" d="M104.55,32.185C100.609,8.418,72.92-4.09,49.319,1.2,23.144,7.072,10.116,33.014,7.971,37.489.509,53.055-5.893,81.368,9.086,95.568c16.648,15.781,47.425,2.487,62.347-7.755C75.345,85.127,109.349,61.128,104.55,32.185Z" transform="translate(4.059 7.763)" fill="#e6decf"/>
        <circle id="Ellipse_1191" data-name="Ellipse 1191" cx="2.997" cy="2.997" r="2.997" transform="translate(9.159 27.741)" fill="#ffbb10"/>
        <circle id="Ellipse_1192" data-name="Ellipse 1192" cx="2.997" cy="2.997" r="2.997" transform="translate(25.813 106.875)" fill="#ffbb10"/>
        <circle id="Ellipse_1193" data-name="Ellipse 1193" cx="2.011" cy="2.011" r="2.011" transform="translate(80.595 19.035) rotate(-22.5)" fill="#ffbb10"/>
      </g>
    </g>
    <g id="Group_11066" data-name="Group 11066" transform="translate(228.825 798.241)">
      <g id="Group_10965" data-name="Group 10965" transform="translate(6988.757 -23214.32)">
        <g id="Group_10930" data-name="Group 10930" transform="translate(39.229 31.093)">
          <path id="Path_18747" data-name="Path 18747" d="M1398.591,1145.786l1.181-.51s.16-.054.563-.617a19.465,19.465,0,0,0,.925-2.328,17.027,17.027,0,0,1,1.6-1.61c.423-.4.523.852-.094,1.65,0,0,1.194-.945,1.745-1.274a2.916,2.916,0,0,1,1.214-.47c.409-.067,1.791-.288,2.314-.362s.477.557.222.859a4.941,4.941,0,0,1-2.173.845l-.349.221s.7,0,.778.932c0,0,.7.195.584,1.174a1,1,0,0,1,.316.919,14.667,14.667,0,0,1-.993,2.16.535.535,0,0,1-.946-.02,6.592,6.592,0,0,1-1.683,1.06c-.818.3-1.737-.027-2.193.114a5.071,5.071,0,0,0-1.328.778Z" transform="translate(-1398.591 -1140.26)" fill="#ffc5b0" fill-rule="evenodd"/>
        </g>
        <g id="Group_10931" data-name="Group 10931" transform="translate(39.594 36.135)">
          <path id="Path_18748" data-name="Path 18748" d="M1410.993,1242.034a3.6,3.6,0,0,1-.411.184c-.818.3-1.738-.026-2.193.114a5.075,5.075,0,0,0-1.328.778l-1.312-2.755c.412-.52.782-.97.782-.97l.418-.281a9.512,9.512,0,0,1,1.392,1.724A2.445,2.445,0,0,0,1410.993,1242.034Z" transform="translate(-1405.748 -1239.105)" fill="#ffa89e" fill-rule="evenodd"/>
        </g>
        <g id="Group_10932" data-name="Group 10932" transform="translate(20.353 27.975)">
          <path id="Path_18749" data-name="Path 18749" d="M1037.589,1080.166l2.165,8.035a1.382,1.382,0,0,1,1.158.668,15.154,15.154,0,0,0,3.021-.639c.549-.326,1.066-1.047,1.781-.536l2.466-.871a.7.7,0,0,1,.594.205c.289.273,1.915,2.961,1.467,4.125,0,0-.763.49-1.157.756s-1.112.649-1.112.649a2.238,2.238,0,0,1-1.6,1.557,10.792,10.792,0,0,0-3.619,1.666c-1.724,1.12-3.714,2.429-5.793.664s-4.958-7.4-8.419-11.891C1028.547,1084.554,1031.285,1076.336,1037.589,1080.166Z" transform="translate(-1028.547 -1079.149)" fill="#fff" fill-rule="evenodd"/>
        </g>
        <g id="Group_10933" data-name="Group 10933" transform="translate(21.431 29.077)">
          <path id="Path_18750" data-name="Path 18750" d="M1057.677,1100.74l.443,1.643s-3.251,3.317-3.858,4.811-.152,3.113,1.645,6.124,3.923,2.91,5.568,2.3a20.387,20.387,0,0,1,4.761-.951h0a10.461,10.461,0,0,0-3.411,1.6c-1.724,1.12-3.714,2.429-5.793.663-1.859-1.579-4.357-6.249-7.34-10.432.171-1.3,1.405-3.9,2.445-4.269C1053.2,1101.854,1057.677,1100.74,1057.677,1100.74Z" transform="translate(-1049.691 -1100.74)" fill="#d8edee" fill-rule="evenodd"/>
        </g>
        <g id="Group_10934" data-name="Group 10934" transform="translate(31.465 36.425)">
          <path id="Path_18751" data-name="Path 18751" d="M1254.7,1249.85a.1.1,0,0,1-.1-.092,5.854,5.854,0,0,0-2.214-4.787.1.1,0,0,1,.1-.163,6.041,6.041,0,0,1,2.3,4.943.1.1,0,0,1-.092.1Zm-6.539-.522a.1.1,0,0,1-.094-.076,6.979,6.979,0,0,0-.872-2.052,7.67,7.67,0,0,1-.806-1.778.1.1,0,0,1,.067-.117.094.094,0,0,1,.117.067,7.437,7.437,0,0,0,.788,1.734,7.147,7.147,0,0,1,.893,2.107.1.1,0,0,1-.074.113Zm.323-2.284a.094.094,0,0,1-.057-.019,3.591,3.591,0,0,1-.869-.91.1.1,0,1,1,.163-.1,3.467,3.467,0,0,0,.819.857.1.1,0,0,1,.021.133A.1.1,0,0,1,1248.479,1247.044Z" transform="translate(-1246.382 -1244.794)" fill="#d8edee"/>
        </g>
        <g id="Group_10935" data-name="Group 10935" transform="translate(2.831 46.825)">
          <path id="Path_18752" data-name="Path 18752" d="M687.532,1454.748l-1.728.918a2.962,2.962,0,0,1,.5,2.2c-.088,1.6-3.846,8.946,2.127,8.946H722.5c10.676,0,9.371-9.862,5.227-12.944a10.234,10.234,0,0,0-3.537-1.625c-5.536-1.457-14.462-3.569-14.462-3.569l-6.227.538Z" transform="translate(-685.061 -1448.673)" fill="#4f5e66" fill-rule="evenodd"/>
        </g>
        <g id="Group_10936" data-name="Group 10936" transform="translate(24.56 58.322)">
          <path id="Path_18753" data-name="Path 18753" d="M1111.022,1680.681h15.708c6.153,0,8.326-3.276,8.27-6.641-.947,4.332-6.048,4.58-9.719,4.58h-8.5c-2.308,0-2.958-1.308-2.958-1.308l-2.182,2.6Z" transform="translate(-1111.022 -1674.04)" fill="#43525a" fill-rule="evenodd"/>
        </g>
        <g id="Group_10937" data-name="Group 10937" transform="translate(2.831 46.825)">
          <path id="Path_18754" data-name="Path 18754" d="M687.532,1454.748l-1.728.918a2.962,2.962,0,0,1,.5,2.2c-.088,1.6-3.846,8.946,2.127,8.946h3.087c-.116-3.31-.006-6.047,4.491-6.047s12.308-5.769,14.021-9.511a5.741,5.741,0,0,1,1.542-2.139c-1.142-.273-1.85-.441-1.85-.441l-6.227.538Z" transform="translate(-685.061 -1448.673)" fill="#43525a" fill-rule="evenodd"/>
        </g>
        <g id="Group_10938" data-name="Group 10938" transform="translate(13.977 6.072)">
          <path id="Path_18755" data-name="Path 18755" d="M911.174,649.767a28.3,28.3,0,0,1-1.369,9.948c-.233.9-1.019.9-1.763.9h-1.005a4.516,4.516,0,0,1-3.191-2.171c-.849-1.47.466-6.148.466-6.148Z" transform="translate(-903.561 -649.767)" fill="#ffc5b0" fill-rule="evenodd"/>
        </g>
        <g id="Group_10939" data-name="Group 10939" transform="translate(13.977 7.625)">
          <path id="Path_18756" data-name="Path 18756" d="M904.857,688.527a4.386,4.386,0,0,1-1.012-1.181c-.808-1.4.345-5.708.458-6.117l.283-.133,2.377-.877,2.513,1.07.035,1.608-.336.578s-.153-.927-1.062-.4.522,2.357.522,2.357-1.221-.206-1.221.807a4.167,4.167,0,0,0,.681,2.011A21.214,21.214,0,0,1,904.857,688.527Z" transform="translate(-903.559 -680.219)" fill="#ffa89e" fill-rule="evenodd"/>
        </g>
        <g id="Group_10940" data-name="Group 10940" transform="translate(9.038 5.362)">
          <path id="Path_18757" data-name="Path 18757" d="M808.577,636.7l-1.368.962a3.893,3.893,0,0,1-.453,1.166s-.073.12.043.175a.711.711,0,0,0,.627-.156s-.914,5.186,1.169,5.186h3.6c1.559,0,2.943-.48,2.884-1.879s.219-2.841,1.21-2.841,1,1.4,1,2.41a.141.141,0,0,0,.142.15c.9,0,.722-1.687.722-2.375a3.7,3.7,0,0,1,.908-2.233l-3.35-1.415Z" transform="translate(-806.734 -635.85)" fill="#fff" fill-rule="evenodd"/>
        </g>
        <g id="Group_10941" data-name="Group 10941" transform="translate(9.038 5.835)">
          <path id="Path_18758" data-name="Path 18758" d="M808.577,645.5l-1.368.962a3.892,3.892,0,0,1-.453,1.165s-.073.12.043.175a.71.71,0,0,0,.627-.157,12.3,12.3,0,0,0-.068,3.8c-.494-2.6,2.02-2.474,3.924-1.583s2.762-.49,2.937-1.626a2.921,2.921,0,0,1,1.085-1.783l-1.173-.473s-1.165-.435-2.377-.864Z" transform="translate(-806.734 -645.122)" fill="#d8edee" fill-rule="evenodd"/>
        </g>
        <g id="Group_10942" data-name="Group 10942" transform="translate(17.772 7.852)">
          <path id="Path_18759" data-name="Path 18759" d="M979.826,688.755a.518.518,0,0,0-.088.321c-.008.233-.029.568-.641.568s-.83-.9-.83-1.428a1.457,1.457,0,0,1-.226-1.384,3.186,3.186,0,0,1,.087-1.508.922.922,0,0,1,1.341-.532c.393.313.218,1.362-.437,2.164C979.267,687.717,978.626,688.484,979.826,688.755Z" transform="translate(-977.964 -684.652)" fill="#ffc5b0" fill-rule="evenodd"/>
        </g>
        <g id="Group_10943" data-name="Group 10943" transform="translate(9.321)">
          <path id="Path_18760" data-name="Path 18760" d="M824.552,537.468a19.186,19.186,0,0,1-4.471.443h-7.6s-.219-.051-.189-.386,1-5.165,1-5.165a1.012,1.012,0,0,1,.772-.787c.728-.248,2.112-.641,2.112-.641s1.425-.2,1.757-.2c1.548,0,4.893.159,5.179,1.075.178.568,1.542,4.986,1.542,4.986S824.873,537.367,824.552,537.468Z" transform="translate(-812.284 -530.735)" fill="#4f5e66" fill-rule="evenodd"/>
        </g>
        <g id="Group_10944" data-name="Group 10944" transform="translate(9.321 0.623)">
          <path id="Path_18761" data-name="Path 18761" d="M820.571,549.494q-.239,0-.49,0h-7.6s-.219-.051-.189-.386,1-5.165,1-5.165a1.012,1.012,0,0,1,.772-.786c.191-.065.428-.141.674-.216,0,0-.587.369.489.369H817.6c.97,0,1.364.359,1.521,1.486C819.246,545.718,819.328,548.4,820.571,549.494Z" transform="translate(-812.284 -542.945)" fill="#43525a" fill-rule="evenodd"/>
        </g>
        <g id="Group_10945" data-name="Group 10945" transform="translate(9.393 5.109)">
          <path id="Path_18762" data-name="Path 18762" d="M813.7,632.146c.018-.1.038-.208.061-.33h6.159c1.3,0,2.34,0,3.3-.074a15.629,15.629,0,0,0,2.617-.4l.1.315a15.942,15.942,0,0,1-2.691.415c-.979.071-2.021.075-3.325.075Zm.123-.658h6.1c1.3,0,2.344,0,3.319-.075a15.882,15.882,0,0,0,2.507-.372l-.049-.158a15.72,15.72,0,0,1-2.47.365c-.966.07-2.005.074-3.307.074h-6.065Z" transform="translate(-813.699 -630.883)" fill="#fff" fill-rule="evenodd"/>
        </g>
        <g id="Group_10946" data-name="Group 10946" transform="translate(9.393 5.546)">
          <path id="Path_18763" data-name="Path 18763" d="M813.7,640.277c.018-.1.038-.208.061-.33h6.159c.438,0,.847,0,1.233,0,.048.113.1.223.154.329-.432,0-.891.005-1.387.005Zm7.273-.826c.018.055.036.11.055.165-.349,0-.717,0-1.108,0h-6.1l.032-.165h6.065C820.29,639.453,820.64,639.453,820.972,639.451Z" transform="translate(-813.699 -639.451)" fill="#6dd6cd" fill-rule="evenodd"/>
        </g>
        <g id="Group_10947" data-name="Group 10947" transform="translate(2.788 33.756)">
          <path id="Path_18764" data-name="Path 18764" d="M684.208,1200.958a6.4,6.4,0,0,1,.262,3.7c-.408,2.36-.117,4.4.7,5.216,0,0-1.488,2.3-.175,2.651s5.886,1.4,8.071,1.778,4.633-.321,7.693-1.69,6.09-3.205,5.653-5.216c0,0,1.369-1.749,2.506-1.865a1.33,1.33,0,0,0-.961-1.282,2.9,2.9,0,0,0-.554-3.089,11.31,11.31,0,0,1-1.806-7.634C705.945,1190.73,688.346,1193.528,684.208,1200.958Z" transform="translate(-684.208 -1192.463)" fill="#fff" fill-rule="evenodd"/>
        </g>
        <g id="Group_10948" data-name="Group 10948" transform="translate(6.481 33.756)">
          <path id="Path_18765" data-name="Path 18765" d="M774.834,1198.59a11.981,11.981,0,0,1-.519-5.058c.158-1.269-3.374-1.386-7.668-.444-5.359,5.969-10.633,12.6-9.969,13.3,1.223,1.293,2.062,3.252,2.622,3.007s.944-1.713,2.552-3.147,9.913-7.4,11.119-8.042a1.361,1.361,0,0,1,1.862.388Z" transform="translate(-756.621 -1192.467)" fill="#d8edee" fill-rule="evenodd"/>
        </g>
        <g id="Group_10949" data-name="Group 10949" transform="translate(1.195 53.852)">
          <path id="Path_18766" data-name="Path 18766" d="M653.87,1597.528s-.641-.087-.8-1.136a14.821,14.821,0,0,1,.291-4.575c.335-1.37.874-3.54,1.078-4.167s.59-1.287,1.078-1.23l1.845.448s1.04.767,1.1,3.1a20.237,20.237,0,0,0,.787,5.129c.408,1.69-.1,2.433-1.384,2.433Z" transform="translate(-652.997 -1586.417)" fill="#ffc5b0" fill-rule="evenodd"/>
        </g>
        <g id="Group_10950" data-name="Group 10950" transform="translate(8.157 57.975)">
          <path id="Path_18767" data-name="Path 18767" d="M790.218,1674.236s-.627-.284-.722-.794-.24-3.082,2.776-2.645c0,0,.539-.947,2.783-.772s3.336.481,4.342-.2a26.33,26.33,0,0,1,2.622-1.809c1.748-.959,4.568-1.437,5.406,1.182h.5a4.577,4.577,0,0,1,.19,5.041Z" transform="translate(-789.459 -1667.248)" fill="#ffc5b0" fill-rule="evenodd"/>
        </g>
        <g id="Group_10951" data-name="Group 10951" transform="translate(25.172 55.073)">
          <path id="Path_18768" data-name="Path 18768" d="M1123.115,1613.959a.1.1,0,0,1-.085-.139c.027-.052.682-1.291,2.848-1.291h8.436l3.614-2.155a.1.1,0,0,1,.1.165l-3.338,1.99h3.884a.1.1,0,1,1,0,.192h-12.693a2.875,2.875,0,0,0-2.677,1.186A.1.1,0,0,1,1123.115,1613.959Z" transform="translate(-1123.019 -1610.361)" fill="#43525a"/>
        </g>
        <g id="Group_10952" data-name="Group 10952" transform="translate(0 12.361)">
          <path id="Path_18769" data-name="Path 18769" d="M639.469,773.729c2.478-2.739,11.181,3.447,12.6,7.6,2.241.929,3.925,4.458,5.5,5.583s1.793,4.284,1.793,4.284h0a22.7,22.7,0,0,0-3.276,2.938c-4.6,4.9-7.052,7.518-12.938,10.665s-6.643,5.478-6.643,5.478a.186.186,0,0,1-.233.117,28.555,28.555,0,0,0-3.234-4.691c-2.3-2.593-1.165-5.333-3.088-7.314a1.074,1.074,0,0,1-.386-.925c.051-.6,1.414-8.275,1.734-11.888a6.3,6.3,0,0,1,3.6-5s1.807-4.546,4.779-5.1a1.243,1.243,0,0,0-.255-.94C639.126,774.129,639.2,774.025,639.469,773.729Z" transform="translate(-629.563 -773.052)" fill="#4f5e66" fill-rule="evenodd"/>
        </g>
        <g id="Group_10953" data-name="Group 10953" transform="translate(0.39 27.016)">
          <path id="Path_18770" data-name="Path 18770" d="M654.3,1075.1a42.766,42.766,0,0,1-3.89,2.328c-5.886,3.147-6.643,5.478-6.643,5.478a24.935,24.935,0,0,0-.366-5.432c-.495-1.8-2.033-7.183.2-12.113,0,0,.192-.192.306.114.107.287-.1,9.828,10.39,9.625Zm-15.286.987c-.616-1.857-.432-3.656-1.8-5.069,0,0,1.342.742,1.936-2.405s.944-7.22,1.084-7.85.368-.717.315.8A60.681,60.681,0,0,1,639.016,1076.085Z" transform="translate(-637.212 -1060.334)" fill="#43525a" fill-rule="evenodd"/>
        </g>
        <g id="Group_10954" data-name="Group 10954" transform="translate(0 26.676)">
          <path id="Path_18771" data-name="Path 18771" d="M659.366,1057.509a22.693,22.693,0,0,0-3.276,2.938c-4.6,4.9-7.052,7.518-12.938,10.665s-6.643,5.478-6.643,5.478a.186.186,0,0,1-.233.117,28.549,28.549,0,0,0-3.234-4.691c-2.3-2.594-1.165-5.333-3.088-7.314a1.074,1.074,0,0,1-.386-.925c.017-.2.176-1.168.394-2.507.128.689.447.937,1.409,2.039s.961,2.71,1.5,4.615,3.269,3.234,3.269,3.234c.612-1.206,1.975-2.623,5.052-4.126s12.728-9.86,15-11.958a9.78,9.78,0,0,1,1.865-1.393,7.854,7.854,0,0,1,1.305,3.829Z" transform="translate(-629.563 -1053.68)" fill="#ffa89e" fill-rule="evenodd"/>
        </g>
        <g id="Group_10955" data-name="Group 10955" transform="translate(0.39 36.533)">
          <path id="Path_18772" data-name="Path 18772" d="M654.3,1252.159a42.821,42.821,0,0,1-3.89,2.328c-5.886,3.147-6.643,5.478-6.643,5.478a24.934,24.934,0,0,0-.366-5.432c.582-1.148,1.845-2.485,4.616-3.907a10.91,10.91,0,0,0,6.284,1.533Zm-15.286.987c-.616-1.857-.432-3.656-1.8-5.069,0,0,.943.521,1.6-1.165a7.127,7.127,0,0,1,.943,2.77C639.56,1250.824,639.319,1251.989,639.016,1253.146Z" transform="translate(-637.212 -1246.912)" fill="#ee8b83" fill-rule="evenodd"/>
        </g>
        <g id="Group_10956" data-name="Group 10956" transform="translate(1.825 63.246)">
          <path id="Path_18773" data-name="Path 18773" d="M669.341,1772.379a.1.1,0,0,1-.1-.1v-1.526h-.954v1.526a.1.1,0,1,1-.191,0v-1.526h-.945v1.526a.1.1,0,1,1-.191,0v-1.526h-.8v1.526a.1.1,0,1,1-.191,0v-1.526h-.544a.1.1,0,1,1,0-.191h4.292a.1.1,0,0,1,0,.191h-.283v1.526A.1.1,0,0,1,669.341,1772.379Z" transform="translate(-665.332 -1770.566)" fill="#ee8b83"/>
        </g>
        <g id="Group_10957" data-name="Group 10957" transform="translate(9.405 59.826)">
          <path id="Path_18774" data-name="Path 18774" d="M814.379,1708.765a.1.1,0,0,1-.084-.05,2.811,2.811,0,0,1-.237-2.084,1.913,1.913,0,0,1,1.246-1.089.1.1,0,1,1,.063.18,1.732,1.732,0,0,0-1.13.979,2.659,2.659,0,0,0,.226,1.924.1.1,0,0,1-.084.141Zm2.328,0a.1.1,0,0,1-.081-.044,2,2,0,0,1-.276-1.49,1.207,1.207,0,0,1,.8-.728.1.1,0,0,1,.065.18,1.027,1.027,0,0,0-.68.61,1.84,1.84,0,0,0,.257,1.325.1.1,0,0,1-.03.132A.094.094,0,0,1,816.707,1708.765Zm-1.09,0a.1.1,0,0,1-.081-.044,2.455,2.455,0,0,1-.338-1.821,1.47,1.47,0,0,1,.97-.886.1.1,0,1,1,.065.18,1.291,1.291,0,0,0-.854.767,2.3,2.3,0,0,0,.319,1.658.1.1,0,0,1-.08.146Zm14.62-2.531a.094.094,0,0,1-.052-.016.1.1,0,0,1-.028-.133,3.526,3.526,0,0,0,.4-2.437.1.1,0,1,1,.187-.043,3.657,3.657,0,0,1-.429,2.584A.1.1,0,0,1,830.237,1706.235Z" transform="translate(-813.937 -1703.533)" fill="#ee8b83"/>
        </g>
        <g id="Group_10958" data-name="Group 10958" transform="translate(3.653 48.595)">
          <path id="Path_18775" data-name="Path 18775" d="M715.387,1487.078a.1.1,0,0,1-.029-.187c5.46-1.751,7.076-3.487,7.092-3.5a.1.1,0,0,1,.142.128c-.065.072-1.655,1.788-7.176,3.559A.1.1,0,0,1,715.387,1487.078Zm-9.755-.285a12.514,12.514,0,0,1-4.39-.778.1.1,0,0,1,.074-.176,12.3,12.3,0,0,0,7.227.386.1.1,0,1,1,.05.185A11.346,11.346,0,0,1,705.632,1486.793Z" transform="translate(-701.184 -1483.355)" fill="#d8edee"/>
        </g>
        <g id="Group_10959" data-name="Group 10959" transform="translate(5.231 14.582)">
          <path id="Path_18776" data-name="Path 18776" d="M740.2,824.606a.1.1,0,0,1-.037-.184c6.077-2.535,9.125-1.9,9.251-1.868a.1.1,0,0,1-.042.187c-.031-.007-3.125-.65-9.137,1.858A.1.1,0,0,1,740.2,824.606Zm-5.77-.839h0a2.523,2.523,0,0,1-1.96-.736,1.54,1.54,0,0,1-.337-1.149.1.1,0,0,1,.189.03,1.367,1.367,0,0,0,.3,1,2.352,2.352,0,0,0,1.816.664.1.1,0,0,1,0,.191Zm11.4-4.056a.1.1,0,0,1-.062-.023,10.8,10.8,0,0,0-8.742-2.8.1.1,0,0,1-.043-.186,10.988,10.988,0,0,1,8.909,2.837.1.1,0,0,1-.062.169Z" transform="translate(-732.118 -816.591)" fill="#43525a"/>
        </g>
        <g id="Group_10960" data-name="Group 10960" transform="translate(17.676 7.756)">
          <path id="Path_18777" data-name="Path 18777" d="M977.3,687.965c-.661,0-.916-.9-.926-1.488a1.559,1.559,0,0,1-.229-1.425,3.188,3.188,0,0,1,.1-1.539,1.175,1.175,0,0,1,.774-.7.81.81,0,0,1,.714.13.1.1,0,0,1-.119.15.618.618,0,0,0-.547-.095.984.984,0,0,0-.646.588,3.1,3.1,0,0,0-.082,1.454.092.092,0,0,1,0,.046,1.368,1.368,0,0,0,.205,1.291.1.1,0,0,1,.025.065c0,.435.179,1.332.734,1.332.53,0,.538-.253.546-.476a.089.089,0,0,1,.1-.093.1.1,0,0,1,.092.1C978.035,687.518,978.021,687.965,977.3,687.965Z" transform="translate(-976.075 -682.782)" fill="#ee8b83"/>
        </g>
        <g id="Group_10961" data-name="Group 10961" transform="translate(12.517 61.01)">
          <path id="Path_18778" data-name="Path 18778" d="M889.865,1727.721a4.659,4.659,0,0,1-.628,2.964h-14.29a10.63,10.63,0,0,0,3.89-.778c1.32-.734,3.54-2.762,4.17-3.13s-.507,1.556-.542,2.168,1.171.822,3.147.822H888.2A2.119,2.119,0,0,0,889.865,1727.721Z" transform="translate(-874.947 -1726.732)" fill="#ffa89e" fill-rule="evenodd"/>
        </g>
        <g id="Group_10962" data-name="Group 10962" transform="translate(0.166 26.676)">
          <path id="Path_18779" data-name="Path 18779" d="M659.006,1056.3a9.952,9.952,0,0,1,2.593-1.947,3.91,3.91,0,0,0-.449-.67,9.784,9.784,0,0,0-1.865,1.393c-2.273,2.1-11.924,10.455-15,11.958s-4.441,2.92-5.052,4.126c0,0-2.727-1.329-3.269-3.234s-.542-3.514-1.5-4.615-1.28-1.35-1.409-2.039c-.089.547-.168,1.033-.232,1.429.156.546.5.849,1.361,1.834.962,1.1.962,2.71,1.5,4.616s3.794,3.532,3.794,3.532a8.679,8.679,0,0,1,4.528-4.424C647.082,1066.752,656.558,1058.833,659.006,1056.3Z" transform="translate(-632.819 -1053.68)" fill="#fff" fill-rule="evenodd"/>
        </g>
        <g id="Group_10963" data-name="Group 10963" transform="translate(1.45 36.533)">
          <path id="Path_18780" data-name="Path 18780" d="M667.724,1250.625c-2.771,1.422-4.034,2.76-4.616,3.907a9.651,9.651,0,0,1,.255,1.5,8.67,8.67,0,0,1,4.518-4.4c.239-.116.516-.272.826-.461a8.368,8.368,0,0,1-.983-.544Zm-8.265-.943a7.128,7.128,0,0,0-.943-2.77,2.636,2.636,0,0,1-.539.906l.078.089a6.6,6.6,0,0,1,1.152,3.135Q659.346,1250.358,659.459,1249.682Z" transform="translate(-657.978 -1246.912)" fill="#fae4e4" fill-rule="evenodd"/>
        </g>
        <g id="Group_10964" data-name="Group 10964" transform="translate(42.092 32.947)">
          <path id="Path_18781" data-name="Path 18781" d="M1458.726,1181.935a.076.076,0,0,1-.052-.133,11.183,11.183,0,0,0,1.07-1.12.076.076,0,1,1,.122.092,11.1,11.1,0,0,1-1.089,1.141A.077.077,0,0,1,1458.726,1181.935Zm.811-2.72a.077.077,0,0,1-.041-.142,1.764,1.764,0,0,1,.856-.35.077.077,0,0,1,.073.08.08.08,0,0,1-.079.073h0a1.723,1.723,0,0,0-.769.327A.077.077,0,0,1,1459.537,1179.215Zm-.664-.926a.076.076,0,0,1-.052-.132,2.875,2.875,0,0,1,.919-.6.077.077,0,0,1,.051.144,2.778,2.778,0,0,0-.866.57A.074.074,0,0,1,1458.873,1178.289Zm-4.09-.5a.076.076,0,0,1-.043-.14l1.233-.838a.077.077,0,0,1,.086.127l-1.233.838A.076.076,0,0,1,1454.783,1177.789Zm3.131-.426a.076.076,0,0,1-.046-.137c.782-.6,1.083-.6,1.122-.609a.076.076,0,0,1,0,.153,2.437,2.437,0,0,0-1.028.578A.077.077,0,0,1,1457.913,1177.364Z" transform="translate(-1454.706 -1176.617)" fill="#ee8b83"/>
        </g>
      </g>
      <g id="Group_10968" data-name="Group 10968" transform="translate(6978.674 -23149.42)">
        <g id="Group_10966" data-name="Group 10966">
          <path id="Path_18782" data-name="Path 18782" d="M381.6,1802.994H282.567c-.246,0-.448.278-.448.618s.2.617.448.617H381.6c.246,0,.449-.278.449-.617S381.843,1802.994,381.6,1802.994Z" transform="translate(-282.119 -1802.994)" fill="#fff" fill-rule="evenodd"/>
        </g>
        <g id="Group_10967" data-name="Group 10967" transform="translate(101.082)">
          <path id="Path_18783" data-name="Path 18783" d="M2814.833,1802.994h1.614a.62.62,0,0,1,0,1.235h-1.614a.62.62,0,0,1,0-1.235Z" transform="translate(-2814.273 -1802.994)" fill="#fff" fill-rule="evenodd"/>
        </g>
      </g>
      <g id="Group_11027" data-name="Group 11027" transform="translate(7036.504 -23194.584)">
        <g id="Group_10969" data-name="Group 10969" transform="translate(9.381 40.079)">
          <path id="Path_18784" data-name="Path 18784" d="M1759.442,1704.87c-1,.166-6.007-1.57-6.439-1.541a20.233,20.233,0,0,0-2.779.325.935.935,0,0,0-.76.834c-.045.51.26.865.749.772a6.485,6.485,0,0,1,1.055-.232s.051.17-.015.24-.975-.073-1.378.127-.232,1.089.165.989,1.077-.317,1.19-.317c0,0,.108-.015.138.015a.248.248,0,0,1,.012.2,1.3,1.3,0,0,1-.553.066c-.272,0-.558-.024-.683.17s.039.784.464.73a7.38,7.38,0,0,0,1.049-.348c.1,0,.1.162.057.22s-.629.046-.734.1-.187.1-.17.386.284.463.657.34.647-.34.715-.333.04.139-.125.186-.312.062-.369.178a.338.338,0,0,0,.329.492h4.7c.688,0,2.264.012,2.726.007Z" transform="translate(-1749.46 -1703.329)" fill="#ffa89e" fill-rule="evenodd"/>
        </g>
        <g id="Group_10970" data-name="Group 10970" transform="translate(10.744 17.33)">
          <path id="Path_18785" data-name="Path 18785" d="M1786.982,1257.371a10.871,10.871,0,0,0-3.22,4.391c-1.3,3.033-2.166,4.862-2.166,4.862s-.722.265-.746.89l-4.665,3.272,1.848,1.229,4.934-.81,2.616-1.611,2.339-4.142Z" transform="translate(-1776.185 -1257.371)" fill="#fff" fill-rule="evenodd"/>
        </g>
        <g id="Group_10971" data-name="Group 10971" transform="translate(23.17 12.19)">
          <path id="Path_18786" data-name="Path 18786" d="M2019.774,1159.113s.7.265.878.734.408,1.143.433,1.252a2.154,2.154,0,0,0,2.034.855c1.444-.025,3.062-.859,3.134-1.99a5.245,5.245,0,0,1-1.014-2.68c-.026-.135-.126-.741-.267-.674Z" transform="translate(-2019.774 -1156.604)" fill="#ffc5b0" fill-rule="evenodd"/>
        </g>
        <g id="Group_10972" data-name="Group 10972" transform="translate(23.17 12.19)">
          <path id="Path_18787" data-name="Path 18787" d="M2019.774,1159.113s.7.265.878.734c.042.108.085.227.129.347a4.867,4.867,0,0,0,4.6-2.167c-.044-.213-.086-.452-.144-.744-.026-.135-.126-.741-.267-.674Z" transform="translate(-2019.774 -1156.604)" fill="#ee8b83" fill-rule="evenodd"/>
        </g>
        <g id="Group_10973" data-name="Group 10973" transform="translate(29.004 9.201)">
          <path id="Path_18788" data-name="Path 18788" d="M2135.128,1098.291s.55-.367.842-.269.514.823.359,1.3-1.113,2.021-1.946,1.153S2135.128,1098.291,2135.128,1098.291Z" transform="translate(-2134.139 -1098.005)" fill="#ffc5b0" fill-rule="evenodd"/>
        </g>
        <g id="Group_10974" data-name="Group 10974" transform="translate(29.436 9.603)">
          <path id="Path_18789" data-name="Path 18789" d="M2142.655,1106.24a.113.113,0,0,0-.052.122.062.062,0,0,0,.087.036h0s-.082,1.551.192,1.37a1.857,1.857,0,0,0,.741-.705c.181-.356-.074-.781.07-.851s.227.109.236.125h0a1,1,0,0,1,.078.312.062.062,0,0,0,.086.057.114.114,0,0,0,.073-.111s-.038-.607-.457-.685A2.041,2.041,0,0,0,2142.655,1106.24Z" transform="translate(-2142.6 -1105.902)" fill="#ee8b83" fill-rule="evenodd"/>
        </g>
        <g id="Group_10975" data-name="Group 10975" transform="translate(19.585 8.29)">
          <path id="Path_18790" data-name="Path 18790" d="M1950.925,1080.657s-.4-.51-.7-.509-.73.607-.731,1.095.413,2.219,1.454,1.668S1950.925,1080.657,1950.925,1080.657Z" transform="translate(-1949.494 -1080.148)" fill="#ffc5b0" fill-rule="evenodd"/>
        </g>
        <g id="Group_10976" data-name="Group 10976" transform="translate(19.822 8.742)">
          <path id="Path_18791" data-name="Path 18791" d="M1955.655,1089.643a.109.109,0,0,1,.01.129.06.06,0,0,1-.092.007h0s-.4,1.465-.6,1.213a1.814,1.814,0,0,1-.471-.882c-.059-.386.308-.7.2-.812s-.244.031-.257.044h0a1,1,0,0,0-.168.266.06.06,0,0,1-.1.027.112.112,0,0,1-.034-.126s.222-.552.635-.5C1955.171,1089.067,1955.653,1089.641,1955.655,1089.643Z" transform="translate(-1954.135 -1089.01)" fill="#ee8b83" fill-rule="evenodd"/>
        </g>
        <g id="Group_10977" data-name="Group 10977" transform="translate(20.514 1.873)">
          <path id="Path_18792" data-name="Path 18792" d="M1973.37,954.392c-6.284-.484-5.668,4.481-5.623,8.475.072,6.267,7.814,6.418,9.243.361C1977.907,959.34,1979.637,955.059,1973.37,954.392Z" transform="translate(-1967.71 -954.359)" fill="#ffc5b0" fill-rule="evenodd"/>
        </g>
        <g id="Group_10978" data-name="Group 10978" transform="translate(21.139 2.378)">
          <path id="Path_18793" data-name="Path 18793" d="M1980.831,965.354a5.715,5.715,0,0,0-.879,2.651c.117-.028.238-.058.365-.09,3.63-.928,7.482,1.644,7.482,1.644a28.336,28.336,0,0,1,1.1-2.862c.226-.28-5.092-2.3-5.542-2.429A8.617,8.617,0,0,0,1980.831,965.354Z" transform="translate(-1979.952 -964.262)" fill="#f2a195" fill-rule="evenodd"/>
        </g>
        <g id="Group_10982" data-name="Group 10982" transform="translate(23.601 10.16)">
          <path id="Path_18797" data-name="Path 18797" d="M2028.247,1117.443c-.059-.062.014-.3.078-.467.049-.122.085-.181.121-.172.036-.01.072.046.121.165.064.158.138.4.078.462A.343.343,0,0,1,2028.247,1117.443Z" transform="translate(-2028.225 -1116.803)" fill="#f9d4c8" fill-rule="evenodd"/>
        </g>
        <g id="Group_10985" data-name="Group 10985" transform="translate(27.903 5.858)">
          <path id="Path_18800" data-name="Path 18800" d="M2115.8,1032.554c-.188.381.207,1.946.053,2.392a3.382,3.382,0,0,1-.449.873c-.709.037-.828,1.255-.96,1.54-.646-.183-.661-1.388-.661-1.388-1.063-.443-1.215-2.587-1.23-3.5Z" transform="translate(-2112.548 -1032.476)" fill="#43525a" fill-rule="evenodd"/>
        </g>
        <g id="Group_10990" data-name="Group 10990" transform="translate(20.269 5.029)">
          <path id="Path_18805" data-name="Path 18805" d="M1963.082,1017.231a4.16,4.16,0,0,0,.064,2.608l.125-1.451a4.71,4.71,0,0,0,.783-1.975C1964.005,1015.706,1963.082,1017.231,1963.082,1017.231Z" transform="translate(-1962.897 -1016.226)" fill="#43525a" fill-rule="evenodd"/>
        </g>
        <g id="Group_10991" data-name="Group 10991" transform="translate(20.358)">
          <path id="Path_18806" data-name="Path 18806" d="M1975.5,925.971a.638.638,0,0,0,.426-.392c.092-.306.641-5.286-1.361-6.606s-7-2.138-8.273-.093-1.888,4.4-1.541,4.8C1964.75,923.676,1969.571,921.464,1975.5,925.971Z" transform="translate(-1964.653 -917.642)" fill="#fff" fill-rule="evenodd"/>
        </g>
        <g id="Group_10992" data-name="Group 10992" transform="translate(28.053 0.691)">
          <path id="Path_18807" data-name="Path 18807" d="M2118.643,938.823a.637.637,0,0,0,.426-.392c.092-.306.641-5.286-1.361-6.606a6.679,6.679,0,0,0-1.306-.64c.02.013.477.326.5,1.327a20.7,20.7,0,0,1-.285,3.312c-.129.686-.5,1.206-1.12,1.133h0A15.1,15.1,0,0,1,2118.643,938.823Z" transform="translate(-2115.492 -931.185)" fill="#d8edee" fill-rule="evenodd"/>
        </g>
        <g id="Group_10993" data-name="Group 10993" transform="translate(21.531 15.134)">
          <path id="Path_18808" data-name="Path 18808" d="M1987.645,1216.511l2.542-.974,1.781,1.135,3.751-2.358s3.643.984,5.845,1.79c0,0,3.657,9.565,2.5,16.257,0,0-7.5,6.939-15.023,3.579a11.867,11.867,0,0,1,.5-4.7,3.2,3.2,0,0,1,.1-1.685C1988.842,1225.868,1987.5,1220.178,1987.645,1216.511Z" transform="translate(-1987.634 -1214.315)" fill="#fff" fill-rule="evenodd"/>
        </g>
        <g id="Group_10994" data-name="Group 10994" transform="translate(22.895 27.72)">
          <path id="Path_18809" data-name="Path 18809" d="M2029.546,1461.152a20.378,20.378,0,0,1-.1,5.349,20.1,20.1,0,0,1-6.057,3.62l-.272-.111c1.5-.939.128-1.569.128-1.569a26.384,26.384,0,0,0-2.509-1.2,2.1,2.1,0,0,0-1.929.431l-3.229,2.844a10.509,10.509,0,0,1-1.155-.437,11.866,11.866,0,0,1,.5-4.7,3.628,3.628,0,0,1-.053-.369c4.558-1.2,14.239-3.767,14.319-3.949C2029.219,1461.01,2029.351,1461.052,2029.546,1461.152Z" transform="translate(-2014.381 -1461.04)" fill="#d8edee" fill-rule="evenodd"/>
        </g>
        <g id="Group_10995" data-name="Group 10995" transform="translate(29.924 28.709)">
          <path id="Path_18810" data-name="Path 18810" d="M2152.4,1480.463s-.238.068-.227.564.25,3,.248,3.027a1.3,1.3,0,0,0,.55.8c.459.323,1.231-.536,1.231-.536l-.271-3.8A7.013,7.013,0,0,0,2152.4,1480.463Z" transform="translate(-2152.174 -1480.432)" fill="#c7e5e5" fill-rule="evenodd"/>
        </g>
        <g id="Group_10996" data-name="Group 10996" transform="translate(24.069 17.395)">
          <path id="Path_18811" data-name="Path 18811" d="M2039.635,1278.506a.1.1,0,0,1-.093-.074c-.676-2.921.77-6.358.977-6.829-2.273-2.908-2.836-8.495-3.021-10.337-.028-.279-.049-.481-.065-.588-.144-.918.26-1.154.277-1.164l1.438-.849a.1.1,0,1,1,.1.164l-1.44.851s-.3.2-.184.969c.018.112.038.316.067.6.185,1.838.748,7.432,3.016,10.283a.1.1,0,0,1,.012.1c-.017.037-1.7,3.7-.988,6.759a.1.1,0,0,1-.072.115Z" transform="translate(-2037.402 -1258.652)" fill="#c7e5e5"/>
        </g>
        <g id="Group_11000" data-name="Group 11000" transform="translate(23.822 15.719)">
          <path id="Path_18814" data-name="Path 18814" d="M2032.551,1226.52l.333-.737,1.277.651.431,1.121Z" transform="translate(-2032.551 -1225.783)" fill="#fff" fill-rule="evenodd"/>
        </g>
        <g id="Group_11001" data-name="Group 11001" transform="translate(25.864 14.364)">
          <path id="Path_18815" data-name="Path 18815" d="M2076.333,1200l-.524-.77-2.945,1.9-.281,1.222Z" transform="translate(-2072.582 -1199.232)" fill="#fff" fill-rule="evenodd"/>
        </g>
        <g id="Group_11002" data-name="Group 11002" transform="translate(13.375 33.699)">
          <path id="Path_18816" data-name="Path 18816" d="M1827.747,1580.293l.194-2.031,7.949,3.444a2.9,2.9,0,0,1,2.378-.2,46.005,46.005,0,0,0,6.8.272l3.247-1.826.249.065c5.682,1.539-7.24,7.267-9.865,7.368S1827.747,1580.293,1827.747,1580.293Z" transform="translate(-1827.747 -1578.262)" fill="#43525a" fill-rule="evenodd"/>
        </g>
        <g id="Group_11003" data-name="Group 11003" transform="translate(25.497 32.061)">
          <path id="Path_18817" data-name="Path 18817" d="M2065.583,1555.366s-.492-1.038.059-1.288c.234-.106,2.392-1.334,4.948-2.778l3.423-1.924c2.422-1.354,4.62-2.556,5.383-2.89,1.945-.851,3.749.025,5.014,1.4a6.48,6.48,0,0,1,1.218,5.779c-.6,1.729-1.921,5.65-4.124,5.65h-12.97Z" transform="translate(-2065.381 -1546.15)" fill="#4f5e66" fill-rule="evenodd"/>
        </g>
        <g id="Group_11004" data-name="Group 11004" transform="translate(28.363 41.789)">
          <path id="Path_18818" data-name="Path 18818" d="M2128.764,1740.285h-6.9c.058-.045-.322-.922-.286-.995s5.672-.023,5.672-.023l4.717-2.419Z" transform="translate(-2121.576 -1736.848)" fill="#43525a" fill-rule="evenodd"/>
        </g>
        <g id="Group_11005" data-name="Group 11005" transform="translate(18.634 40.224)">
          <path id="Path_18819" data-name="Path 18819" d="M1936.7,1706.754c.36.343,1.031-.144,1.875.106a4.493,4.493,0,0,0,3.165.2v4.109h-9.831l-1.055-2.61s1.289-1.8,1.874-2.027S1935.488,1705.735,1936.7,1706.754Z" transform="translate(-1930.853 -1706.169)" fill="#ffc5b0" fill-rule="evenodd"/>
        </g>
        <g id="Group_11006" data-name="Group 11006" transform="translate(18.634 40.224)">
          <path id="Path_18820" data-name="Path 18820" d="M1935.615,1711.172h-3.708l-1.055-2.61s1.289-1.8,1.874-2.027,2.761-.8,3.971.219a2.608,2.608,0,0,0-2.851,1.56C1933.011,1710.267,1933.8,1711.172,1935.615,1711.172Z" transform="translate(-1930.853 -1706.169)" fill="#ffa89e" fill-rule="evenodd"/>
        </g>
        <g id="Group_11007" data-name="Group 11007" transform="translate(6.13 32.117)">
          <path id="Path_18821" data-name="Path 18821" d="M1704.082,1555.928a1.136,1.136,0,0,0-.515-.588c-.411-.237-11.534-7.237-11.534-7.237-5.993-3.544-8.015,4.787-4.741,6.807a99.033,99.033,0,0,0,9.636,4.706,7.227,7.227,0,0,0,2.247.73h.478C1698.97,1557.887,1702.119,1554.662,1704.082,1555.928Z" transform="translate(-1685.733 -1547.236)" fill="#4f5e66" fill-rule="evenodd"/>
        </g>
        <g id="Group_11008" data-name="Group 11008" transform="translate(7.974 39.961)">
          <path id="Path_18822" data-name="Path 18822" d="M1721.869,1701.01a102.371,102.371,0,0,0,9.353,4.536,7.222,7.222,0,0,0,2.247.73h.478a3.509,3.509,0,0,1,.53-2.727h0a3.132,3.132,0,0,1-2.583.862Z" transform="translate(-1721.869 -1701.01)" fill="#43525a" fill-rule="evenodd"/>
        </g>
        <g id="Group_11009" data-name="Group 11009" transform="translate(12.335 32.888)">
          <path id="Path_18823" data-name="Path 18823" d="M1829.07,1573.777a.1.1,0,0,1-.044-.181l4.886-2.505.008,0,3.22-1.652.416-.708a.1.1,0,0,1,.165.1l-.263.449.745-.382a.1.1,0,1,1,.088.17l-3.858,1.979,2.494-.208a.1.1,0,0,1,.1.087.1.1,0,0,1-.087.1l-2.957.247-4.872,2.5A.1.1,0,0,1,1829.07,1573.777Zm-9.558-3.4a.1.1,0,0,1-.091-.067,1.057,1.057,0,0,0-.472-.533c-.406-.236-11.082-6.954-11.536-7.239a.1.1,0,1,1,.1-.162c.111.069,11.127,7,11.531,7.235a1.226,1.226,0,0,1,.559.643.1.1,0,0,1-.064.119A.089.089,0,0,1,1819.512,1570.378Zm3.5-2.2-.021,0a9.4,9.4,0,0,1-2.179-.854,13.564,13.564,0,0,0-2.205-.92.1.1,0,0,1-.064-.119.094.094,0,0,1,.119-.064,13.706,13.706,0,0,1,2.234.931,9.269,9.269,0,0,0,2.137.839.1.1,0,0,1-.021.189Zm.309-.181a.1.1,0,0,1-.093-.075,4.468,4.468,0,0,1-.114-1.2.1.1,0,0,1,.1-.093.1.1,0,0,1,.094.1,4.3,4.3,0,0,0,.109,1.158.1.1,0,0,1-.073.114Zm-5.444-.575a.1.1,0,0,1-.045-.011l-1.331-.714a.1.1,0,0,1,.091-.169l1.33.714a.1.1,0,0,1-.045.18Z" transform="translate(-1807.367 -1562.361)" fill="#43525a"/>
        </g>
        <g id="Group_11010" data-name="Group 11010" transform="translate(23.527 40.079)">
          <path id="Path_18824" data-name="Path 18824" d="M2026.768,1704.87c1,.166,5.164-1.57,5.6-1.541a20.238,20.238,0,0,1,2.779.325.935.935,0,0,1,.76.834c.046.51-.261.865-.748.772a6.507,6.507,0,0,0-1.055-.232s-.051.17.014.24.975-.073,1.377.127.233,1.089-.164.989-1.077-.317-1.191-.317c0,0-.108-.015-.139.015a.249.249,0,0,0-.011.2,1.3,1.3,0,0,0,.553.066c.272,0,.558-.024.683.17s-.04.784-.465.73a7.385,7.385,0,0,1-1.049-.348c-.1,0-.1.162-.057.22s.629.046.734.1.187.1.17.386-.283.463-.658.34-.646-.34-.714-.333-.04.139.125.186.312.062.369.178a.338.338,0,0,1-.329.492h-4.7c-.688,0-1.421.012-1.884.007Z" transform="translate(-2026.768 -1703.329)" fill="#ffc5b0" fill-rule="evenodd"/>
        </g>
        <g id="Group_11011" data-name="Group 11011" transform="translate(22.141 27.732)">
          <path id="Path_18825" data-name="Path 18825" d="M1999.595,1462.855a6.907,6.907,0,0,1,1.718-1.453,2.37,2.37,0,0,1,2.057.306c.584.34,1.622,1.02,1.622,1.02s3.813-.345,3.759-.277a12.153,12.153,0,0,0,1.119,1.349l-.184,1.729-.8.463-3.482-.244a6.842,6.842,0,0,0-1.372.415C2003.48,1466.314,1999.595,1462.855,1999.595,1462.855Z" transform="translate(-1999.595 -1461.276)" fill="#ffc5b0" fill-rule="evenodd"/>
        </g>
        <g id="Group_11023" data-name="Group 11023" transform="translate(0 28.901)">
          <g id="Group_11012" data-name="Group 11012" transform="translate(18.581)">
            <path id="Path_18826" data-name="Path 18826" d="M1929.8,1484.207h9.669l1.314,1.433H1929.8Z" transform="translate(-1929.802 -1484.207)" fill="#d8edee" fill-rule="evenodd"/>
          </g>
          <g id="Group_11013" data-name="Group 11013" transform="translate(5.99 1.845)">
            <rect id="Rectangle_2596" data-name="Rectangle 2596" width="11.909" height="4.328" fill="#d8edee"/>
          </g>
          <g id="Group_11014" data-name="Group 11014" transform="translate(17.289 7.18)">
            <path id="Path_18827" data-name="Path 18827" d="M1906.213,1624.967l11.072,9.145h-2.811l-9.991-8.252h1.729Z" transform="translate(-1904.484 -1624.967)" fill="#9b5672" fill-rule="evenodd"/>
          </g>
          <g id="Group_11015" data-name="Group 11015" transform="translate(9.027 1.249)">
            <path id="Path_18828" data-name="Path 18828" d="M1763.588,1508.691h-2.81l-18.253,15.076h2.81Z" transform="translate(-1742.524 -1508.691)" fill="#9b5672" fill-rule="evenodd"/>
          </g>
          <g id="Group_11016" data-name="Group 11016" transform="translate(11.142 1.249)">
            <path id="Path_18829" data-name="Path 18829" d="M1802.932,1508.691h-9.822l-9.127,7.538h9.822Z" transform="translate(-1783.983 -1508.691)" fill="#9b5672" fill-rule="evenodd"/>
          </g>
          <g id="Group_11017" data-name="Group 11017" transform="translate(11.54 8.459)">
            <path id="Path_18830" data-name="Path 18830" d="M1794.374,1653.587l8.431-.028-4.1-3.464-6.927-.07Z" transform="translate(-1791.776 -1650.025)" fill="#9b5672" fill-rule="evenodd"/>
          </g>
          <g id="Group_11018" data-name="Group 11018" transform="translate(6.53 8.643)">
            <path id="Path_18831" data-name="Path 18831" d="M1693.559,1657.015h7.949l-4.173-3.378Z" transform="translate(-1693.559 -1653.637)" fill="#c27389" fill-rule="evenodd"/>
          </g>
          <g id="Group_11019" data-name="Group 11019" transform="translate(3.179 1.845)">
            <path id="Path_18832" data-name="Path 18832" d="M1627.886,1520.375h2.81l6.361,5.254-1.391,1.172Z" transform="translate(-1627.886 -1520.375)" fill="#fff" fill-rule="evenodd"/>
          </g>
          <g id="Group_11020" data-name="Group 11020" transform="translate(8.843)">
            <path id="Path_18833" data-name="Path 18833" d="M1750.272,1484.207h-2.81l-8.547,7.1,1.391,1.172Z" transform="translate(-1738.915 -1484.207)" fill="#fff" fill-rule="evenodd"/>
          </g>
          <g id="Group_11021" data-name="Group 11021" transform="translate(0 1.249)">
            <path id="Path_18834" data-name="Path 18834" d="M1565.558,1508.691h2.81l18.254,15.076h-2.81Z" transform="translate(-1565.558 -1508.691)" fill="#c27389" fill-rule="evenodd"/>
          </g>
          <g id="Group_11022" data-name="Group 11022" transform="translate(0 1.249)">
            <path id="Path_18835" data-name="Path 18835" d="M1586.622,1508.691h-2.81l-18.254,15.076h2.81Z" transform="translate(-1565.558 -1508.691)" fill="#c27389" fill-rule="evenodd"/>
          </g>
        </g>
        <g id="Group_11024" data-name="Group 11024" transform="translate(30.151 16.823)">
          <path id="Path_18836" data-name="Path 18836" d="M2163.958,1249.748c.729,1.8.9,3.683,1.251,4.537s2.055,5.956.267,7.428-6.768,2.189-7.935,2.213a.5.5,0,0,1-.344-.192.69.69,0,0,0,.62-.4c.271-.445.339-4.052-1.191-3.984,0,0,2.825-.8,4.052-1a.785.785,0,0,1,.481-.542s-1.295-3.69-1.8-4.641C2156.845,1248.43,2162,1244.911,2163.958,1249.748Z" transform="translate(-2156.627 -1247.431)" fill="#fff" fill-rule="evenodd"/>
        </g>
        <g id="Group_11025" data-name="Group 11025" transform="translate(30.056 20.46)">
          <path id="Path_18837" data-name="Path 18837" d="M2154.846,1327.1a.1.1,0,0,1-.026-.188c.027-.008,2.756-.779,4-1a.878.878,0,0,1,.435-.513c-.207-.576-.484-1.221-.778-1.9a24.664,24.664,0,0,1-1.643-4.661.1.1,0,1,1,.187-.039,24.5,24.5,0,0,0,1.632,4.623c.293.682.571,1.328.781,1.908a5.585,5.585,0,0,1,2.249-.138.094.094,0,0,1,.086.1.1.1,0,0,1-.1.087,4.862,4.862,0,0,0-2.247.159l-.013.005a.621.621,0,0,0-.361.328c.627-.1,2.836-.34,4.01.744a.1.1,0,1,1-.13.141c-1.273-1.177-3.96-.679-4.01-.67h0c-1.208.2-4.014.995-4.042,1A.094.094,0,0,1,2154.846,1327.1Z" transform="translate(-2154.751 -1318.727)" fill="#c7e5e5"/>
        </g>
        <g id="Group_11026" data-name="Group 11026" transform="translate(15.313 15.038)">
          <path id="Path_18838" data-name="Path 18838" d="M1867.352,1225.453a.1.1,0,0,1-.069-.03,1.6,1.6,0,0,0-1.415-.454.1.1,0,0,1-.115-.072.1.1,0,0,1,.072-.115,1.777,1.777,0,0,1,1.6.508.1.1,0,0,1-.069.162Zm1.389-.971a.093.093,0,0,1-.053-.017,2.335,2.335,0,0,0-2.058-.39.1.1,0,0,1-.072-.177,2.478,2.478,0,0,1,2.237.409.1.1,0,0,1-.054.175Zm4.178-1.571a.1.1,0,0,1-.093-.074,34.49,34.49,0,0,1-.74-6.365.1.1,0,0,1,.094-.1h0a.1.1,0,0,1,.1.095,34.282,34.282,0,0,0,.735,6.325.1.1,0,0,1-.072.115Zm3.383-7.921a.1.1,0,0,1-.043-.01l-2.042-1.035a.1.1,0,0,1,.086-.171l1.994,1.01,3.7-2.328a.1.1,0,1,1,.1.162l-3.75,2.357A.093.093,0,0,1,1876.3,1214.989Z" transform="translate(-1865.752 -1212.44)" fill="#c7e5e5"/>
        </g>
      </g>
      <g id="Group_11065" data-name="Group 11065" transform="translate(7037.602 -23184.59)">
        <path id="Path_18872" data-name="Path 18872" d="M1588.387,1115.853l-.023,0-.379-.046a.191.191,0,0,1,.046-.38l.379.046a.191.191,0,0,1-.023.381Zm-.583-.875a.192.192,0,0,1-.077-.367l.522-.227a.191.191,0,1,1,.153.351l-.521.227A.192.192,0,0,1,1587.8,1114.978Zm-.526-.742a.191.191,0,0,1-.152-.307l.21-.274a.191.191,0,1,1,.3.232l-.21.274A.19.19,0,0,1,1587.279,1114.236Z" transform="translate(-1587.088 -1113.579)" fill="#fff"/>
      </g>
    </g>
  </g>
</svg>
