<svg xmlns="http://www.w3.org/2000/svg" xmlns:xlink="http://www.w3.org/1999/xlink" viewBox="0 0 255.24 212.58"><defs><style>.cls-1{fill:#3e1f11;}.cls-2{fill:#28b5cb;}.cls-3{fill:#0b707f;}.cls-4{fill:url(#linear-gradient);}</style><linearGradient id="linear-gradient" x1="2.44" y1="114.04" x2="252.8" y2="114.04" gradientUnits="userSpaceOnUse"><stop offset="0" stop-color="#b8874c"/><stop offset="0.06" stop-color="#c5995b"/><stop offset="0.16" stop-color="#d7b26f"/><stop offset="0.27" stop-color="#e3c37e"/><stop offset="0.39" stop-color="#ebce86"/><stop offset="0.52" stop-color="#edd189"/><stop offset="0.61" stop-color="#eacc83"/><stop offset="0.72" stop-color="#e2bd71"/><stop offset="0.85" stop-color="#d4a654"/><stop offset="0.99" stop-color="#c1852c"/><stop offset="1" stop-color="#c0832a"/></linearGradient></defs><g id="Layer_2" data-name="Layer 2"><g id="Layer_1-2" data-name="Layer 1"><path class="cls-1" d="M6.93,211a12.62,12.62,0,0,1-5.09-4.19A10,10,0,0,1,0,201,119.88,119.88,0,0,1,1.76,187l6.18.34Q7.36,191,6.86,195c-.33,2.68-.49,4.44-.49,5.29a5.54,5.54,0,0,0,1,3.16,6.55,6.55,0,0,0,2.77,2.28,9.25,9.25,0,0,0,4,.83,8.64,8.64,0,0,0,3.9-.83,6.32,6.32,0,0,0,2.6-2.25,5.69,5.69,0,0,0,.91-3.09V187.36h6.56v13.76a10.34,10.34,0,0,1-1.69,5.75,11.83,11.83,0,0,1-4.8,4.17,16.09,16.09,0,0,1-7.23,1.54A17.17,17.17,0,0,1,6.93,211Zm4.44-41.49h6v6.37h-6Z"/><path class="cls-1" d="M129.38,176.31a65.75,65.75,0,0,0-7.2-.34,21.58,21.58,0,0,0-7.5,1.08,7.87,7.87,0,0,0-4.24,3.62,14.72,14.72,0,0,0-1.4,7,25.09,25.09,0,0,0,.84,6.77h-9.36V186.8a41.37,41.37,0,0,0-.42-4.56c-.28-2.15-.6-1.83-1-3.92l-5.73.25c.23,2.74.38,2.39.44,3.84s.1,3.23.1,5.32v6.72H90.27a4,4,0,0,1-1.44-.27,4.24,4.24,0,0,1-1.15-.62,18.73,18.73,0,0,0,.49-4.46V178.37H81.6V189.1a6.76,6.76,0,0,1-1,3.85,3.24,3.24,0,0,1-2.86,1.5H75.47V178.37H68.9v16.08H55.38V176.17a49.13,49.13,0,0,0-5.34-.86,51.8,51.8,0,0,0-6-.37A15.64,15.64,0,0,0,37.76,176a7.37,7.37,0,0,0-3.68,4.1,23.6,23.6,0,0,0-1.3,8.87q0,11.46,10.15,11.47h5.68a13.14,13.14,0,0,1-.41,3.77,3.19,3.19,0,0,1-1.3,1.86,4.71,4.71,0,0,1-2.45.54,65.55,65.55,0,0,1-7.94-.88v5.93a61.72,61.72,0,0,0,8.53.93q9.1,0,10.19-12.15H80a6.93,6.93,0,0,0,4.9-1.82,8.61,8.61,0,0,0,2.43,1.28,9,9,0,0,0,3.11.54h41.51V176.61ZM48.81,194.45H44.74c-2.15,0-3.59-.57-4.31-1.69a7.66,7.66,0,0,1-1.08-4.19,13.19,13.19,0,0,1,.69-4.88A3.94,3.94,0,0,1,42,181.48a8.06,8.06,0,0,1,3.28-.56,28,28,0,0,1,3.58.24Zm76.55,0h-8.72c-.29-.92-.52-1.76-.69-2.53a15.28,15.28,0,0,1-.24-3,14.55,14.55,0,0,1,.51-4.46,3.37,3.37,0,0,1,1.82-2.06,10,10,0,0,1,3.94-.59c.82,0,2,0,3.38.15Z"/><path class="cls-1" d="M118,165.81v6.37h6v-6.37Z"/><path class="cls-1" d="M234.27,166.12v28.33h-8.73a2.53,2.53,0,0,1-1.57-.57,3.22,3.22,0,0,1-1.08-1.54v-4.17a21.46,21.46,0,0,0-.95-7,7.49,7.49,0,0,0-3.68-4.17,16.59,16.59,0,0,0-7.76-1.47,31,31,0,0,0-5.79.49,16.45,16.45,0,0,0-3.92,1.13,44.82,44.82,0,0,0-1.22,5.34,30,30,0,0,0,.14,12h-15V175.92H178.2v18.53H163.54V175.92H157v18.53H144.87V166.12H138.3v34.31h84.59v-2.11a3.42,3.42,0,0,0,1.08,1.52,2.5,2.5,0,0,0,1.57.59h15.29V166.12Zm-17.94,28.33H206.08c-.16-.72-.31-1.66-.46-2.82a26.6,26.6,0,0,1-.22-3.41,36.44,36.44,0,0,1,.68-6.47,18.25,18.25,0,0,1,3.73-.39q3.83,0,5.17,1.62t1.35,5.05Z"/><path class="cls-1" d="M157.17,165.81v6.37h6v-6.37Z"/><path class="cls-1" d="M183,166.05v6.13h6.06v-6.13Zm-8.94,0v6.13h6.06v-6.13Z"/><path class="cls-1" d="M248.67,166.12h6.57v34.31h-6.57Z"/><path class="cls-2" d="M126.05,13.19c-4,.06-6.29-3-6.46-6.56A6.31,6.31,0,0,1,126.13,0a7.07,7.07,0,0,1,6.53,6.69A6.23,6.23,0,0,1,126.05,13.19Z"/><path class="cls-3" d="M91.81,59.3c-8.06.13-12.58-6-12.93-13.12A12.61,12.61,0,0,1,92,32.93c6.9.21,13,6.67,13.06,13.37A12.45,12.45,0,0,1,91.81,59.3Z"/><path class="cls-2" d="M160.41,59.3c8.05.13,12.58-6,12.93-13.12a12.62,12.62,0,0,0-13.08-13.25c-6.9.21-13,6.67-13.06,13.37A12.45,12.45,0,0,0,160.41,59.3Z"/><path class="cls-3" d="M126.2,111.32l-2.06-1.48c-3.25-2.31-8.71-6.07-11.19-7a144.39,144.39,0,0,0-22.76-7.16C88.08,87.45,84.07,80.29,76.91,75c-11.22-8.33-24.13-10.14-37.65-9.42l-3.62.22c22.84-11.69,55.19-6.88,74.69,20,11.4-25.67,3.92-60.63-13.89-79.11a29.05,29.05,0,0,1,6.13,3.07c1.68,1.24,3.33,2.51,4.89,3.89a57.11,57.11,0,0,1,8,8.74,94.21,94.21,0,0,1,5.2,7.89A90.48,90.48,0,0,1,125,38.56a80.85,80.85,0,0,0-7.37,35.73,89.65,89.65,0,0,0,3.52,22.31c1.1,3.92,2.23,7.77,3.68,11.52C125.29,109.19,125.73,110.26,126.2,111.32Z"/><path class="cls-2" d="M216.45,66.23,212.84,66c-1.75-.09-3.48-.14-5.2-.14a74.51,74.51,0,0,0-7.65.37l-1.87.22A48.5,48.5,0,0,0,177,74.13c-.62.41-1.24.85-1.85,1.3C168,80.74,164,87.9,161.9,96.1a134.26,134.26,0,0,0-25.35,8,29.88,29.88,0,0,0-7.12,5.09c-.53.48-1,.92-1.39,1.3-.76-1.7-1.44-3.45-2.07-5.22-1.06-3-2-6.08-2.83-9.19a88.44,88.44,0,0,1-3.44-21.81,78,78,0,0,1,6.44-33.18,87.26,87.26,0,0,1,5.31-10.35c1.62-2.7,3.32-5.36,5.2-7.89a57,57,0,0,1,8-8.73c1.56-1.38,3.21-2.66,4.89-3.9a29.05,29.05,0,0,1,6.13-3.07c-17.81,18.49-25.29,53.45-13.89,79.11a67,67,0,0,1,6.47-7.67c1.36-1.39,2.77-2.7,4.21-3.93.48-.41,1-.81,1.46-1.2,1-.78,2-1.53,3-2.24a59.34,59.34,0,0,1,34.24-10.94A55.78,55.78,0,0,1,216.45,66.23Z"/><path class="cls-4" d="M252.8,101.46c-8.11,1-16.23,2.07-24.36,3a297.08,297.08,0,0,0-61.52,13.63c-1,.33-1.95.66-2.92,1-.38.14-.77.27-1.15.42-.64.22-1.28.46-1.92.7a236.28,236.28,0,0,0-22.49,9.61c-.62.29-1.23.6-1.84.9l-2.81,1.43c-.89.45-1.78.93-2.68,1.41l-1.73.92a5.67,5.67,0,0,1-4.73-.15c-1.44-.79-2.87-1.55-4.31-2.29-2.11-1.09-4.22-2.15-6.35-3.16a223,223,0,0,0-22.75-9.41l-1.16-.41c-24.2-8.4-49.4-12.88-75.11-15.33a57.33,57.33,0,0,1-12.53-2.29c6.27-1.2,12.55-2.39,18.82-3.62,21.38-4.2,43.41-6.65,65.06-3,1.3.22,2.59.47,3.87.74A144.39,144.39,0,0,1,113,102.8c2.48,1,7.94,4.73,11.19,7l2.06,1.48.55.41s.49-.51,1.29-1.27c.39-.38.86-.82,1.39-1.3a29.88,29.88,0,0,1,7.12-5.09,134.26,134.26,0,0,1,25.35-8q1.11-.24,2.22-.45,3.3-.65,6.62-1.11a160.85,160.85,0,0,1,48.42.95C230.4,97.31,241.58,99.49,252.8,101.46Z"/></g></g></svg>