<svg width="20" height="20" viewBox="0 0 20 20" fill="none" xmlns="http://www.w3.org/2000/svg">
<path d="M11.5625 4.375V0.836563C11.5988 0.863995 11.6331 0.894077 11.665 0.926562L15.0638 4.60844C15.0852 4.6337 15.1054 4.66009 15.1241 4.6875H11.875C11.7921 4.68742 11.7127 4.65447 11.6541 4.59588C11.5955 4.53729 11.5626 4.45785 11.5625 4.375ZM4.6875 18.125C4.27325 18.1245 3.87611 17.9597 3.58319 17.6668C3.29028 17.3739 3.1255 16.9767 3.125 16.5625V2.5H2.8125C2.56394 2.50025 2.32562 2.5991 2.14986 2.77486C1.9741 2.95062 1.87525 3.18894 1.875 3.4375V18.4375C1.87525 18.6861 1.9741 18.9244 2.14986 19.1001C2.32562 19.2759 2.56394 19.3748 2.8125 19.375H12.5C12.7486 19.3748 12.9869 19.2759 13.1626 19.1001C13.3384 18.9244 13.4373 18.6861 13.4375 18.4375V18.125H4.6875ZM15.3125 15.9012V16.5625C15.3123 16.8111 15.2134 17.0494 15.0376 17.2251C14.8619 17.4009 14.6236 17.4998 14.375 17.5H4.6875C4.43894 17.4998 4.20062 17.4009 4.02486 17.2251C3.8491 17.0494 3.75025 16.8111 3.75 16.5625V1.5625C3.75025 1.31394 3.8491 1.07562 4.02486 0.899862C4.20062 0.7241 4.43894 0.625248 4.6875 0.625H10.9375V2.5H7.1875C6.93894 2.50025 6.70062 2.5991 6.52486 2.77486C6.3491 2.95062 6.25025 3.18894 6.25 3.4375V3.75C6.25025 3.99856 6.3491 4.23688 6.52486 4.41264C6.70062 4.5884 6.93894 4.68725 7.1875 4.6875H10.995C11.0592 4.86978 11.1783 5.02773 11.3358 5.13963C11.4934 5.25154 11.6817 5.31193 11.875 5.3125H15.3125V7.86188C14.9023 7.80101 14.4852 7.8029 14.0756 7.8675C13.3704 7.98558 12.7096 8.29029 12.1619 8.75H7.8125C7.72962 8.75 7.65013 8.78292 7.59153 8.84153C7.53292 8.90013 7.5 8.97962 7.5 9.0625C7.5 9.14538 7.53292 9.22487 7.59153 9.28347C7.65013 9.34208 7.72962 9.375 7.8125 9.375H11.5547C11.1379 9.89938 10.8592 10.5198 10.7441 11.1797C10.74 11.2031 10.7388 11.2266 10.735 11.25H7.8125C7.72962 11.25 7.65013 11.2829 7.59153 11.3415C7.53292 11.4001 7.5 11.4796 7.5 11.5625C7.5 11.6454 7.53292 11.7249 7.59153 11.7835C7.65013 11.8421 7.72962 11.875 7.8125 11.875H10.6853C10.6852 12.5279 10.8428 13.1711 11.1447 13.75H7.8125C7.72962 13.75 7.65013 13.7829 7.59153 13.8415C7.53292 13.9001 7.5 13.9796 7.5 14.0625C7.5 14.1454 7.53292 14.2249 7.59153 14.2835C7.65013 14.3421 7.72962 14.375 7.8125 14.375H11.0219L10.9575 14.5512C10.8738 14.7804 10.859 15.0291 10.915 15.2665C10.971 15.504 11.0953 15.7198 11.2726 15.8874C11.4499 16.055 11.6724 16.1671 11.9126 16.2097C12.1528 16.2523 12.4003 16.2236 12.6244 16.1272L13.5031 15.7509C14.0872 15.9368 14.7058 15.9882 15.3125 15.9012ZM7.5 6.5625C7.5 6.64538 7.53292 6.72487 7.59153 6.78347C7.65013 6.84208 7.72962 6.875 7.8125 6.875H13.75C13.8329 6.875 13.9124 6.84208 13.971 6.78347C14.0296 6.72487 14.0625 6.64538 14.0625 6.5625C14.0625 6.47962 14.0296 6.40013 13.971 6.34153C13.9124 6.28292 13.8329 6.25 13.75 6.25H7.8125C7.72962 6.25 7.65013 6.28292 7.59153 6.34153C7.53292 6.40013 7.5 6.47962 7.5 6.5625ZM6.875 13.75C6.87484 13.5843 6.80893 13.4254 6.69176 13.3082C6.57459 13.1911 6.41571 13.1252 6.25 13.125H5.625C5.45929 13.1252 5.30042 13.1911 5.18324 13.3082C5.06607 13.4254 5.00017 13.5843 5 13.75V14.375C5.00017 14.5407 5.06607 14.6996 5.18324 14.8168C5.30042 14.9339 5.45929 14.9998 5.625 15H6.25C6.41571 14.9998 6.57459 14.9339 6.69176 14.8168C6.80893 14.6996 6.87484 14.5407 6.875 14.375V13.75ZM6.875 11.25C6.87484 11.0843 6.80893 10.9254 6.69176 10.8082C6.57459 10.6911 6.41571 10.6252 6.25 10.625H5.625C5.45929 10.6252 5.30042 10.6911 5.18324 10.8082C5.06607 10.9254 5.00017 11.0843 5 11.25V11.875C5.00017 12.0407 5.06607 12.1996 5.18324 12.3168C5.30042 12.4339 5.45929 12.4998 5.625 12.5H6.25C6.41571 12.4998 6.57459 12.4339 6.69176 12.3168C6.80893 12.1996 6.87484 12.0407 6.875 11.875V11.25ZM6.875 8.75C6.87484 8.58429 6.80893 8.42542 6.69176 8.30824C6.57459 8.19107 6.41571 8.12517 6.25 8.125H5.625C5.45929 8.12517 5.30042 8.19107 5.18324 8.30824C5.06607 8.42542 5.00017 8.58429 5 8.75V9.375C5.00017 9.54071 5.06607 9.69958 5.18324 9.81676C5.30042 9.93393 5.45929 9.99984 5.625 10H6.25C6.41571 9.99984 6.57459 9.93393 6.69176 9.81676C6.80893 9.69958 6.87484 9.54071 6.875 9.375V8.75ZM6.875 6.25C6.87484 6.08429 6.80893 5.92542 6.69176 5.80824C6.57459 5.69107 6.41571 5.62517 6.25 5.625H5.625C5.45929 5.62517 5.30042 5.69107 5.18324 5.80824C5.06607 5.92542 5.00017 6.08429 5 6.25V6.875C5.00017 7.04071 5.06607 7.19958 5.18324 7.31676C5.30042 7.43393 5.45929 7.49983 5.625 7.5H6.25C6.41571 7.49983 6.57459 7.43393 6.69176 7.31676C6.80893 7.19958 6.87484 7.04071 6.875 6.875V6.25ZM18.1525 12.4291C18.0709 12.9381 17.8759 13.4222 17.5819 13.8457C17.288 14.2691 16.9026 14.6211 16.4543 14.8756C16.006 15.1301 15.5062 15.2806 14.9919 15.3159C14.4777 15.3512 13.962 15.2705 13.4831 15.0797L12.3784 15.5528C12.2664 15.6008 12.1428 15.6149 12.0228 15.5935C11.9028 15.5721 11.7917 15.5161 11.7032 15.4324C11.6146 15.3487 11.5524 15.2409 11.5243 15.1224C11.4962 15.0038 11.5034 14.8796 11.545 14.765L11.8966 13.7984C11.5841 13.3326 11.3903 12.7975 11.3319 12.2396C11.2735 11.6818 11.3524 11.1181 11.5616 10.5977C11.7708 10.0773 12.1041 9.61586 12.5324 9.25366C12.9606 8.89145 13.471 8.63941 14.0189 8.51947C14.5668 8.39953 15.1357 8.41534 15.6762 8.5655C16.2166 8.71567 16.7121 8.99565 17.1196 9.38107C17.5271 9.76649 17.8343 10.2457 18.0143 10.7769C18.1943 11.3081 18.2418 11.8753 18.1525 12.4291ZM14.7438 12.9453C14.6352 12.9483 14.5321 12.9935 14.4564 13.0713C14.3807 13.1491 14.3383 13.2534 14.3383 13.362C14.3383 13.4706 14.3807 13.5749 14.4564 13.6527C14.5321 13.7306 14.6352 13.7758 14.7438 13.7787C14.8523 13.7758 14.9554 13.7306 15.0311 13.6527C15.1068 13.5749 15.1492 13.4706 15.1492 13.362C15.1492 13.2534 15.1068 13.1491 15.0311 13.0713C14.9554 12.9935 14.8523 12.9483 14.7438 12.9453ZM15.8234 10.2256C15.3722 9.57219 13.8572 9.625 13.7478 10.5153C13.7483 10.5717 13.7643 10.6268 13.794 10.6747C13.8238 10.7226 13.8661 10.7614 13.9164 10.7868C13.9667 10.8122 14.0231 10.8233 14.0792 10.8189C14.1354 10.8144 14.1893 10.7946 14.235 10.7616C14.3716 10.555 14.4916 10.3859 14.7975 10.4069C15.135 10.3862 15.4069 10.6481 15.2363 10.9725C15.1447 11.1525 14.9456 11.2584 14.8031 11.3866C14.6447 11.5178 14.5309 11.6951 14.4776 11.8938C14.4243 12.0926 14.4341 12.303 14.5056 12.4959C14.5782 12.5449 14.6637 12.5713 14.7513 12.5718C14.8389 12.5723 14.9247 12.5469 14.9978 12.4987C15.1291 12.3072 15.0019 12.0753 15.1497 11.89C15.2838 11.69 15.5588 11.5525 15.7178 11.3272C15.8541 11.1808 15.9384 10.9935 15.9575 10.7943C15.9766 10.5952 15.9295 10.3953 15.8234 10.2256Z" fill="#828E9F"/>
</svg>
