<svg xmlns="http://www.w3.org/2000/svg" width="148.771" height="147.391" viewBox="0 0 148.771 147.391">
  <g id="المسابقات" transform="translate(-610.965 -725.828)">
    <g id="Group_11412" data-name="Group 11412" transform="matrix(0.946, 0.326, -0.326, 0.946, 649.113, 727.229)">
      <path id="Path_11768" data-name="Path 11768" d="M115.083,35.428C110.744,9.266,80.266-4.5,54.287,1.324,25.476,7.784,11.135,36.34,8.774,41.265.56,58.4-6.487,89.565,10,105.2c18.325,17.371,52.2,2.738,68.628-8.537C82.935,93.7,120.365,67.286,115.083,35.428Z" transform="translate(0 0)" fill="none" stroke="#e7d8bb" stroke-width="2"/>
      <path id="Path_11521" data-name="Path 11521" d="M104.55,32.185C100.609,8.418,72.92-4.09,49.319,1.2,23.144,7.072,10.116,33.014,7.971,37.489.509,53.055-5.893,81.368,9.086,95.568c16.648,15.781,47.425,2.487,62.347-7.755C75.345,85.127,109.349,61.128,104.55,32.185Z" transform="translate(4.059 7.763)" fill="#e6decf"/>
      <circle id="Ellipse_1191" data-name="Ellipse 1191" cx="2.997" cy="2.997" r="2.997" transform="translate(9.159 27.741)" fill="#ffbb10"/>
      <circle id="Ellipse_1192" data-name="Ellipse 1192" cx="2.997" cy="2.997" r="2.997" transform="translate(25.813 106.875)" fill="#ffbb10"/>
      <circle id="Ellipse_1193" data-name="Ellipse 1193" cx="2.011" cy="2.011" r="2.011" transform="translate(80.595 19.035) rotate(-22.5)" fill="#ffbb10"/>
    </g>
    <g id="Group_11413" data-name="Group 11413" transform="translate(34 465.052)">
      <path id="Path_19021" data-name="Path 19021" d="M883.07,1214.557l-63.641-13.415c-2.6-.549-3.317-2.043-1.592-3.337l11.033-8.275c1.725-1.294,5.236-1.9,7.84-1.349l63.641,13.415c2.6.549,3.317,2.043,1.592,3.337l-11.033,8.275C889.185,1214.5,885.675,1215.106,883.07,1214.557Z" transform="translate(-212.554 -845.424)" fill="#e4e6f2"/>
      <path id="Path_19022" data-name="Path 19022" d="M1005.344,760.878l-8.078-1.667a1.866,1.866,0,0,0-.394-.133l-52.546-10.842a2.221,2.221,0,0,0-1.877.52l-1.944,1.381,1.039,1.478L939.5,789.259a1.845,1.845,0,0,0,1.469,1.96l52.1,11.97.157-.111,8.315,1.91s1.644-1.162,2.13-1.5a2.374,2.374,0,0,0,1.032-1.8l2.109-38.849A1.846,1.846,0,0,0,1005.344,760.878Z" transform="translate(-325.411 -440.594)" fill="#415864"/>
      <path id="Path_19023" data-name="Path 19023" d="M979.2,779.309l-8.078-1.667a1.866,1.866,0,0,0-.394-.133l-52.546-10.842a2.353,2.353,0,0,0-2.717,2.173l-2.109,38.849a1.846,1.846,0,0,0,1.469,1.96l8.078,1.667a1.873,1.873,0,0,0,.394.133l52.547,10.842a2.353,2.353,0,0,0,2.717-2.173l2.109-38.849A1.846,1.846,0,0,0,979.2,779.309Z" transform="translate(-301.349 -457.559)" fill="#fff"/>
      <path id="Path_19024" data-name="Path 19024" d="M1158.544,951.136a2.922,2.922,0,0,1,2.247,1.969l2.759,7.7a3.043,3.043,0,0,0,1.738,1.829l7.147,2.727c1.98.757,2.6,3.555,1.051,4.738l-5.6,4.272a2.389,2.389,0,0,0-.858,2.144l.713,7.948a2.179,2.179,0,0,1-2.456,2.536,2.643,2.643,0,0,1-1.269-.587l-6.218-5.059a2.67,2.67,0,0,0-1.271-.579,2.154,2.154,0,0,0-1,.075l-6.71,2.183a2.169,2.169,0,0,1-1,.08,3.041,3.041,0,0,1-2.346-3.606l1.754-7.4a3.025,3.025,0,0,0-.544-2.457l-4.857-6.594c-1.348-1.828-.371-4.269,1.651-4.136l7.3.489a2.042,2.042,0,0,0,1.934-1.016l3.707-6.26A2.03,2.03,0,0,1,1158.544,951.136Z" transform="translate(-511.087 -627.381)" fill="#e4e6f2"/>
      <path id="Path_19025" data-name="Path 19025" d="M1001.751,777.381l-8.063-1.664a1.875,1.875,0,0,0-.408-.136L940.733,764.74a2.353,2.353,0,0,0-2.717,2.173l-.189,3.487,65.109,13.851.284-4.91A1.845,1.845,0,0,0,1001.751,777.381Z" transform="translate(-323.874 -455.785)" fill="#4f5e66"/>
      <path id="Path_19026" data-name="Path 19026" d="M1107.152,826.39a1.363,1.363,0,0,0,1.013,1.446,1.023,1.023,0,0,0,1.258-.935,1.363,1.363,0,0,0-1.013-1.446A1.023,1.023,0,0,0,1107.152,826.39Z" transform="translate(-479.734 -511.688)" fill="#fff"/>
      <path id="Path_19027" data-name="Path 19027" d="M1053.92,814.426a1.362,1.362,0,0,0,1.013,1.446,1.023,1.023,0,0,0,1.258-.935,1.363,1.363,0,0,0-1.013-1.446A1.023,1.023,0,0,0,1053.92,814.426Z" transform="translate(-430.733 -500.674)" fill="#fff"/>
      <ellipse id="Ellipse_1216" data-name="Ellipse 1216" cx="1.106" cy="1.25" rx="1.106" ry="1.25" transform="matrix(0.873, -0.487, 0.487, 0.873, 618.516, 312.502)" fill="#fff"/>
      <path id="Path_19028" data-name="Path 19028" d="M1453.754,1337.863v-7.546l-11.4-2.515,1.593,7.965Z" transform="translate(-788.3 -974.135)" fill="#e4e6f2"/>
      <path id="Path_19029" data-name="Path 19029" d="M1341.208,1515.1l8.881-.9a9.83,9.83,0,0,0,4.777-1.82l9.015-6.533a1.711,1.711,0,0,0-.664-3.063l-12.989-2.638Z" transform="translate(-695.195 -1132.785)" fill="#898ec7" opacity="0.3" style="mix-blend-mode: multiply;isolation: isolate"/>
      <path id="Path_19030" data-name="Path 19030" d="M1341.208,1395.347l.219-15.712,12.333-9.582-.192,14.509Z" transform="translate(-695.195 -1013.027)" fill="#4f5e66"/>
      <path id="Path_19031" data-name="Path 19031" d="M1025.251,1414.528l-27.516-6.57.227,15.512,27.071,6.77Z" transform="translate(-379.02 -1047.922)" fill="#4f5e66"/>
      <path id="Path_19032" data-name="Path 19032" d="M1010.161,1291.143l-12.426,9.284,27.522,6.569,12.352-9.6Z" transform="translate(-379.02 -940.391)" fill="#4f5e66"/>
      <path id="Path_19033" data-name="Path 19033" d="M1104.242,1388.35l19.057,4.346,11.043-8.454" transform="translate(-477.062 -1026.09)" fill="none" stroke="#fff" stroke-linecap="round" stroke-linejoin="round" stroke-width="4"/>
      <line id="Line_57" data-name="Line 57" y2="13.89" transform="translate(646.236 366.605)" fill="rgba(0,0,0,0)" stroke="#fff" stroke-linecap="round" stroke-linejoin="round" stroke-width="4"/>
      <path id="Path_19034" data-name="Path 19034" d="M1099.856,1346.953c-5.66,4.022-6.541,3.477-14.715-1.721-2.724-1.732-5.988.187-8.175.21-2.914.03-4.338-1.1-4.107-2.321.4-2.133,6.775-3,14.23-1.946S1101.625,1345.7,1099.856,1346.953Z" transform="translate(-448.151 -986.031)" fill="#606d74"/>
      <g id="Group_11410" data-name="Group 11410" transform="translate(621.251 325.018)">
        <path id="Path_19035" data-name="Path 19035" d="M1057.845,1065.912c-.032.01-.064.017-.1.025s-.095.025-.143.034l-.063.01c-.062.009-.124.017-.187.021l-.038,0a2.179,2.179,0,0,1-.249,0l-7.3-.489-.082,0q-.08,0-.158,0h-.019l-.04,0c-.038,0-.076,0-.113.008s-.052.009-.079.013l-.061.01-.04.006c-.035.007-.068.018-.1.027s-.066.016-.1.026l-.024.006c-.062.02-.122.043-.18.069h0l-3.073,1.352a2.01,2.01,0,0,1,.206-.076c.032-.01.065-.017.1-.026s.094-.024.142-.033l.061-.01c.063-.01.126-.017.191-.021l.041,0a2.33,2.33,0,0,1,.259,0l7.3.489.08,0c.05,0,.1,0,.149,0h.02l.039,0c.035,0,.07,0,.1-.008s.055-.009.082-.013l.063-.01.037-.006c.036-.007.07-.019.105-.028s.066-.016.1-.026l.022-.006q.1-.031.19-.072l3.073-1.352A2.063,2.063,0,0,1,1057.845,1065.912Z" transform="translate(-1044.418 -1057.705)" fill="#db9833"/>
        <path id="Path_19036" data-name="Path 19036" d="M1351.931,1220.594l-.713-7.948a2.875,2.875,0,0,1-.01-.311c0-.01,0-.019,0-.028a2.764,2.764,0,0,1,.023-.281c0-.01,0-.02,0-.029a2.577,2.577,0,0,1,.055-.276l0-.018a2.478,2.478,0,0,1,.09-.274l0-.007a2.315,2.315,0,0,1,.115-.243l.016-.03a2.192,2.192,0,0,1,.136-.21c.018-.024.037-.047.055-.071.032-.04.065-.079.1-.116a2.047,2.047,0,0,1,.265-.248l5.6-4.272-3.073,1.352-5.6,4.272a2.023,2.023,0,0,0-.265.248c-.01.011-.022.019-.032.03-.024.027-.045.058-.068.087s-.038.046-.055.071-.016.019-.023.03q-.054.078-.1.161l-.01.02-.016.03c-.017.032-.035.064-.051.1s-.043.093-.062.141l0,.005,0,.007c-.016.041-.032.082-.046.124s-.028.089-.041.134c0,.005,0,.011,0,.016l0,.018c-.009.033-.017.066-.024.1s-.018.089-.025.134c0,.014,0,.028-.006.042l0,.029c0,.021-.006.042-.009.063q-.008.068-.012.138c0,.026,0,.054,0,.08,0,.009,0,.019,0,.028s0,.022,0,.033q0,.073,0,.147c0,.043,0,.087.009.131l.713,7.948a2.965,2.965,0,0,1,.008.413s0,.008,0,.012a2.618,2.618,0,0,1-.047.377l0,.016a2.426,2.426,0,0,1-.1.339l-.01.026a2.275,2.275,0,0,1-.139.3l-.008.015a2.147,2.147,0,0,1-.163.243c-.017.022-.034.044-.051.066s-.063.067-.095.1a2.074,2.074,0,0,1-.225.206c-.031.024-.061.049-.092.071a2.049,2.049,0,0,1-.347.2h0l3.073-1.352a2.051,2.051,0,0,0,.347-.2c.032-.022.062-.047.093-.071a2.056,2.056,0,0,0,.225-.206c.017-.018.038-.031.055-.05s.026-.034.04-.051.034-.043.051-.065.039-.047.057-.073c.035-.051.069-.1.1-.158l.006-.012.008-.016c.021-.037.041-.075.06-.114s.041-.09.06-.136c.007-.017.012-.034.019-.051l.01-.026c.007-.019.015-.038.021-.057q.021-.064.039-.129t.032-.129c0-.008,0-.016,0-.023l0-.016c.006-.031.012-.061.017-.092s.013-.088.018-.133.009-.091.011-.138c0,0,0-.009,0-.013s0-.008,0-.012c0-.039,0-.078,0-.118s0-.1,0-.154S1351.935,1220.641,1351.931,1220.594Z" transform="translate(-1322.319 -1187.243)" fill="#db9833"/>
        <path id="Path_19037" data-name="Path 19037" d="M1046.983,984.366a2.922,2.922,0,0,1,2.248,1.969l2.759,7.7a3.042,3.042,0,0,0,1.738,1.829l7.147,2.727c1.98.758,2.6,3.556,1.051,4.738l-5.6,4.272a2.389,2.389,0,0,0-.858,2.144l.713,7.948a2.179,2.179,0,0,1-2.456,2.536,2.644,2.644,0,0,1-1.269-.587l-6.218-5.058a2.671,2.671,0,0,0-1.271-.579,2.155,2.155,0,0,0-1,.076l-6.71,2.183a2.17,2.17,0,0,1-1,.08,3.041,3.041,0,0,1-2.346-3.606l1.754-7.4a3.025,3.025,0,0,0-.544-2.457l-4.857-6.594c-1.348-1.828-.371-4.269,1.651-4.136l7.3.489a2.043,2.043,0,0,0,1.934-1.016l3.707-6.26A2.03,2.03,0,0,1,1046.983,984.366Z" transform="translate(-1029.644 -982.988)" fill="#f7c750"/>
        <path id="Path_19038" data-name="Path 19038" d="M1252.962,984.322q0-.08-.011-.159v-.021c-.005-.05-.011-.1-.019-.15s-.021-.122-.034-.183l0-.008c0-.008,0-.015-.006-.023-.014-.063-.03-.126-.048-.188-.009-.03-.021-.059-.03-.088s-.023-.07-.036-.105-.016-.052-.026-.077-.02-.037-.028-.056a3.208,3.208,0,0,0-.238-.474l0-.006a3.119,3.119,0,0,0-.328-.427c-.015-.016-.025-.036-.039-.051s-.045-.043-.067-.065l-.068-.066c-.019-.018-.036-.037-.056-.055q-.078-.07-.161-.134l-.026-.019-.029-.021c-.031-.023-.063-.046-.1-.068s-.09-.058-.136-.086l-.058-.032-.029-.016-.053-.029q-.066-.034-.134-.065c-.045-.02-.091-.04-.138-.058l-.016-.006-7.147-2.727a2.627,2.627,0,0,1-.286-.128l-.005,0a2.763,2.763,0,0,1-.265-.158l-.013-.01c-.074-.051-.145-.106-.215-.163l-.045-.037c-.072-.062-.142-.129-.209-.2l-.011-.011,0,0a3.177,3.177,0,0,1-.353-.455c-.008-.013-.017-.024-.025-.037a3.215,3.215,0,0,1-.253-.5c-.017-.041-.036-.08-.051-.122l-2.759-7.7q-.017-.047-.035-.093c-.011-.028-.027-.05-.039-.076a3.21,3.21,0,0,0-.207-.411c-.023-.038-.044-.077-.068-.114a3.078,3.078,0,0,0-.32-.412c0-.005-.009-.012-.013-.017q-.091-.1-.189-.183l-.04-.033-.041-.034c-.027-.022-.053-.045-.08-.066q-.072-.055-.147-.1l-.044-.028-.03-.019-.064-.041q-.066-.039-.134-.074c-.034-.018-.068-.034-.1-.05l-.014-.007-.014-.007q-.064-.029-.13-.055t-.13-.047l-.049-.015-.024-.007-.058-.017q-.066-.018-.132-.032c-.045-.01-.09-.018-.135-.025h-.008c-.044-.007-.087-.012-.131-.016s-.1-.008-.145-.009h-.047c-.035,0-.071,0-.106,0q-.082,0-.164.012h-.009l-.024,0c-.051.006-.1.014-.152.024-.026.005-.051.014-.077.02l-.086.023c-.02.006-.041.01-.061.016a1.958,1.958,0,0,0-.183.07h0l-3.073,1.352a1.978,1.978,0,0,1,.245-.086l.086-.023a2.1,2.1,0,0,1,.23-.044l.022,0a2.212,2.212,0,0,1,.28-.014h.026a2.358,2.358,0,0,1,.3.026,2.477,2.477,0,0,1,.333.076l.025.007a2.645,2.645,0,0,1,.322.123l.014.007a2.789,2.789,0,0,1,.3.165l.029.018a2.883,2.883,0,0,1,.27.2l.041.034a2.951,2.951,0,0,1,.243.234,3.084,3.084,0,0,1,.32.412c.024.036.045.076.068.114a3.253,3.253,0,0,1,.207.412c.024.057.052.11.073.17l2.759,7.7c.01.027.02.054.03.08s.015.027.021.042a3.22,3.22,0,0,0,.253.5c.008.013.017.024.026.037a3.163,3.163,0,0,0,.353.454l0,0h0l.011.011c.058.061.119.12.182.175l.028.023.045.037c.029.024.058.049.088.072s.084.062.127.091l.013.01.006,0q.067.045.137.086c.04.024.081.046.122.068l.006,0,0,0q.064.033.128.062t.127.053l.027.011,7.148,2.727a2.814,2.814,0,0,1,.341.158l.029.016a2.869,2.869,0,0,1,.289.186l.029.021a2.906,2.906,0,0,1,.244.208l.067.065c.037.038.072.078.107.117a3.132,3.132,0,0,1,.328.427l0,.005a3.209,3.209,0,0,1,.239.474c.018.044.038.088.054.132s.025.07.036.106c.03.091.057.183.078.276l.006.022a3.1,3.1,0,0,1,.055.34l0,.013a2.971,2.971,0,0,1,.014.342c0,.007,0,.015,0,.022a2.7,2.7,0,0,1-.027.323c0,.007,0,.014,0,.02a2.524,2.524,0,0,1-.07.319l-.007.024a2.36,2.36,0,0,1-.109.292l-.012.026a2.193,2.193,0,0,1-.148.264l-.024.038a2.241,2.241,0,0,1-.471.5l3.073-1.352a2.131,2.131,0,0,0,.284-.263c.005-.006.012-.01.018-.016a2.1,2.1,0,0,0,.151-.191c.007-.009.012-.02.019-.029s.016-.025.024-.038c.021-.032.042-.063.061-.1s.051-.092.074-.139l.013-.029.012-.026c.012-.028.025-.055.037-.084q.026-.065.049-.131c.008-.025.016-.051.023-.077l.007-.024c0-.011.007-.021.01-.032.012-.043.022-.086.032-.13s.018-.088.025-.133c0-.008,0-.016,0-.025s0-.014,0-.02c0-.03.009-.059.012-.089q.008-.068.011-.138c0-.032,0-.064,0-.1,0-.007,0-.014,0-.022s0-.017,0-.026Q1252.965,984.4,1252.962,984.322Z" transform="translate(-1216.739 -967.337)" fill="#db9833"/>
      </g>
      <line id="Line_58" data-name="Line 58" x2="1.509" y2="2.012" transform="translate(628.228 327.508)" fill="none" stroke="#4f5e66" stroke-linecap="round" stroke-linejoin="round" stroke-width="4"/>
      <line id="Line_59" data-name="Line 59" x1="2.216" y2="1.19" transform="translate(650.386 333.809)" fill="none" stroke="#4f5e66" stroke-linecap="round" stroke-linejoin="round" stroke-width="4"/>
      <line id="Line_60" data-name="Line 60" x1="0.314" y2="2.327" transform="translate(641.768 321.953)" fill="none" stroke="#4f5e66" stroke-linecap="round" stroke-linejoin="round" stroke-width="4"/>
      <path id="Path_19039" data-name="Path 19039" d="M1050.837,990.818l-1.607-4.483a2.922,2.922,0,0,0-2.248-1.969,2.03,2.03,0,0,0-2.123.995l-3.707,6.26a2.043,2.043,0,0,1-1.934,1.016l-7.3-.489c-2.022-.133-3,2.308-1.651,4.136l4.857,6.594a3.08,3.08,0,0,1,.6,2.119C1043.914,1004.655,1050.487,998.492,1050.837,990.818Z" transform="translate(-408.393 -657.969)" fill="#ffd570"/>
      <path id="Path_19040" data-name="Path 19040" d="M1065.588,1478.113l-19.368-4.653v-8.646l19.368,4.653Z" transform="translate(-423.651 -1100.258)" fill="#606d74"/>
    </g>
  </g>
</svg>
