<svg xmlns="http://www.w3.org/2000/svg" width="148.771" height="147.391" viewBox="0 0 148.771 147.391">
  <g id="المتسابقون" transform="translate(-6721.71 22269.592)">
    <g id="Group_10920" data-name="Group 10920" transform="matrix(0.946, 0.326, -0.326, 0.946, 6759.858, -22268.191)">
      <path id="Path_11768" data-name="Path 11768" d="M115.083,35.428C110.744,9.266,80.266-4.5,54.287,1.324,25.476,7.784,11.135,36.34,8.774,41.265.56,58.4-6.487,89.565,10,105.2c18.325,17.371,52.2,2.738,68.628-8.537C82.935,93.7,120.365,67.286,115.083,35.428Z" transform="translate(0 0)" fill="none" stroke="#e7d8bb" stroke-width="2"/>
      <path id="Path_11521" data-name="Path 11521" d="M104.55,32.185C100.609,8.418,72.92-4.09,49.319,1.2,23.144,7.072,10.116,33.014,7.971,37.489.509,53.055-5.893,81.368,9.086,95.568c16.648,15.781,47.425,2.487,62.347-7.755C75.345,85.127,109.349,61.128,104.55,32.185Z" transform="translate(4.059 7.763)" fill="#e6decf"/>
      <circle id="Ellipse_1191" data-name="Ellipse 1191" cx="2.997" cy="2.997" r="2.997" transform="translate(9.159 27.741)" fill="#ffbb10"/>
      <circle id="Ellipse_1192" data-name="Ellipse 1192" cx="2.997" cy="2.997" r="2.997" transform="translate(25.813 106.875)" fill="#ffbb10"/>
      <circle id="Ellipse_1193" data-name="Ellipse 1193" cx="2.011" cy="2.011" r="2.011" transform="translate(80.595 19.035) rotate(-22.5)" fill="#ffbb10"/>
    </g>
    <g id="Group_10921" data-name="Group 10921" transform="translate(6746.974 -22249.139)">
      <g id="Group_10922" data-name="Group 10922" transform="matrix(0.966, 0.259, -0.259, 0.966, 57.529, 48.548)">
        <path id="Path_11525" data-name="Path 11525" d="M0,7.838A16.07,16.07,0,0,0,8.315,8.863c.21-.03.419-.064.631-.1a1.057,1.057,0,0,0,.122-.027c.458-.084.915-.192,1.372-.32.231-.065.46-.134.683-.211.042-.011.082-.026.124-.037.246-.083.49-.171.727-.267.423-.164.831-.344,1.23-.541a15.677,15.677,0,0,0,2.558-1.567A16.152,16.152,0,0,0,18.7,2.942,9.131,9.131,0,0,0,12.222.005a0,0,0,0,0-.006,0,9.112,9.112,0,0,0-1.28.064c-.02,0-.038,0-.053,0a9.244,9.244,0,0,0-1.136.22l-3.19.825a9.171,9.171,0,0,0-1.1.359c-.013.008-.031.013-.044.021a9.187,9.187,0,0,0-1.155.566h0v0A9.108,9.108,0,0,0,0,7.838Z" transform="translate(5.046 26.231)" fill="#4f5e66"/>
        <path id="Path_11526" data-name="Path 11526" d="M.065,3.153.847,6.177A2.666,2.666,0,0,0,4.211,7.795,2.667,2.667,0,0,0,6.369,4.749L5.586,1.724A2.161,2.161,0,0,0,4.653.46,2.438,2.438,0,0,0,4.315.272a2.849,2.849,0,0,0-.73-.227A3.3,3.3,0,0,0,1,.714a2.84,2.84,0,0,0-.528.551L.45,1.3a2.468,2.468,0,0,0-.182.3A2.161,2.161,0,0,0,.065,3.153Z" transform="translate(9.982 22.98)" fill="#ffc5b0"/>
        <path id="Path_11527" data-name="Path 11527" d="M.228,9.416l1.14,4.4A7.463,7.463,0,0,0,7.85,19.357l.3,1.162a7.361,7.361,0,0,0,2.579-.2l.59-.153a7.348,7.348,0,0,0,2.352-1.076l-.3-1.162a7.463,7.463,0,0,0,2.984-7.985l-1.139-4.4A7.46,7.46,0,0,0,6.163.236l-.59.153A7.394,7.394,0,0,0,1.5,3.118h0A7.437,7.437,0,0,0,.228,9.416Z" transform="translate(2.358 7.395)" fill="#fea7a0"/>
        <path id="Path_11528" data-name="Path 11528" d="M.236,9.45l1.431,5.533a7.447,7.447,0,0,0,9.061,5.336l.591-.153a7.337,7.337,0,0,0,2.351-1.076,7.463,7.463,0,0,0,2.985-7.985L15.232,5.6c-.02-.078-.041-.154-.065-.23A7.424,7.424,0,0,0,11.291.766,7.506,7.506,0,0,0,10.4.4,7.37,7.37,0,0,0,6.163.236L5.573.389A7.458,7.458,0,0,0,.236,9.45Z" transform="translate(2.058 6.233)" fill="#ffc5b0"/>
        <path id="Path_11529" data-name="Path 11529" d="M.1,3.63a2.979,2.979,0,0,0,3.63,2.138L2.233,0A2.963,2.963,0,0,0,1.165.52l0,0A2.979,2.979,0,0,0,.1,3.63Z" transform="translate(0.068 15.714)" fill="#ffb3ac"/>
        <path id="Path_11530" data-name="Path 11530" d="M.059,2.247A1.845,1.845,0,0,0,2.307,3.571L1.383,0A1.845,1.845,0,0,0,.059,2.247Z" transform="translate(1.203 16.812)" fill="#c4a467"/>
        <path id="Path_11532" data-name="Path 11532" d="M0,.1,1.492,5.863A2.979,2.979,0,0,0,.666,0C.619,0,.572,0,.524.009L.449.018A2.869,2.869,0,0,0,0,.1Z" transform="translate(17.289 11.741)" fill="#ffc5b0"/>
        <path id="Path_11533" data-name="Path 11533" d="M2.248,1.383A1.845,1.845,0,0,1,.924,3.63L0,.059A1.845,1.845,0,0,1,2.248,1.383Z" transform="translate(17.573 12.875)" fill="#ffb3ac"/>
        <path id="Path_11535" data-name="Path 11535" d="M.236,9.187,1.668,14.72a7.39,7.39,0,0,0,3.147,4.36A24.882,24.882,0,0,1,1.267,7.515c.141-2.953,4.865-2.834,8.726-3.732,2.856-.665,1.959-2.414,1.3-3.28a4.881,4.881,0,0,0-.437-.5L10.4.133,1.605,2.724A7.431,7.431,0,0,0,.236,9.187Z" transform="translate(2.057 6.496)" fill="#ffb3ac"/>
        <path id="Path_11536" data-name="Path 11536" d="M8.349,3.652C12.725,3.078,10.008,0,10.008,0c2.305.628,5.79,3.49,5.086,6.512,1.725.819,2.512,3.877,2.512,3.877l.35,1.353a4.386,4.386,0,0,0-.667.094A8,8,0,0,0,14.433,7.8v0c-1.7,1.934-5.983,2.09-9.387,2.407-3.994.372-2.744,5.5-2.744,5.5a4.638,4.638,0,0,0-1.072.524C-2.794,7.363,3.973,4.226,8.349,3.652Z" transform="translate(0 0)" fill="#535353"/>
      </g>
      <g id="Group_10923" data-name="Group 10923" transform="matrix(-0.966, 0.259, -0.259, -0.966, 35.277, 82.6)">
        <path id="Path_11525-2" data-name="Path 11525" d="M0,1.185A16.07,16.07,0,0,1,8.315.16c.21.03.419.064.631.1A1.057,1.057,0,0,1,9.068.29c.458.084.915.192,1.372.32.231.065.46.134.683.211.042.011.082.026.124.037.246.083.49.171.727.267.423.164.831.344,1.23.541a15.677,15.677,0,0,1,2.558,1.567A16.152,16.152,0,0,1,18.7,6.081a9.131,9.131,0,0,1-6.474,2.936,0,0,0,0,1-.006,0,9.113,9.113,0,0,1-1.28-.064c-.02,0-.038,0-.053,0a9.244,9.244,0,0,1-1.136-.22l-3.19-.825a9.171,9.171,0,0,1-1.1-.359c-.013-.008-.031-.013-.044-.021a9.187,9.187,0,0,1-1.155-.566h0v0A9.108,9.108,0,0,1,0,1.185Z" transform="translate(5.046 0)" fill="#4f5e66"/>
        <path id="Path_11526-2" data-name="Path 11526" d="M.065,4.748.847,1.724A2.666,2.666,0,0,1,4.211.106,2.667,2.667,0,0,1,6.369,3.152L5.586,6.177a2.161,2.161,0,0,1-.933,1.264,2.438,2.438,0,0,1-.338.188,2.849,2.849,0,0,1-.73.227A3.3,3.3,0,0,1,1,7.187a2.84,2.84,0,0,1-.528-.551L.45,6.6a2.468,2.468,0,0,1-.182-.3A2.161,2.161,0,0,1,.065,4.748Z" transform="translate(9.982 4.373)" fill="#ffc5b0"/>
        <path id="Path_11527-2" data-name="Path 11527" d="M.228,11.139l1.14-4.4A7.463,7.463,0,0,1,7.85,1.2L8.15.036a7.361,7.361,0,0,1,2.579.2l.59.153a7.348,7.348,0,0,1,2.352,1.076l-.3,1.162a7.463,7.463,0,0,1,2.984,7.985l-1.139,4.4a7.46,7.46,0,0,1-9.052,5.3l-.59-.153A7.394,7.394,0,0,1,1.5,17.438h0A7.437,7.437,0,0,1,.228,11.139Z" transform="translate(2.358 7.304)" fill="#fea7a0"/>
        <path id="Path_11528-2" data-name="Path 11528" d="M.236,11.105,1.668,5.572A7.446,7.446,0,0,1,10.729.236l.591.153A7.337,7.337,0,0,1,13.67,1.465,7.463,7.463,0,0,1,16.656,9.45l-1.424,5.5c-.02.078-.041.154-.065.23a7.424,7.424,0,0,1-3.876,4.607,7.506,7.506,0,0,1-.891.369,7.37,7.37,0,0,1-4.237.16l-.591-.153A7.458,7.458,0,0,1,.236,11.105Z" transform="translate(2.058 8.466)" fill="#ffc5b0"/>
        <path id="Path_11529-2" data-name="Path 11529" d="M.1,2.233A2.979,2.979,0,0,1,3.725.1L2.233,5.863a2.963,2.963,0,0,1-1.068-.52l0,0A2.979,2.979,0,0,1,.1,2.233Z" transform="translate(0.068 13.677)" fill="#ffc5b0"/>
        <path id="Path_11530-2" data-name="Path 11530" d="M.059,1.383A1.845,1.845,0,0,1,2.307.059L1.383,3.63A1.845,1.845,0,0,1,.059,1.383Z" transform="translate(1.203 14.812)" fill="#ffb3ac"/>
        <path id="Path_11532-2" data-name="Path 11532" d="M0,5.767,1.492,0A2.979,2.979,0,0,1,.666,5.862c-.047,0-.095,0-.142-.008L.449,5.845A2.869,2.869,0,0,1,0,5.767Z" transform="translate(17.289 17.65)" fill="#ffc5b0"/>
        <path id="Path_11533-2" data-name="Path 11533" d="M2.248,2.247A1.845,1.845,0,0,0,.924,0L0,3.571A1.845,1.845,0,0,0,2.248,2.247Z" transform="translate(17.573 18.748)" fill="#ffb3ac"/>
        <path id="Path_11535-2" data-name="Path 11535" d="M.236,9.893,1.668,4.36A7.39,7.39,0,0,1,4.815,0,24.882,24.882,0,0,0,1.267,11.565C1.408,14.518,6.131,14.4,9.993,15.3c2.856.665,1.959,2.414,1.3,3.28a4.881,4.881,0,0,1-.437.5l-.454-.133-8.795-2.59A7.431,7.431,0,0,1,.236,9.893Z" transform="translate(2.057 9.678)" fill="#ffb3ac"/>
        <path id="Path_11536-2" data-name="Path 11536" d="M8.349,12.585c4.376.574,1.658,3.652,1.658,3.652,2.305-.628,5.79-3.49,5.086-6.512,1.725-.819,2.512-3.877,2.512-3.877l.35-1.353a4.385,4.385,0,0,1-.667-.094,8,8,0,0,1-2.855,4.033v0c-1.7-1.934-5.983-2.09-9.387-2.407C1.051,5.656,2.3.524,2.3.524A4.638,4.638,0,0,1,1.23,0C-2.794,8.874,3.973,12.011,8.349,12.585Z" transform="translate(0 19.017)" fill="#535353"/>
      </g>
      <g id="Group_10277" data-name="Group 10277" transform="matrix(-0.966, 0.259, -0.259, -0.966, 80.462, 85.471)">
        <path id="Path_11525-3" data-name="Path 11525" d="M0,2.974A40.335,40.335,0,0,1,20.869.4c.527.074,1.051.16,1.584.261a2.652,2.652,0,0,1,.305.067c1.15.211,2.3.482,3.443.8.579.162,1.155.336,1.713.53.1.027.206.066.311.093.617.209,1.23.43,1.826.671,1.061.411,2.086.862,3.088,1.358a39.347,39.347,0,0,1,6.421,3.933,40.54,40.54,0,0,1,7.365,7.146,22.919,22.919,0,0,1-16.249,7.37.012.012,0,0,1-.015.009,22.871,22.871,0,0,1-3.212-.16c-.05,0-.1-.012-.134-.01a23.2,23.2,0,0,1-2.85-.551l-8.007-2.071a23.019,23.019,0,0,1-2.76-.9c-.032-.021-.078-.033-.11-.053a23.059,23.059,0,0,1-2.9-1.421l-.012,0,0-.012A22.861,22.861,0,0,1,0,2.974Z" transform="translate(12.664 0)" fill="#4f5e66"/>
        <path id="Path_11526-3" data-name="Path 11526" d="M.163,11.918,2.127,4.327C2.959,1.11,6.759-.719,10.57.267S16.817,4.7,15.985,7.912L14.021,15.5a5.424,5.424,0,0,1-2.343,3.173,6.12,6.12,0,0,1-.847.472A7.149,7.149,0,0,1,9,19.718,8.284,8.284,0,0,1,2.512,18.04a7.127,7.127,0,0,1-1.325-1.384c-.019-.023-.04-.052-.058-.078a6.193,6.193,0,0,1-.457-.749A5.424,5.424,0,0,1,.163,11.918Z" transform="translate(25.055 10.975)" fill="#ffc5b0"/>
        <path id="Path_11527-3" data-name="Path 11527" d="M.571,27.958,3.432,16.9A18.731,18.731,0,0,1,19.7,3.007L20.456.091a18.476,18.476,0,0,1,6.473.5L28.41.976a18.443,18.443,0,0,1,5.9,2.7L33.56,6.592a18.733,18.733,0,0,1,7.49,20.043L38.19,37.69A18.725,18.725,0,0,1,15.469,51l-1.482-.383A18.557,18.557,0,0,1,3.774,43.768h0A18.667,18.667,0,0,1,.571,27.958Z" transform="translate(5.918 18.332)" fill="#fea7a0"/>
        <path id="Path_11528-3" data-name="Path 11528" d="M.593,27.874,4.186,13.986A18.69,18.69,0,0,1,26.928.592l1.483.384a18.414,18.414,0,0,1,5.9,2.7A18.732,18.732,0,0,1,41.8,23.718L38.231,37.531c-.05.2-.1.387-.163.577a18.634,18.634,0,0,1-9.729,11.564A18.839,18.839,0,0,1,26.1,50.6a18.5,18.5,0,0,1-10.634.4l-1.482-.384A18.72,18.72,0,0,1,.593,27.874Z" transform="translate(5.164 21.248)" fill="#ffc5b0"/>
        <path id="Path_11529-3" data-name="Path 11529" d="M.24,5.605A7.477,7.477,0,0,1,9.35.24L5.605,14.716a7.437,7.437,0,0,1-2.68-1.306.033.033,0,0,1-.01-.009A7.476,7.476,0,0,1,.24,5.605Z" transform="translate(0.171 34.33)" fill="#ffc5b0"/>
        <path id="Path_11530-3" data-name="Path 11530" d="M.149,3.471A4.63,4.63,0,0,1,5.79.149L3.471,9.112A4.63,4.63,0,0,1,.149,3.471Z" transform="translate(3.019 37.177)" fill="#ffb3ac"/>
        <path id="Path_11532-3" data-name="Path 11532" d="M0,14.476,3.745,0A7.477,7.477,0,0,1,1.672,14.712c-.118,0-.237-.008-.356-.02-.061-.006-.124-.014-.188-.022A7.2,7.2,0,0,1,0,14.476Z" transform="translate(43.395 44.302)" fill="#ffc5b0"/>
        <path id="Path_11533-3" data-name="Path 11533" d="M5.641,5.641A4.63,4.63,0,0,0,2.319,0L0,8.964A4.63,4.63,0,0,0,5.641,5.641Z" transform="translate(44.106 47.058)" fill="#ffb3ac"/>
        <path id="Path_11535-3" data-name="Path 11535" d="M.593,24.832,4.186,10.943A18.549,18.549,0,0,1,12.086,0C6.647,7.676,2.9,23.082,3.179,29.028c.354,7.412,12.21,7.113,21.9,9.368,7.167,1.669,4.918,6.058,3.258,8.233a12.25,12.25,0,0,1-1.1,1.261L26.1,47.556l-22.074-6.5A18.652,18.652,0,0,1,.593,24.832Z" transform="translate(5.164 24.291)" fill="#ffb3ac"/>
        <path id="Path_11536-3" data-name="Path 11536" d="M20.956,31.588c10.983,1.441,4.162,9.166,4.162,9.166,5.786-1.577,14.534-8.761,12.765-16.345,4.33-2.055,6.305-9.731,6.305-9.731l.879-3.4a11.007,11.007,0,0,1-1.674-.237c-1.608,6.217-7.167,10.123-7.167,10.123l0,.005c-4.268-4.853-15.018-5.246-23.56-6.042C2.639,14.2,5.777,1.314,5.777,1.314A11.641,11.641,0,0,1,3.087,0C-7.012,22.274,9.973,30.147,20.956,31.588Z" transform="translate(0 47.731)" fill="#535353"/>
      </g>
    </g>
  </g>
</svg>
