<svg width="20" height="20" viewBox="0 0 20 20" fill="none" xmlns="http://www.w3.org/2000/svg">
<path d="M15.4688 18.0381L14.0063 17.6631L13.3563 19.0194C13.125 19.4944 12.45 19.4944 12.225 19.0131L10.9125 16.2006C12.3912 16.0412 13.8014 15.4935 15 14.6131L16.1875 17.1631C16.4125 17.6444 15.9812 18.1631 15.4688 18.0381ZM9.0875 16.2006L7.775 19.0131C7.55 19.4944 6.875 19.4944 6.64375 19.0194L5.99375 17.6631L4.53125 18.0381C4.01875 18.1631 3.5875 17.6444 3.8125 17.1631L5 14.6131C6.19864 15.4935 7.60883 16.0412 9.0875 16.2006ZM10 0.625C6.03063 0.625 2.8125 3.84313 2.8125 7.8125C2.8125 11.7819 6.03063 15 10 15C13.9694 15 17.1875 11.7819 17.1875 7.8125C17.1875 3.84313 13.9694 0.625 10 0.625ZM13.2431 7.64437L12.0875 8.77063L12.36 10.3612C12.3804 10.4794 12.3673 10.6009 12.3221 10.7119C12.277 10.823 12.2017 10.9192 12.1047 10.9897C12.0077 11.0601 11.8929 11.102 11.7733 11.1106C11.6538 11.1191 11.5342 11.094 11.4281 11.0381L10 10.2875L8.57188 11.0381C8.46581 11.0938 8.34629 11.1187 8.22682 11.11C8.10736 11.1013 7.99269 11.0594 7.89578 10.989C7.79887 10.9186 7.72356 10.8225 7.67836 10.7116C7.63317 10.6007 7.61988 10.4793 7.64 10.3612L7.9125 8.77063L6.75688 7.64437C6.67111 7.56067 6.61046 7.45465 6.58178 7.33828C6.55311 7.22192 6.55755 7.09985 6.59461 6.98588C6.63167 6.87191 6.69987 6.77058 6.79149 6.69333C6.88312 6.61608 6.99453 6.566 7.11312 6.54875L8.71 6.31688L9.42438 4.87C9.47731 4.76241 9.55932 4.67181 9.66111 4.60844C9.7629 4.54508 9.88041 4.5115 10.0003 4.5115C10.1202 4.5115 10.2377 4.54508 10.3395 4.60844C10.4413 4.67181 10.5233 4.76241 10.5763 4.87L11.2906 6.31688L12.8875 6.54875C13.0061 6.566 13.1175 6.61608 13.2091 6.69333C13.3008 6.77058 13.369 6.87191 13.406 6.98588C13.4431 7.09985 13.4475 7.22192 13.4188 7.33828C13.3902 7.45465 13.3295 7.56067 13.2438 7.64437H13.2431Z" fill="#828E9F"/>
</svg>
