<svg width="20" height="20" viewBox="0 0 20 20" fill="none" xmlns="http://www.w3.org/2000/svg">
<path d="M17.1875 3.1001H14.1062C13.8509 3.47729 12.2219 5.9001 11.9281 6.3376C11.7693 6.56502 11.558 6.7508 11.3121 6.87918C11.0662 7.00756 10.793 7.07477 10.5156 7.0751H1.25V15.3376C1.25017 15.7519 1.41484 16.1493 1.70783 16.4423C2.00082 16.7353 2.39815 16.8999 2.8125 16.9001H17.1875C17.6019 16.8999 17.9992 16.7353 18.2922 16.4423C18.5852 16.1493 18.7498 15.7519 18.75 15.3376V4.6626C18.7498 4.24825 18.5852 3.85092 18.2922 3.55793C17.9992 3.26494 17.6019 3.10026 17.1875 3.1001ZM11.7688 8.3126H16.9219C17.0048 8.3126 17.0842 8.34552 17.1428 8.40413C17.2015 8.46273 17.2344 8.54222 17.2344 8.6251C17.2344 8.70798 17.2015 8.78746 17.1428 8.84607C17.0842 8.90467 17.0048 8.9376 16.9219 8.9376H11.7688C11.6859 8.9376 11.6064 8.90467 11.5478 8.84607C11.4892 8.78746 11.4563 8.70798 11.4563 8.6251C11.4563 8.54222 11.4892 8.46273 11.5478 8.40413C11.6064 8.34552 11.6859 8.3126 11.7688 8.3126ZM11.7688 10.347H16.9219C17.0048 10.347 17.0842 10.3799 17.1428 10.4385C17.2015 10.4971 17.2344 10.5766 17.2344 10.6595C17.2344 10.7424 17.2015 10.8218 17.1428 10.8804C17.0842 10.939 17.0048 10.972 16.9219 10.972H11.7688C11.6859 10.972 11.6064 10.939 11.5478 10.8804C11.4892 10.8218 11.4563 10.7424 11.4563 10.6595C11.4563 10.5766 11.4892 10.4971 11.5478 10.4385C11.6064 10.3799 11.6859 10.347 11.7688 10.347ZM11.7688 12.3782H16.9219C17.0048 12.3782 17.0842 12.4111 17.1428 12.4698C17.2015 12.5284 17.2344 12.6078 17.2344 12.6907C17.2344 12.7736 17.2015 12.8531 17.1428 12.9117C17.0842 12.9703 17.0048 13.0032 16.9219 13.0032H11.7688C11.6859 13.0032 11.6064 12.9703 11.5478 12.9117C11.4892 12.8531 11.4563 12.7736 11.4563 12.6907C11.4563 12.6078 11.4892 12.5284 11.5478 12.4698C11.6064 12.4111 11.6859 12.3782 11.7688 12.3782ZM11.7688 14.4126H16.9219C17.0048 14.4126 17.0842 14.4455 17.1428 14.5041C17.2015 14.5627 17.2344 14.6422 17.2344 14.7251C17.2344 14.808 17.2015 14.8875 17.1428 14.9461C17.0842 15.0047 17.0048 15.0376 16.9219 15.0376H11.7688C11.6859 15.0376 11.6064 15.0047 11.5478 14.9461C11.4892 14.8875 11.4563 14.808 11.4563 14.7251C11.4563 14.6422 11.4892 14.5627 11.5478 14.5041C11.6064 14.4455 11.6859 14.4126 11.7688 14.4126ZM6.75937 7.78447C10.2181 7.77604 11.9453 12.0245 9.5125 14.4251C7.11125 16.8563 2.86125 15.1335 2.86875 11.6751C2.86991 10.6436 3.28018 9.65467 4.00957 8.92529C4.73895 8.19591 5.72787 7.78563 6.75937 7.78447Z" fill="#828E9F"/>
<path d="M10.5156 6.4501C10.6915 6.45 10.8647 6.40765 11.0208 6.32662C11.1769 6.24559 11.3112 6.12825 11.4125 5.98447C11.7125 5.53635 13.0769 3.51041 13.35 3.1001H2.8125C2.39815 3.10026 2.00082 3.26494 1.70783 3.55793C1.41484 3.85092 1.25017 4.24825 1.25 4.6626V6.4501H10.5156ZM8.99688 5.0876H3.56562C3.48274 5.0876 3.40326 5.05467 3.34465 4.99607C3.28605 4.93746 3.25312 4.85798 3.25312 4.7751C3.25312 4.69222 3.28605 4.61273 3.34465 4.55413C3.40326 4.49552 3.48274 4.4626 3.56562 4.4626H8.99688C9.07976 4.4626 9.15924 4.49552 9.21785 4.55413C9.27645 4.61273 9.30938 4.69222 9.30938 4.7751C9.30938 4.85798 9.27645 4.93746 9.21785 4.99607C9.15924 5.05467 9.07976 5.0876 8.99688 5.0876ZM10.0281 11.6751C10.0263 10.8629 9.72278 10.0803 9.17653 9.47918C8.63028 8.87807 7.88022 8.5013 7.07187 8.42197V11.547L9.27812 13.7501C9.76326 13.1675 10.0287 12.4332 10.0281 11.6751ZM6.75937 14.9407C7.51793 14.9414 8.25293 14.6773 8.8375 14.1938L6.63125 11.9876H3.50625C3.58624 12.7954 3.9633 13.5448 4.56435 14.0904C5.1654 14.636 5.94761 14.939 6.75937 14.9407ZM6.44687 8.42197C5.69257 8.49724 4.98756 8.83124 4.45154 9.36726C3.91552 9.90328 3.58152 10.6083 3.50625 11.3626H6.44687V8.42197Z" fill="#828E9F"/>
</svg>
