<svg xmlns="http://www.w3.org/2000/svg" width="58" height="58.166" viewBox="0 0 58 58.166">
  <g id="Group_11134" data-name="Group 11134" transform="translate(-7568.667 22867.452)">
    <circle id="Ellipse_1210" data-name="Ellipse 1210" cx="29" cy="29" r="29" transform="translate(7568.667 -22867.451)" fill="#ccb3be"/>
    <g id="Group_11133" data-name="Group 11133" transform="translate(7576.351 -22861.24)">
      <g id="Group_11067" data-name="Group 11067" transform="translate(1.145 35.035)">
        <path id="Path_18873" data-name="Path 18873" d="M413.484,1375.694l-3.02,2.186c.471,3.368,3.066,11.23,17.1,13.133a36.758,36.758,0,0,0,4.568.333,19.4,19.4,0,0,0,4.5-.618c6.87-1.524,8.631-3.379,8.5-4.525s-19.292-11.777-19.292-11.777Z" transform="translate(-410.464 -1374.426)" fill="#4c466a" fill-rule="evenodd"/>
      </g>
      <g id="Group_11070" data-name="Group 11070" transform="translate(0.274 22.815)">
        <path id="Path_18876" data-name="Path 18876" d="M384.506,1027.275s4.016-12.561,5.012-14.508,4.381-2.488,5.66-2.4.25,5.742-.441,7.15S386.715,1027.863,384.506,1027.275Z" transform="translate(-384.506 -1010.358)" fill="#fff" fill-rule="evenodd"/>
      </g>
      <g id="Group_11071" data-name="Group 11071" transform="translate(0 6.119)">
        <path id="Path_18877" data-name="Path 18877" d="M389.419,512.918c-.66,5.83-3.723,10.477-4.71,15.483a10,10,0,0,0-3.309,2.218c-.86,1.177-2.472,8.8-5.007,12.873a.826.826,0,0,0,.486,1.069,19.834,19.834,0,0,1,2.9,1.984l.77,1.267c14.454-16.972,24.25-.754,24.858-1.811,2.083-3.622.906-14.489.136-16.209a1.078,1.078,0,0,0-.419-.419,5.971,5.971,0,0,0-2.207-2.705C401.426,525.807,389.419,512.918,389.419,512.918Z" transform="translate(-376.338 -512.918)" fill="#675d82" fill-rule="evenodd"/>
      </g>
      <g id="Group_11072" data-name="Group 11072" transform="translate(28.445 22.815)">
        <path id="Path_18878" data-name="Path 18878" d="M1235.194,1027.274s-4.1-12.56-5.094-14.507-4.381-2.488-5.66-2.4-.25,5.742.441,7.15S1232.985,1027.862,1235.194,1027.274Z" transform="translate(-1223.831 -1010.358)" fill="#fff" fill-rule="evenodd"/>
      </g>
      <g id="Group_11073" data-name="Group 11073" transform="translate(5.446 6.119)">
        <path id="Path_18879" data-name="Path 18879" d="M560.074,512.918c.66,5.83,3.723,10.477,4.71,15.483a10,10,0,0,1,3.309,2.218c.86,1.177,2.472,8.8,5.007,12.873a.826.826,0,0,1-.486,1.069,19.849,19.849,0,0,0-2.9,1.984l-.77,1.267s.453,4.664.407,5.343-4.89,3.35-10.776,2.445a22.339,22.339,0,0,1-9.437-4.335h0c-9.6.93-10.533-6.336-10.533-6.336l4.4-3.476a43.086,43.086,0,0,1,.165-7.448,18.727,18.727,0,0,1,.775-4.213,1.078,1.078,0,0,1,.419-.419,5.972,5.972,0,0,1,2.207-2.705C548.067,525.807,560.074,512.918,560.074,512.918Z" transform="translate(-538.602 -512.918)" fill="#675d82" fill-rule="evenodd"/>
      </g>
      <g id="Group_11074" data-name="Group 11074" transform="translate(14.264 13.868)">
        <path id="Path_18880" data-name="Path 18880" d="M801.314,749.094c1.167-1.058,3.208-3.127,5.314-5.311h8.405a.363.363,0,0,1,.362.362v10.164h0v0a4.616,4.616,0,0,0,.692,2.287c.692,1.038,6.985,9.154,6.985,9.154l-7.747-4.777a.363.363,0,0,1-.293.149H801.676a.363.363,0,0,1-.362-.362Z" transform="translate(-801.314 -743.783)" fill="#4c466a" fill-rule="evenodd"/>
      </g>
      <g id="Group_11075" data-name="Group 11075" transform="translate(8.127 26.911)">
        <path id="Path_18881" data-name="Path 18881" d="M647.141,1145.056l-.247.18-.406.668-2.281,2.964s-9.571-8.838-12.527-11.422-7.009,1.7-7.009,1.7l-3.33,3.409-2.876-1.049,1.724-1.361c-.018-.233-.034-.469-.046-.708l5.423-6.688,9.493-.347Z" transform="translate(-618.466 -1132.402)" fill="#4c466a" fill-rule="evenodd"/>
      </g>
      <g id="Group_11076" data-name="Group 11076" transform="translate(13.029 0)">
        <path id="Path_18882" data-name="Path 18882" d="M771.51,330.6h0a6.99,6.99,0,0,1,6.97,6.97v6.618a6.99,6.99,0,0,1-6.97,6.97h0a6.99,6.99,0,0,1-6.97-6.97V337.57A6.99,6.99,0,0,1,771.51,330.6Z" transform="translate(-764.54 -330.6)" fill="#675d82" fill-rule="evenodd"/>
      </g>
      <g id="Group_11077" data-name="Group 11077" transform="translate(14.897 4.483)">
        <path id="Path_18883" data-name="Path 18883" d="M820.168,469.137a5.5,5.5,0,0,1,1.206-2.672,25.817,25.817,0,0,1,2.541-2.006,3.189,3.189,0,0,1,2.712,0,25.825,25.825,0,0,1,2.541,2.006,5.5,5.5,0,0,1,1.205,2.668v2.174a6.691,6.691,0,0,1-1.095,3.7,25.263,25.263,0,0,1-3.048,3.218,6.008,6.008,0,0,1-1.846.069,25.8,25.8,0,0,1-3.122-3.287,6.688,6.688,0,0,1-1.1-3.7Z" transform="translate(-820.168 -464.156)" fill="#fcd1c8" fill-rule="evenodd"/>
      </g>
      <g id="Group_11081" data-name="Group 11081" transform="translate(14.897 4.679)">
        <path id="Path_18886" data-name="Path 18886" d="M821.214,472.31h.16a25.825,25.825,0,0,1,2.541-2.006,3.189,3.189,0,0,1,2.712,0,25.833,25.833,0,0,1,2.541,2.006l.144-.022a5.7,5.7,0,0,1,1.061,2.494v.163a.123.123,0,0,0,0,.032,5.651,5.651,0,0,0-.437-.937,4.4,4.4,0,0,0-.58-.8,26.952,26.952,0,0,0-2.664-2.006,3.491,3.491,0,0,0-2.843,0,26.957,26.957,0,0,0-2.664,2.006,4.408,4.408,0,0,0-.58.8,5.693,5.693,0,0,0-.438.941.1.1,0,0,0,0-.028v-.168A5.719,5.719,0,0,1,821.214,472.31Z" transform="translate(-820.168 -470.002)" fill="#f8a8a0" fill-rule="evenodd"/>
      </g>
      <g id="Group_11083" data-name="Group 11083" transform="translate(19.493 15.026)">
        <path id="Path_18888" data-name="Path 18888" d="M957.216,778.525a.114.114,0,0,1,.04-.225,2.813,2.813,0,0,0,.751,0,.114.114,0,0,1,.029.227A3.091,3.091,0,0,1,957.216,778.525Z" transform="translate(-957.122 -778.298)" fill="#ee8b83" fill-rule="evenodd"/>
      </g>
      <g id="Group_11084" data-name="Group 11084" transform="translate(18.806 14.417)">
        <path id="Path_18889" data-name="Path 18889" d="M936.722,760.363a.114.114,0,1,1,.074-.216,3.747,3.747,0,0,0,2.091,0,.114.114,0,0,1,.062.22A3.987,3.987,0,0,1,936.722,760.363Z" transform="translate(-936.644 -760.141)" fill="#ee8b83" fill-rule="evenodd"/>
      </g>
      <g id="Group_11089" data-name="Group 11089" transform="translate(26.766 29.062)">
        <path id="Path_18893" data-name="Path 18893" d="M1175.471,1196.612a.475.475,0,0,1,.331-.144c.173.008.351.258.351.3a42.854,42.854,0,0,1-.422,4.536,9.545,9.545,0,0,1-1.913-.328c-.04-.113.122-.645.093-.679a4.625,4.625,0,0,1,.524-.589Z" transform="translate(-1173.812 -1196.468)" fill="#4c466a" fill-rule="evenodd"/>
      </g>
      <g id="Group_11090" data-name="Group 11090" transform="translate(24.822 28.287)">
        <path id="Path_18894" data-name="Path 18894" d="M1118.853,1173.4l.045.227,1.653,1.46-.4,4.766-.634.023-3.339-3.917a1.408,1.408,0,0,1-.272-1.257C1116.057,1173.84,1118.853,1173.4,1118.853,1173.4Z" transform="translate(-1115.879 -1173.398)" fill="#fcd1c8" fill-rule="evenodd"/>
      </g>
      <g id="Group_11091" data-name="Group 11091" transform="translate(26.802 29.466)">
        <path id="Path_18895" data-name="Path 18895" d="M1177.006,1208.516l.575.508-.355,4.27c-.272.113-.555.22-.845.319l-1.492-1.75A6.636,6.636,0,0,0,1177.006,1208.516Z" transform="translate(-1174.89 -1208.516)" fill="#f8a8a0" fill-rule="evenodd"/>
      </g>
      <g id="Group_11092" data-name="Group 11092" transform="translate(24.822 29.463)">
        <path id="Path_18896" data-name="Path 18896" d="M1117.426,1211.277l-1.245-1.46a1.408,1.408,0,0,1-.272-1.257.458.458,0,0,1,.042-.126,17.529,17.529,0,0,1,1.828.189c.2.114,1.086.579,1.086.579S1117.838,1210.642,1117.426,1211.277Z" transform="translate(-1115.879 -1208.434)" fill="#f8a8a0" fill-rule="evenodd"/>
      </g>
      <g id="Group_11096" data-name="Group 11096" transform="translate(12.959 12.936)">
        <g id="Group_11093" data-name="Group 11093" transform="translate(0 0)">
          <path id="Path_18897" data-name="Path 18897" d="M762.792,716.012h13.357a.363.363,0,0,1,.362.362v16.617a.363.363,0,0,1-.362.362H762.792a.363.363,0,0,1-.362-.362V716.374A.363.363,0,0,1,762.792,716.012Z" transform="translate(-762.43 -716.012)" fill="#83d0cd" fill-rule="evenodd"/>
        </g>
        <g id="Group_11094" data-name="Group 11094" transform="translate(0.77 0.77)">
          <path id="Path_18898" data-name="Path 18898" d="M786.6,738.953h10.1a1.225,1.225,0,0,0,1.221,1.222v13.358a1.225,1.225,0,0,0-1.221,1.222H786.6a1.225,1.225,0,0,0-1.222-1.222V740.175A1.225,1.225,0,0,0,786.6,738.953Z" transform="translate(-785.374 -738.953)" fill="#c8e5e1" fill-rule="evenodd"/>
        </g>
        <g id="Group_11095" data-name="Group 11095" transform="translate(3.188 2.226)">
          <path id="Path_18899" data-name="Path 18899" d="M858.2,785.968a.554.554,0,0,1-.142-.09h0a.451.451,0,0,1-.162-.34h0a.452.452,0,0,1,.162-.34h0a.6.6,0,0,1,.39-.141h.226c-.322-1.821,2.468-2.692,2.564-2.722h.086c.055.017,2.889.888,2.565,2.722h.226a.594.594,0,0,1,.39.141h0a.453.453,0,0,1,.162.34h0a.449.449,0,0,1-.155.333l-.007.007a.56.56,0,0,1-.143.09l.018.016a1.764,1.764,0,0,1,.6.742,2.073,2.073,0,0,1,.154.813v2.469a2.071,2.071,0,0,1-.154.813,1.766,1.766,0,0,1-.6.742l-.018.016a.568.568,0,0,1,.143.09l.007.007a.448.448,0,0,1,.155.333h0a.452.452,0,0,1-.162.34h0a.593.593,0,0,1-.39.141h-.226c.325,1.835-2.509,2.705-2.565,2.722h-.086c-.1-.029-2.886-.9-2.564-2.722h-.226a.594.594,0,0,1-.39-.141h0a.451.451,0,0,1-.162-.34h0a.451.451,0,0,1,.162-.34h0a.563.563,0,0,1,.142-.09l-.018-.016a1.765,1.765,0,0,1-.6-.742,2.074,2.074,0,0,1-.154-.813v-2.469a2.076,2.076,0,0,1,.154-.813,1.763,1.763,0,0,1,.6-.742Z" transform="translate(-857.427 -782.328)" fill="#83d0cd" fill-rule="evenodd"/>
        </g>
      </g>
      <g id="Group_11097" data-name="Group 11097" transform="translate(26.82 21.009)">
        <path id="Path_18900" data-name="Path 18900" d="M1175.427,960.878a7.19,7.19,0,0,1,.083-1.177,9.97,9.97,0,0,1,.019-1.33v-1.236c0-.309.338-.513.536-.586s.243.2.243.611.089,1.364.1,1.76.115.94.14,1.46.153,2.134.153,2.134Z" transform="translate(-1175.427 -956.537)" fill="#fcd1c8" fill-rule="evenodd"/>
      </g>
      <g id="Group_11098" data-name="Group 11098" transform="translate(26.82 24.302)">
        <path id="Path_18901" data-name="Path 18901" d="M1175.427,1055.7a9.834,9.834,0,0,1,.055-1.049l1.094.987c.046.68.127,1.7.127,1.7Z" transform="translate(-1175.427 -1054.648)" fill="#f8a8a0" fill-rule="evenodd"/>
      </g>
      <g id="Group_11099" data-name="Group 11099" transform="translate(24.315 25.689)">
        <path id="Path_18902" data-name="Path 18902" d="M1100.773,1097.466a1.318,1.318,0,0,0,.311.271,6.785,6.785,0,0,0,1.644-.356c.309-.158.909-.255.6-.617s-.43-.679-.854-.685-.753-.26-1.115.079A3.382,3.382,0,0,0,1100.773,1097.466Z" transform="translate(-1100.773 -1095.983)" fill="#f8a8a0" fill-rule="evenodd"/>
      </g>
      <g id="Group_11100" data-name="Group 11100" transform="translate(10.848 29.077)">
        <path id="Path_18903" data-name="Path 18903" d="M700.295,1197.131s-.185-.238-.381-.21-.331.569-.36.812a21.183,21.183,0,0,0,1.353,3.39.838.838,0,0,0,.922.384c.142-.107.17-.43.091-.73a2.366,2.366,0,0,0-.209-.538C701.688,1200.2,700.295,1197.131,700.295,1197.131Z" transform="translate(-699.554 -1196.919)" fill="#4c466a" fill-rule="evenodd"/>
      </g>
      <g id="Group_11101" data-name="Group 11101" transform="translate(23.774 24.366)">
        <path id="Path_18904" data-name="Path 18904" d="M1086.414,1056.753l-.267.162h0c-.52.333-1.112.793-1.112.793a1.181,1.181,0,0,0-.356.917c.028.589.073,1.121.073,1.121s.062.17.266.079a1.033,1.033,0,0,0,.549-.736l.651-.611s.628.09.894.17a.158.158,0,0,1,.091.226,7.6,7.6,0,0,1-1.528.589.492.492,0,0,0-.277.311c-.079.243-.085,1.03-.153,1.782a.39.39,0,0,0,.068.283,2.539,2.539,0,0,0,.614.226.771.771,0,0,0,.2.492,1.388,1.388,0,0,0,.583.311c.193.063.526-.226.6-.388h1.093a.864.864,0,0,0,.911-.75,4.083,4.083,0,0,0-.034-.585h0c-.157-.794.1-1.26-.018-1.651s-.5-.5-.526-.77a1.257,1.257,0,0,0-.255-.8c-.221-.249-.826-.86-1.177-1.177a.6.6,0,0,0-.7-.118Z" transform="translate(-1084.674 -1056.574)" fill="#fcd1c8" fill-rule="evenodd"/>
      </g>
      <g id="Group_11102" data-name="Group 11102" transform="translate(27.9 30.658)">
        <path id="Path_18905" data-name="Path 18905" d="M1213.565,1256.745a97.549,97.549,0,0,1-5.969-7.863,7.033,7.033,0,0,0,2.823-4.857c2.025,1.925,5.052,5.018,8.444,8.175C1221.695,1254.837,1216.688,1260.153,1213.565,1256.745Z" transform="translate(-1207.597 -1244.025)" fill="#fff" fill-rule="evenodd"/>
      </g>
      <g id="Group_11103" data-name="Group 11103" transform="translate(10.505 28.287)">
        <path id="Path_18906" data-name="Path 18906" d="M691.031,1173.4l-.045.227-1.652,1.46.4,4.766.634.023,3.339-3.917a1.409,1.409,0,0,0,.272-1.257C693.827,1173.84,691.031,1173.4,691.031,1173.4Z" transform="translate(-689.333 -1173.398)" fill="#fcd1c8" fill-rule="evenodd"/>
      </g>
      <g id="Group_11104" data-name="Group 11104" transform="translate(10.505 29.324)">
        <path id="Path_18907" data-name="Path 18907" d="M690.069,1204.275l-.736.65.282,3.4c.216.137.445.275.679.409a4.569,4.569,0,0,0,.643.31l1.094-1.283A5.481,5.481,0,0,1,690.069,1204.275Z" transform="translate(-689.333 -1204.275)" fill="#f8a8a0" fill-rule="evenodd"/>
      </g>
      <g id="Group_11105" data-name="Group 11105" transform="translate(12.306 29.558)">
        <path id="Path_18908" data-name="Path 18908" d="M744.43,1213.854l1.119-1.312a1.409,1.409,0,0,0,.271-1.257.306.306,0,0,0-.007-.031l-2.328.174-.505.528Z" transform="translate(-742.98 -1211.254)" fill="#f8a8a0" fill-rule="evenodd"/>
      </g>
      <g id="Group_11106" data-name="Group 11106" transform="translate(11.904 21.009)">
        <path id="Path_18909" data-name="Path 18909" d="M732.272,960.878a7.188,7.188,0,0,0-.083-1.177,9.976,9.976,0,0,0-.019-1.33v-1.236c0-.309-.338-.513-.536-.586s-.242.2-.242.611-.089,1.364-.1,1.76-.115.94-.14,1.46-.153,2.134-.153,2.134Z" transform="translate(-730.997 -956.537)" fill="#fcd1c8" fill-rule="evenodd"/>
      </g>
      <g id="Group_11107" data-name="Group 11107" transform="translate(11.904 24.358)">
        <path id="Path_18910" data-name="Path 18910" d="M732.272,1057.329s0-.631-.048-.992l-1.086.695c-.04.646-.141,1.933-.141,1.933Z" transform="translate(-730.997 -1056.338)" fill="#f8a8a0" fill-rule="evenodd"/>
      </g>
      <g id="Group_11108" data-name="Group 11108" transform="translate(13.045 25.689)">
        <path id="Path_18911" data-name="Path 18911" d="M767.64,1097.466a1.328,1.328,0,0,1-.311.271,6.79,6.79,0,0,1-1.645-.356c-.308-.158-.908-.255-.6-.617s.43-.679.855-.685.753-.26,1.115.079A3.385,3.385,0,0,1,767.64,1097.466Z" transform="translate(-765.001 -1095.983)" fill="#f8a8a0" fill-rule="evenodd"/>
      </g>
      <g id="Group_11109" data-name="Group 11109" transform="translate(11.585 24.366)">
        <path id="Path_18912" data-name="Path 18912" d="M724.4,1056.753l.268.162h0c.521.333,1.112.793,1.112.793a1.182,1.182,0,0,1,.356.917c-.028.589-.073,1.121-.073,1.121s-.062.17-.266.079a1.033,1.033,0,0,1-.549-.736l-.651-.611s-.628.09-.894.17a.157.157,0,0,0-.09.226,7.606,7.606,0,0,0,1.528.589.493.493,0,0,1,.277.311c.079.243.085,1.03.153,1.782a.39.39,0,0,1-.068.283,2.534,2.534,0,0,1-.614.226.773.773,0,0,1-.2.492,1.387,1.387,0,0,1-.583.311c-.192.063-.526-.226-.6-.388h-1.092a.864.864,0,0,1-.911-.75,4.083,4.083,0,0,1,.034-.585h0c.157-.794-.1-1.26.018-1.651s.5-.5.526-.77a1.256,1.256,0,0,1,.254-.8c.221-.249.826-.86,1.177-1.177a.6.6,0,0,1,.7-.118Z" transform="translate(-721.499 -1056.574)" fill="#fcd1c8" fill-rule="evenodd"/>
      </g>
      <g id="Group_11110" data-name="Group 11110" transform="translate(0.089 30.601)">
        <path id="Path_18913" data-name="Path 18913" d="M385.032,1255.1a97.2,97.2,0,0,0,5.956-7.844,7.017,7.017,0,0,1-2.851-4.932,108.264,108.264,0,0,0-8.4,8.233C377.144,1253.427,381.91,1258.505,385.032,1255.1Z" transform="translate(-378.991 -1242.32)" fill="#fff" fill-rule="evenodd"/>
      </g>
      <g id="Group_11111" data-name="Group 11111" transform="translate(14.897 4.436)">
        <path id="Path_18914" data-name="Path 18914" d="M825.271,463.7a3.19,3.19,0,0,1,1.422.3,26.972,26.972,0,0,1,2.664,2.006,4.41,4.41,0,0,1,.58.8,5.635,5.635,0,0,1,.437.938,5.822,5.822,0,0,0-.293-1.09,5.117,5.117,0,0,0-.912-1.577,25.872,25.872,0,0,0-2.541-2.007,3.192,3.192,0,0,0-2.712,0,25.864,25.864,0,0,0-2.541,2.007,5.126,5.126,0,0,0-.912,1.578,5.839,5.839,0,0,0-.294,1.094,5.721,5.721,0,0,1,.438-.941,4.409,4.409,0,0,1,.58-.8A26.977,26.977,0,0,1,823.85,464,3.189,3.189,0,0,1,825.271,463.7Z" transform="translate(-820.168 -462.772)" fill="#fff" fill-rule="evenodd"/>
      </g>
      <g id="Group_11112" data-name="Group 11112" transform="translate(12.946 25.853)">
        <path id="Path_18915" data-name="Path 18915" d="M762.7,1105.362a.063.063,0,0,1-.055-.093l.159-.375a.063.063,0,0,1,.116.049l-.125.294h.5a.063.063,0,0,1,0,.126Zm1.157-4.077a.063.063,0,0,1-.124.021,2.806,2.806,0,0,1-.036-.367.063.063,0,1,1,.126,0,2.723,2.723,0,0,0,.034.347Zm-.942.414a.063.063,0,1,1-.043.118s-.712-.26-.752-.26a.063.063,0,0,1,0-.126c.061,0,.793.267.795.268Zm.952,2.212a.2.2,0,0,1-.052-.182,1.233,1.233,0,0,1,.14-.343.063.063,0,0,0-.109-.063,1.366,1.366,0,0,0-.156.387.363.363,0,0,0,0,.1,8.374,8.374,0,0,0-1.2-.374l-.243-.065a.063.063,0,0,0-.032.121l.243.065a5.333,5.333,0,0,1,1.325.446.058.058,0,0,0,.013.01.347.347,0,0,1,.035.033,2.034,2.034,0,0,1,.2.844.063.063,0,0,0,.066.059.062.062,0,0,0,.059-.066,2.11,2.11,0,0,0-.231-.922.4.4,0,0,0-.051-.047Zm.606-1.948a.063.063,0,0,1-.054-.114l.169-.08a.063.063,0,1,1,.054.113Z" transform="translate(-762.059 -1100.875)" fill="#f8a8a0" fill-rule="evenodd"/>
      </g>
      <g id="Group_11113" data-name="Group 11113" transform="translate(24.433 25.853)">
        <path id="Path_18916" data-name="Path 18916" d="M1106.332,1105.269a.062.062,0,0,1,.008.03.063.063,0,0,1-.063.063h-.591a.063.063,0,1,1,0-.126h.5l-.125-.294a.063.063,0,1,1,.115-.049l.159.375Zm-1.088-3.964a.063.063,0,0,1-.124-.021,2.741,2.741,0,0,0,.034-.347.063.063,0,1,1,.126,0,2.91,2.91,0,0,1-.036.367Zm.861.512a.063.063,0,0,1-.043-.118s.734-.268.795-.268a.063.063,0,1,1,0,.126c-.039,0-.75.26-.751.26ZM1105.2,1104a5.348,5.348,0,0,1,1.325-.446l.243-.065a.063.063,0,1,0-.032-.121l-.243.065a8.367,8.367,0,0,0-1.2.374.388.388,0,0,0,0-.1,1.363,1.363,0,0,0-.156-.387.063.063,0,0,0-.109.063,1.219,1.219,0,0,1,.14.343.2.2,0,0,1-.052.182h0a.49.49,0,0,0-.052.047,2.118,2.118,0,0,0-.231.922.063.063,0,0,0,.126.007,2.033,2.033,0,0,1,.2-.844.272.272,0,0,1,.035-.033l.013-.01Zm-.64-2.15a.063.063,0,0,1-.054.114l-.168-.08a.063.063,0,0,1,.054-.113Z" transform="translate(-1104.3 -1100.875)" fill="#f8a8a0" fill-rule="evenodd"/>
      </g>
      <g id="Group_11115" data-name="Group 11115" transform="translate(16.89 18.712)">
        <g id="Group_11114" data-name="Group 11114" transform="translate(0 0)">
          <path id="Path_18917" data-name="Path 18917" d="M879.556,891.866a.108.108,0,0,1,.215,0,.328.328,0,0,0,.045.181.174.174,0,0,0,.095.073.248.248,0,0,0,.141,0,.481.481,0,0,0,.224-.152l.09-.105c.058-.068.127-.15.221-.256a3.126,3.126,0,0,1,.511-.472.827.827,0,0,1,.447-.179h.317a.1.1,0,0,0,.065-.026.206.206,0,0,0,.059-.1.288.288,0,0,0,0-.147.321.321,0,0,0-.127-.178h0l-.6-.438-.021.012a2.219,2.219,0,0,0-.488.41c-.083.093-.156.179-.217.252l-.092.108a.694.694,0,0,1-.327.218.459.459,0,0,1-.265,0,.385.385,0,0,1-.21-.161.538.538,0,0,1-.08-.3.108.108,0,0,1,.215,0,.33.33,0,0,0,.045.182.177.177,0,0,0,.095.073.248.248,0,0,0,.141,0,.482.482,0,0,0,.224-.152l.09-.105c.058-.068.127-.15.221-.256a2.468,2.468,0,0,1,.48-.416l-.644-.468-.009-.008a.509.509,0,0,1-.148-.2.377.377,0,0,1-.023-.185.342.342,0,0,1,.077-.175.44.44,0,0,1,.184-.126c.027-.01.31-.089.673-.188.714-.2,1.646-.447,1.709-.464a.347.347,0,0,1,.086-.011.351.351,0,0,1,.2.063.386.386,0,0,1,.148.224.672.672,0,0,1,.021.174v.419a.108.108,0,0,1-.216,0v-.419a.454.454,0,0,0-.014-.118.175.175,0,0,0-.064-.1.136.136,0,0,0-.078-.024.117.117,0,0,0-.03,0c-.075.02-1.067.288-1.708.464-.354.1-.628.173-.653.182a.227.227,0,0,0-.1.063.129.129,0,0,0-.029.065.168.168,0,0,0,.011.08.293.293,0,0,0,.086.115l.72.524a1,1,0,0,1,.4-.119h.412l-.307-.615a.107.107,0,0,1,.049-.144.115.115,0,0,1,.036-.011l.1-.015a.108.108,0,0,1,.068.2l.319.64a.109.109,0,0,1,.013.052.107.107,0,0,1-.03.074h0l0,0h0l0,0h0l0,0h0a.109.109,0,0,1-.07.026h-.586a.594.594,0,0,0-.2.049l1.417,1.031V889.53a.108.108,0,0,1,.188-.072l.208.2a.108.108,0,0,1-.149.155l-.031-.03v1.235a.27.27,0,0,0,.268.268h0a.27.27,0,0,0,.268-.268v-2.759a.108.108,0,0,1,.107-.108.106.106,0,0,1,.08.036l.208.2a.108.108,0,0,1-.149.155l-.032-.03v2.506a.484.484,0,0,1-.484.484h0a.481.481,0,0,1-.268-.082v1.342a.108.108,0,0,1-.215,0v-1.511l-.681-.5a.5.5,0,0,1-.017.126.424.424,0,0,1-.125.206.309.309,0,0,1-.206.08h-.317a.631.631,0,0,0-.323.14,2.908,2.908,0,0,0-.474.439c-.083.093-.156.179-.217.252l-.075.088a.113.113,0,0,1,.005.034.953.953,0,0,0,1.906,0v-.751a.108.108,0,1,1,.215,0v.751a1.169,1.169,0,0,1-2.328.141.607.607,0,0,1-.143.063.458.458,0,0,1-.265,0,.388.388,0,0,1-.21-.161.538.538,0,0,1-.08-.3Zm6.006.6a.108.108,0,1,1-.215,0v-2.81a.108.108,0,0,1,.188-.072l.208.2a.107.107,0,1,1-.149.155l-.032-.03v2.557Zm-.731-.707v.887a.267.267,0,0,1-.074.185l0,0a.267.267,0,0,1-.189.079h0a.267.267,0,0,1-.19-.079.262.262,0,0,1-.039-.05.505.505,0,0,0,.183-.113l.007-.006a.5.5,0,0,0,.147-.35v0h0v0h0a.294.294,0,0,0-.08-.2l-.007-.007a.295.295,0,0,0-.418,0h0a.294.294,0,0,0-.087.209v.284h-.2a1.106,1.106,0,0,0-.51.185,2.218,2.218,0,0,0-.492.413c-.087.1-.15.172-.2.234l-.082.1a.435.435,0,0,1-.2.137.216.216,0,0,1-.124,0,.15.15,0,0,1-.082-.062h0a.292.292,0,0,1-.039-.16.108.108,0,0,0-.216,0,.5.5,0,0,0,.075.278h0a.363.363,0,0,0,.2.151.429.429,0,0,0,.248,0,.649.649,0,0,0,.3-.2l.085-.1c.056-.066.123-.145.2-.23a2.015,2.015,0,0,1,.444-.373.9.9,0,0,1,.4-.154h.228a.486.486,0,0,0,.454.316h0a.481.481,0,0,0,.342-.142l.006-.007a.482.482,0,0,0,.136-.335v-3.286l.031.03a.107.107,0,1,0,.149-.155l-.208-.2a.108.108,0,0,0-.188.072v2.652Zm-.359-.811a.108.108,0,0,1-.215,0v-2.426a.107.107,0,0,1,.188-.072l.208.2a.107.107,0,0,1-.149.155l-.032-.03v2.174Zm-.178,1.365a.081.081,0,0,1,.023-.057h0a.08.08,0,0,1,.113,0l0,0a.081.081,0,0,1,.02.052h0a.283.283,0,0,1-.083.2l0,.005a.3.3,0,0,1-.072.05v-.256Zm-2.429-3.392.109.059A.108.108,0,0,0,881.865,888.92Z" transform="translate(-879.556 -888.098)" fill="#fbe2c8" fill-rule="evenodd"/>
        </g>
      </g>
      <g id="Group_11116" data-name="Group 11116" transform="translate(18.2 21.155)">
        <path id="Path_18918" data-name="Path 18918" d="M921.947,961.671a.136.136,0,1,1-.136.136.136.136,0,0,1,.136-.136Zm-2.8.971a.136.136,0,1,1-.136.136.136.136,0,0,1,.136-.136Zm-.421-1.76a.136.136,0,1,1-.136.136.136.136,0,0,1,.136-.136Zm3.567.788a.136.136,0,1,1-.136.136.136.136,0,0,1,.136-.136Zm-3.216-.788a.136.136,0,1,1-.136.136A.136.136,0,0,1,919.082,960.883Z" transform="translate(-918.595 -960.883)" fill="#fff" fill-rule="evenodd"/>
      </g>
      <g id="Group_11123" data-name="Group 11123" transform="translate(9.038 29.035)">
        <path id="Path_18923" data-name="Path 18923" d="M648.448,1202.473c.828-1.176,1.4-2.016,1.468-2.1.215-.283-.1-.968-.1-.968l-.153.179s.224.607-.093.63-1.54-2.139-1.778-3.022-.125-1.375-.029-1.41a.411.411,0,0,1,.236.022l.05-.044a.4.4,0,0,0-.46-.012c-.454.354-1.137.928-1.964,1.657A5.685,5.685,0,0,0,648.448,1202.473Z" transform="translate(-645.61 -1195.676)" fill="#9e6d82" fill-rule="evenodd"/>
      </g>
      <g id="Group_11124" data-name="Group 11124" transform="translate(26.58 29.035)">
        <path id="Path_18924" data-name="Path 18924" d="M1169.7,1202.31c-.766-1.09-1.292-1.857-1.354-1.938-.215-.283.1-.968.1-.968l.153.179s-.224.607.093.63,1.54-2.139,1.778-3.022.125-1.375.028-1.41a.411.411,0,0,0-.236.022l-.05-.044a.4.4,0,0,1,.46-.012c.479.374,1.143.981,1.953,1.757C1172.635,1197.508,1172.476,1201.335,1169.7,1202.31Z" transform="translate(-1168.277 -1195.676)" fill="#9e6d82" fill-rule="evenodd"/>
      </g>
      <g id="Group_11125" data-name="Group 11125" transform="translate(0.72 38.178)">
        <path id="Path_18925" data-name="Path 18925" d="M436.357,1468.911a.062.062,0,0,1-.043-.017l-.711-.67a.063.063,0,0,1,.086-.091l.71.67a.063.063,0,0,1-.043.109Zm-38.5-.057a.063.063,0,0,1-.047-.105l.589-.648a.063.063,0,0,1,.093.085l-.589.648A.063.063,0,0,1,397.859,1468.854Z" transform="translate(-397.796 -1468.08)" fill="#e4dae2"/>
      </g>
      <g id="Group_11126" data-name="Group 11126" transform="translate(0.799 37.935)">
        <path id="Path_18926" data-name="Path 18926" d="M400.207,1460.846l-.054.167a.7.7,0,0,1,.033.731l.313-.345.227-.247C400.574,1461.057,400.4,1460.957,400.207,1460.846Z" transform="translate(-400.153 -1460.846)" fill="#e4dae2" fill-rule="evenodd"/>
      </g>
      <g id="Group_11127" data-name="Group 11127" transform="translate(38.571 37.901)">
        <path id="Path_18927" data-name="Path 18927" d="M1526.159,1460.8a.725.725,0,0,1,.072-.77l-.063-.19c-.248.139-.453.26-.634.374l.6.558Z" transform="translate(-1525.534 -1459.838)" fill="#e4dae2" fill-rule="evenodd"/>
      </g>
      <g id="Group_11128" data-name="Group 11128" transform="translate(8.119 21.538)">
        <path id="Path_18928" data-name="Path 18928" d="M643.1,997.542c-5.238,0-9.656-2.662-12.63-5.135a33.888,33.888,0,0,1-6.207-6.837.063.063,0,0,1,.106-.068,33.762,33.762,0,0,0,6.184,6.811c3.545,2.947,9.155,6.166,15.751,4.765a.063.063,0,0,1,.026.123A15.51,15.51,0,0,1,643.1,997.542Zm-17-2.23a.063.063,0,0,1-.041-.015,24.076,24.076,0,0,1-5.011-6.27.063.063,0,0,1,.111-.06,23.916,23.916,0,0,0,4.981,6.233.063.063,0,0,1-.04.111Zm16.58-12.782a.063.063,0,0,1-.056-.035,11.941,11.941,0,0,1-.773-5.914,18.36,18.36,0,0,0-.164-4.184.063.063,0,0,1,.124-.024,18.47,18.47,0,0,1,.166,4.212c-.077,2.075-.15,4.034.76,5.853a.063.063,0,0,1-.028.084A.059.059,0,0,1,642.678,982.53Zm-23.087-3.754a.063.063,0,0,1-.056-.033c-1.97-3.667-1.114-6.35-1.105-6.377a.063.063,0,0,1,.119.04c-.009.026-.846,2.662,1.1,6.277a.063.063,0,0,1-.026.085A.065.065,0,0,1,619.591,978.775Z" transform="translate(-618.238 -972.322)" fill="#4c466a"/>
      </g>
      <g id="Group_11129" data-name="Group 11129" transform="translate(14.041 3.347)">
        <path id="Path_18929" data-name="Path 18929" d="M806.614,439.97h0a.063.063,0,0,1-.063-.063c0-.021.013-2.154,0-2.7a9.537,9.537,0,0,0-.092-1.066,6.687,6.687,0,0,0-.335-1.247,5.92,5.92,0,0,0-1.041-1.8,30.006,30.006,0,0,0-2.92-2.306,3.318,3.318,0,0,0-1.53-.342h-.015a3.317,3.317,0,0,0-1.53.342,29.976,29.976,0,0,0-2.924,2.31,5.935,5.935,0,0,0-1.036,1.8,6.651,6.651,0,0,0-.336,1.252.061.061,0,0,1-.072.052.063.063,0,0,1-.052-.072,6.8,6.8,0,0,1,.343-1.276,5.924,5.924,0,0,1,1.067-1.843,29.273,29.273,0,0,1,2.952-2.331,3.447,3.447,0,0,1,1.589-.357h.016a3.447,3.447,0,0,1,1.589.357A29.289,29.289,0,0,1,805.17,433a5.912,5.912,0,0,1,1.071,1.848,6.832,6.832,0,0,1,.342,1.272,9.74,9.74,0,0,1,.094,1.083c.013.547,0,2.682,0,2.7A.063.063,0,0,1,806.614,439.97Z" transform="translate(-794.666 -430.318)" fill="#4c466a"/>
      </g>
      <g id="Group_11130" data-name="Group 11130" transform="translate(5.416 21.602)">
        <path id="Path_18930" data-name="Path 18930" d="M540.669,974.213a11.782,11.782,0,0,0-2.955,1.817,1.46,1.46,0,0,1,1.76.167,5.276,5.276,0,0,1,1.477,2.445,9.162,9.162,0,0,1-.476-2.822A5.527,5.527,0,0,1,540.669,974.213Z" transform="translate(-537.714 -974.213)" fill="#4c466a" fill-rule="evenodd"/>
      </g>
      <g id="Group_11131" data-name="Group 11131" transform="translate(31.628 21.602)">
        <path id="Path_18931" data-name="Path 18931" d="M1322.317,977.11a3.433,3.433,0,0,0-.34-.679,10,10,0,0,0-3.309-2.218,11.337,11.337,0,0,1,.186,1.6c.1,2.061-.224,4.16.049,6.138-.164-4.008.716-5.2,1.624-5.4A2.475,2.475,0,0,1,1322.317,977.11Z" transform="translate(-1318.668 -974.213)" fill="#4c466a" fill-rule="evenodd"/>
      </g>
      <g id="Group_11132" data-name="Group 11132" transform="translate(10.696 38.732)">
        <path id="Path_18932" data-name="Path 18932" d="M700.31,1490.308a24.045,24.045,0,0,1-4.28-5.026q-.218-.345-.428-.708a6.623,6.623,0,0,1,.29.726c.389,1.15.85,3.379-.864,4.557A12.866,12.866,0,0,0,700.31,1490.308Z" transform="translate(-695.027 -1484.574)" fill="#4c466a" fill-rule="evenodd"/>
      </g>
    </g>
  </g>
</svg>
