<svg width="20" height="20" viewBox="0 0 20 20" fill="none" xmlns="http://www.w3.org/2000/svg">
<path d="M7.65039 7.08327H12.3504C12.1468 6.507 11.7392 6.02526 11.2046 5.72911C11.4303 5.4932 11.5818 5.19619 11.6402 4.87494C11.6986 4.5537 11.6613 4.22237 11.5331 3.92211C11.4048 3.62184 11.1912 3.36587 10.9187 3.18597C10.6462 3.00606 10.3269 2.91016 10.0004 2.91016C9.67388 2.91016 9.35456 3.00606 9.08208 3.18597C8.8096 3.36587 8.59597 3.62184 8.4677 3.92211C8.33944 4.22237 8.3022 4.5537 8.3606 4.87494C8.41901 5.19619 8.57048 5.4932 8.79622 5.72911C8.26159 6.02526 7.85397 6.507 7.65039 7.08327Z" fill="#828E9F"/>
<path d="M10.417 10.4165H9.58366C9.35354 10.4165 9.16699 10.6031 9.16699 10.8332V14.1665C9.16699 14.3966 9.35354 14.5832 9.58366 14.5832H10.417C10.6471 14.5832 10.8337 14.3966 10.8337 14.1665V10.8332C10.8337 10.6031 10.6471 10.4165 10.417 10.4165Z" fill="#828E9F"/>
<path d="M13.0667 7.08327H17.7667C17.5632 6.507 17.1555 6.02526 16.6209 5.72911C16.8466 5.4932 16.9981 5.19619 17.0565 4.87494C17.1149 4.5537 17.0777 4.22237 16.9494 3.92211C16.8212 3.62184 16.6075 3.36587 16.335 3.18597C16.0626 3.00606 15.7432 2.91016 15.4167 2.91016C15.0902 2.91016 14.7709 3.00606 14.4984 3.18597C14.2259 3.36587 14.0123 3.62184 13.884 3.92211C13.7558 4.22237 13.7185 4.5537 13.7769 4.87494C13.8353 5.19619 13.9868 5.4932 14.2126 5.72911C13.6779 6.02526 13.2703 6.507 13.0667 7.08327ZM2.2334 7.08327H6.9334C6.72982 6.507 6.3222 6.02526 5.78756 5.72911C6.01331 5.4932 6.16478 5.19619 6.22319 4.87494C6.28159 4.5537 6.24435 4.22237 6.11608 3.92211C5.98782 3.62184 5.77419 3.36587 5.50171 3.18597C5.22923 3.00606 4.90991 2.91016 4.5834 2.91016C4.25689 2.91016 3.93757 3.00606 3.66509 3.18597C3.39261 3.36587 3.17898 3.62184 3.05071 3.92211C2.92245 4.22237 2.88521 4.5537 2.94361 4.87494C3.00201 5.19619 3.15349 5.4932 3.37923 5.72911C2.8446 6.02526 2.43698 6.507 2.2334 7.08327Z" fill="#828E9F"/>
<path d="M5.41699 10.4165H4.58366C4.35354 10.4165 4.16699 10.6031 4.16699 10.8332V14.1665C4.16699 14.3966 4.35354 14.5832 4.58366 14.5832H5.41699C5.64711 14.5832 5.83366 14.3966 5.83366 14.1665V10.8332C5.83366 10.6031 5.64711 10.4165 5.41699 10.4165Z" fill="#828E9F"/>
<path d="M15.417 10.4165H14.5837C14.3535 10.4165 14.167 10.6031 14.167 10.8332V14.1665C14.167 14.3966 14.3535 14.5832 14.5837 14.5832H15.417C15.6471 14.5832 15.8337 14.3966 15.8337 14.1665V10.8332C15.8337 10.6031 15.6471 10.4165 15.417 10.4165Z" fill="#828E9F"/>
<path d="M18.7502 8.74984C18.8607 8.74984 18.9667 8.70594 19.0448 8.6278C19.1229 8.54966 19.1668 8.44368 19.1668 8.33317C19.1668 8.22266 19.1229 8.11668 19.0448 8.03854C18.9667 7.9604 18.8607 7.9165 18.7502 7.9165H1.25016C1.13966 7.9165 1.03368 7.9604 0.955535 8.03854C0.877395 8.11668 0.833496 8.22266 0.833496 8.33317C0.833496 8.44368 0.877395 8.54966 0.955535 8.6278C1.03368 8.70594 1.13966 8.74984 1.25016 8.74984H1.66683V16.2498H1.25016C1.13966 16.2498 1.03368 16.2937 0.955535 16.3719C0.877395 16.45 0.833496 16.556 0.833496 16.6665C0.833496 16.777 0.877395 16.883 0.955535 16.9611C1.03368 17.0393 1.13966 17.0832 1.25016 17.0832H18.7502C18.8607 17.0832 18.9667 17.0393 19.0448 16.9611C19.1229 16.883 19.1668 16.777 19.1668 16.6665C19.1668 16.556 19.1229 16.45 19.0448 16.3719C18.9667 16.2937 18.8607 16.2498 18.7502 16.2498H18.3335V8.74984H18.7502ZM6.66683 14.1665C6.66683 14.498 6.53513 14.816 6.30071 15.0504C6.06629 15.2848 5.74835 15.4165 5.41683 15.4165H4.5835C4.25198 15.4165 3.93403 15.2848 3.69961 15.0504C3.46519 14.816 3.3335 14.498 3.3335 14.1665V10.8332C3.3335 10.5017 3.46519 10.1837 3.69961 9.94929C3.93403 9.71487 4.25198 9.58317 4.5835 9.58317H5.41683C5.74835 9.58317 6.06629 9.71487 6.30071 9.94929C6.53513 10.1837 6.66683 10.5017 6.66683 10.8332V14.1665ZM11.6668 14.1665C11.6668 14.498 11.5351 14.816 11.3007 15.0504C11.0663 15.2848 10.7484 15.4165 10.4168 15.4165H9.5835C9.25198 15.4165 8.93403 15.2848 8.69961 15.0504C8.46519 14.816 8.3335 14.498 8.3335 14.1665V10.8332C8.3335 10.5017 8.46519 10.1837 8.69961 9.94929C8.93403 9.71487 9.25198 9.58317 9.5835 9.58317H10.4168C10.7484 9.58317 11.0663 9.71487 11.3007 9.94929C11.5351 10.1837 11.6668 10.5017 11.6668 10.8332V14.1665ZM16.6668 14.1665C16.6668 14.498 16.5351 14.816 16.3007 15.0504C16.0663 15.2848 15.7484 15.4165 15.4168 15.4165H14.5835C14.252 15.4165 13.934 15.2848 13.6996 15.0504C13.4652 14.816 13.3335 14.498 13.3335 14.1665V10.8332C13.3335 10.5017 13.4652 10.1837 13.6996 9.94929C13.934 9.71487 14.252 9.58317 14.5835 9.58317H15.4168C15.7484 9.58317 16.0663 9.71487 16.3007 9.94929C16.5351 10.1837 16.6668 10.5017 16.6668 10.8332V14.1665Z" fill="#828E9F"/>
</svg>
