<svg width="20" height="20" viewBox="0 0 20 20" fill="none" xmlns="http://www.w3.org/2000/svg">
<path d="M16.5189 7.80728C17.2553 7.80728 17.8522 7.22028 17.8522 6.49617C17.8522 5.77206 17.2553 5.18506 16.5189 5.18506C15.7825 5.18506 15.1855 5.77206 15.1855 6.49617C15.1855 7.22028 15.7825 7.80728 16.5189 7.80728Z" fill="#828E9F"/>
<path d="M3.53923 7.89786C2.80285 7.89786 2.20589 7.31085 2.20589 6.58675C2.20589 5.86264 2.80285 5.27563 3.53923 5.27563C4.2756 5.27563 4.87256 5.86264 4.87256 6.58675C4.87256 7.31085 4.2756 7.89786 3.53923 7.89786Z" fill="#828E9F"/>
<path d="M18.9467 11.0533V11.5689H13.2756V11.0089C13.2756 10.9066 13.2711 10.8044 13.2622 10.7022C13.4356 9.29331 14.64 8.19997 16.0934 8.19997C17.6667 8.19997 18.9467 9.47997 18.9467 11.0533ZM14.1867 3.81331C14.1867 4.53775 13.5911 5.12442 12.8534 5.12442C12.8089 5.12442 12.7645 5.11997 12.72 5.11553H12.7156C12.0445 5.04886 11.52 4.49331 11.52 3.81331C11.52 3.76886 11.5245 3.72442 11.5289 3.67998V3.67553C11.5956 3.0222 12.1645 2.5022 12.8534 2.5022C13.5911 2.5022 14.1867 3.08886 14.1867 3.81331Z" fill="#828E9F"/>
<path d="M1.11145 11.1436V11.6592H6.78256V11.0992C6.78256 10.9969 6.78701 10.8947 6.7959 10.7925C6.62257 9.38362 5.41812 8.29028 3.96479 8.29028C2.39145 8.29028 1.11145 9.57028 1.11145 11.1436Z" fill="#828E9F"/>
<path d="M15.1915 7.94664C14.2182 8.22664 13.4315 8.95553 13.0715 9.89775C12.9382 9.54664 12.7471 9.2222 12.4982 8.93775C12.4448 8.87553 12.3871 8.81775 12.3248 8.75553C11.9337 8.36886 11.4582 8.09775 10.9382 7.94664C11.4271 7.64886 11.7471 7.11553 11.7471 6.51109C11.7471 6.25775 11.6893 6.01775 11.5826 5.79553C11.9337 5.6222 12.3159 5.52442 12.7071 5.50664C12.7515 5.5022 12.8004 5.5022 12.8493 5.5022C13.4315 5.5022 13.9871 5.67109 14.4582 5.99109C14.4048 6.15553 14.3737 6.32886 14.3737 6.51109C14.3782 7.11997 14.7071 7.64886 15.1915 7.94664ZM12.8804 10.6933C12.8671 10.8133 12.8626 10.9378 12.8626 11.0578V11.5689H7.18262V11.0089C7.18262 10.3422 7.42706 9.69331 7.86706 9.18664C8.36039 8.61775 9.04928 8.27109 9.81373 8.21331H9.83595C9.90262 8.20886 9.96928 8.20442 10.036 8.20442C10.796 8.20442 11.5159 8.49775 12.0582 9.02664C12.1115 9.07998 12.1604 9.13331 12.2093 9.18664C12.5871 9.61331 12.8182 10.1378 12.8804 10.6933Z" fill="#828E9F"/>
<path d="M11.3693 6.51096C11.3693 7.23541 10.7737 7.82207 10.0359 7.82207C9.96925 7.82207 9.91148 7.81318 9.84925 7.80874C9.84037 7.80874 9.83148 7.8043 9.82259 7.8043C9.1737 7.70207 8.70703 7.15541 8.70703 6.51541C8.70703 6.34207 8.74259 6.17763 8.80481 6.01763C9.00481 5.52874 9.4937 5.20874 10.0359 5.20874C10.4981 5.20874 10.9204 5.43541 11.1648 5.82652C11.3026 6.03096 11.3693 6.27096 11.3693 6.51096Z" fill="#828E9F"/>
<path d="M9.80892 3.06656C10.5453 3.06656 11.1423 2.47955 11.1423 1.75545C11.1423 1.03134 10.5453 0.444336 9.80892 0.444336C9.07254 0.444336 8.47559 1.03134 8.47559 1.75545C8.47559 2.47955 9.07254 3.06656 9.80892 3.06656Z" fill="#828E9F"/>
<path d="M11.9513 5.24442C11.7557 5.3022 11.5646 5.37331 11.3824 5.46664C11.0579 5.05775 10.569 4.81775 10.0357 4.81775C9.41792 4.81775 8.86237 5.13775 8.56014 5.65331C8.28014 5.47109 7.98681 5.33331 7.67125 5.23998C8.16014 4.9422 8.48014 4.40886 8.48014 3.80442V3.75998C8.88459 3.55109 9.34237 3.43553 9.80903 3.43553C10.2757 3.43553 10.7335 3.54664 11.1424 3.75998V3.80442C11.1424 4.41331 11.4668 4.94664 11.9513 5.24442ZM8.09792 3.81331C8.09792 4.53775 7.50237 5.12442 6.76459 5.12442C6.02681 5.12442 5.43125 4.53775 5.43125 3.81331C5.43125 3.08886 6.02681 2.5022 6.76459 2.5022C7.45348 2.5022 8.02237 3.01775 8.08903 3.67553V3.67998C8.09348 3.72442 8.09792 3.76886 8.09792 3.81331ZM9.13348 7.94664C8.53792 8.11998 8.00014 8.45775 7.58237 8.93331C7.31125 9.24442 7.10681 9.60442 6.97792 9.9822C6.84459 9.59553 6.64459 9.23998 6.37348 8.93331C6.32014 8.87109 6.26237 8.81331 6.20014 8.75109C5.80903 8.36442 5.33348 8.09331 4.81348 7.9422C5.30237 7.64442 5.62237 7.11109 5.62237 6.50664C5.62237 6.2622 5.56903 6.0222 5.46681 5.80442C5.86681 5.60442 6.31125 5.49775 6.76459 5.49775C6.80459 5.5022 6.85792 5.5022 6.90237 5.50664C7.44459 5.53331 7.9557 5.70664 8.40014 6.01331C8.35125 6.17331 8.32459 6.3422 8.32459 6.51109C8.32459 7.11553 8.64014 7.64886 9.13348 7.94664Z" fill="#828E9F"/>
</svg>
