<svg xmlns="http://www.w3.org/2000/svg" width="148.771" height="147.391" viewBox="0 0 148.771 147.391">
  <g id="المشرفين" transform="translate(-7635.444 22453.734)">
    <g id="Group_11409" data-name="Group 11409" transform="matrix(0.946, 0.326, -0.326, 0.946, 7673.592, -22452.334)">
      <path id="Path_11768" data-name="Path 11768" d="M115.083,35.428C110.744,9.266,80.266-4.5,54.287,1.324,25.476,7.784,11.135,36.34,8.774,41.265.56,58.4-6.487,89.565,10,105.2c18.325,17.371,52.2,2.738,68.628-8.537C82.935,93.7,120.365,67.286,115.083,35.428Z" transform="translate(0 0)" fill="none" stroke="#e7d8bb" stroke-width="2"/>
      <path id="Path_11521" data-name="Path 11521" d="M104.55,32.185C100.609,8.418,72.92-4.09,49.319,1.2,23.144,7.072,10.116,33.014,7.971,37.489.509,53.055-5.893,81.368,9.086,95.568c16.648,15.781,47.425,2.487,62.347-7.755C75.345,85.127,109.349,61.128,104.55,32.185Z" transform="translate(4.059 7.763)" fill="#e6decf"/>
      <circle id="Ellipse_1191" data-name="Ellipse 1191" cx="2.997" cy="2.997" r="2.997" transform="translate(9.159 27.741)" fill="#ffbb10"/>
      <circle id="Ellipse_1192" data-name="Ellipse 1192" cx="2.997" cy="2.997" r="2.997" transform="translate(25.813 106.875)" fill="#ffbb10"/>
      <circle id="Ellipse_1193" data-name="Ellipse 1193" cx="2.011" cy="2.011" r="2.011" transform="translate(80.595 19.035) rotate(-22.5)" fill="#ffbb10"/>
    </g>
    <g id="Group_11208" data-name="Group 11208" transform="translate(7649.667 -22417.795)">
      <g id="Group_11135" data-name="Group 11135" transform="translate(15.791 5.015)">
        <rect id="Rectangle_2597" data-name="Rectangle 2597" width="5.535" height="16.742" fill="#b83e4d"/>
      </g>
      <g id="Group_11136" data-name="Group 11136" transform="translate(27.596 31.927)">
        <path id="Path_18933" data-name="Path 18933" d="M313.916,374.941l4.468.189.237-2.176-4.435-.483Z" transform="translate(-313.916 -372.471)" fill="#f59f9e"/>
      </g>
      <g id="Group_11137" data-name="Group 11137" transform="translate(31.326 32.341)">
        <path id="Rectangle_2598" data-name="Rectangle 2598" d="M3.073,0h0a0,0,0,0,1,0,0V3.533A3.073,3.073,0,0,1,0,6.606H0a0,0,0,0,1,0,0V3.073A3.073,3.073,0,0,1,3.073,0Z" transform="translate(6.9 0.716) rotate(96.219)" fill="#f59f9e"/>
      </g>
      <g id="Group_11138" data-name="Group 11138" transform="translate(23.198 18.855)">
        <path id="Path_18934" data-name="Path 18934" d="M282.98,279.185l-.451,13.072L283.64,292S283.574,284.228,282.98,279.185Z" transform="translate(-282.528 -279.185)" fill="#ffe6b1"/>
      </g>
      <g id="Group_11139" data-name="Group 11139" transform="translate(17.256 30.791)">
        <path id="Path_18935" data-name="Path 18935" d="M240.129,366.028c-.116,1.062,1.206,2,2.866,2.08l10.549,1.038.359-3.3-13.593-1.481Z" transform="translate(-240.122 -364.367)" fill="#ffe6b1"/>
      </g>
      <g id="Group_11148" data-name="Group 11148" transform="translate(0 23.318)">
        <g id="Group_11140" data-name="Group 11140" transform="translate(3.272 26.69)">
          <path id="Path_18936" data-name="Path 18936" d="M142.01,504.871h12.228a1.681,1.681,0,0,0,1.681-1.681h0a1.681,1.681,0,0,0-1.681-1.681H142.01a1.681,1.681,0,0,0-1.681,1.681h0A1.681,1.681,0,0,0,142.01,504.871Z" transform="translate(-140.329 -501.509)" fill="#192636"/>
        </g>
        <g id="Group_11141" data-name="Group 11141" transform="translate(0.964)">
          <path id="Rectangle_2599" data-name="Rectangle 2599" d="M0,0H6.148A6.148,6.148,0,0,1,12.3,6.148V20.541A6.148,6.148,0,0,1,6.148,26.69h0A6.148,6.148,0,0,1,0,20.541V0A0,0,0,0,1,0,0Z" transform="translate(12.297 26.69) rotate(180)" fill="#192636"/>
        </g>
        <g id="Group_11142" data-name="Group 11142" transform="translate(8.688 30.051)">
          <rect id="Rectangle_2600" data-name="Rectangle 2600" width="3.009" height="6.825" transform="translate(3.009 6.825) rotate(180)" fill="#fff"/>
        </g>
        <g id="Group_11143" data-name="Group 11143" transform="translate(9.204 36.876)">
          <rect id="Rectangle_2601" data-name="Rectangle 2601" width="1.863" height="6.708" transform="translate(1.863 6.708) rotate(180)" fill="#fff"/>
        </g>
        <g id="Group_11144" data-name="Group 11144" transform="translate(1.742 42.7)">
          <rect id="Rectangle_2602" data-name="Rectangle 2602" width="16.568" height="1.451" transform="translate(16.568 1.451) rotate(180)" fill="#fff"/>
        </g>
        <g id="Group_11145" data-name="Group 11145" transform="translate(0 42.699)">
          <circle id="Ellipse_1211" data-name="Ellipse 1211" cx="1.742" cy="1.742" r="1.742" fill="#192636"/>
        </g>
        <g id="Group_11146" data-name="Group 11146" transform="translate(16.46 42.699)">
          <circle id="Ellipse_1212" data-name="Ellipse 1212" cx="1.742" cy="1.742" r="1.742" fill="#192636"/>
        </g>
        <g id="Group_11147" data-name="Group 11147" transform="translate(5.809 42.699)">
          <rect id="Rectangle_2603" data-name="Rectangle 2603" width="2.488" height="3.49" transform="translate(2.488 3.49) rotate(180)" fill="#192636"/>
        </g>
      </g>
      <g id="Group_11153" data-name="Group 11153" transform="translate(7.334 16.475)">
        <g id="Group_11152" data-name="Group 11152">
          <g id="Group_11151" data-name="Group 11151">
            <g id="Group_11150" data-name="Group 11150">
              <g id="Group_11149" data-name="Group 11149">
                <path id="Path_18937" data-name="Path 18937" d="M185.633,264.579l-5.039-2.38h-6.042l-5.234,2.38.46,27.665h14.9Z" transform="translate(-169.318 -262.199)" fill="#ffe6b1"/>
              </g>
            </g>
          </g>
        </g>
      </g>
      <g id="Group_11154" data-name="Group 11154" transform="translate(7.566 32.788)">
        <path id="Path_18938" data-name="Path 18938" d="M185.055,379.929v2.762l-14.025-.418-.061-3.652Z" transform="translate(-170.97 -378.621)" fill="#edd6a4"/>
      </g>
      <g id="Group_11155" data-name="Group 11155" transform="translate(9.717 24.384)">
        <path id="Path_18939" data-name="Path 18939" d="M186.323,318.64l2.384,5.749,8.286,2.14-10.67-.775Z" transform="translate(-186.323 -318.64)" fill="#edd6a4"/>
      </g>
      <g id="Group_11156" data-name="Group 11156" transform="translate(12.812 43.947)">
        <rect id="Rectangle_2604" data-name="Rectangle 2604" width="15.887" height="6.073" transform="translate(15.887 6.073) rotate(180)" fill="#ffe6b1"/>
      </g>
      <g id="Group_11157" data-name="Group 11157" transform="translate(7.743 43.947)">
        <path id="Rectangle_2605" data-name="Rectangle 2605" d="M0,0H4.551a6.073,6.073,0,0,1,6.073,6.073v0a0,0,0,0,1,0,0H0a0,0,0,0,1,0,0V0A0,0,0,0,1,0,0Z" transform="translate(10.624 6.073) rotate(180)" fill="#ffe6b1"/>
      </g>
      <g id="Group_11162" data-name="Group 11162" transform="translate(15.138 43.947)">
        <g id="Group_11161" data-name="Group 11161">
          <g id="Group_11160" data-name="Group 11160">
            <g id="Group_11159" data-name="Group 11159">
              <g id="Group_11158" data-name="Group 11158">
                <path id="Path_18940" data-name="Path 18940" d="M231.606,482.214l-3.3-1.167-3.3-19.82a2.981,2.981,0,0,1,2.981-2.972h.248c1.864,0,2.74,1.585,3.1,3.538Z" transform="translate(-225.006 -458.255)" fill="#ffe6b1"/>
              </g>
            </g>
          </g>
        </g>
      </g>
      <g id="Group_11167" data-name="Group 11167" transform="translate(15.924 43.947)">
        <g id="Group_11166" data-name="Group 11166">
          <g id="Group_11165" data-name="Group 11165">
            <g id="Group_11164" data-name="Group 11164">
              <g id="Group_11163" data-name="Group 11163">
                <path id="Path_18941" data-name="Path 18941" d="M247.95,481.047H234.618l-3.993-19.43c-.23-1.783,10.973-3.363,12.771-3.363h0a3.428,3.428,0,0,1,3.162,3.036Z" transform="translate(-230.621 -458.255)" fill="#ffe6b1"/>
              </g>
            </g>
          </g>
        </g>
      </g>
      <g id="Group_11172" data-name="Group 11172" transform="translate(29.746 66.739)">
        <g id="Group_11171" data-name="Group 11171">
          <g id="Group_11170" data-name="Group 11170">
            <g id="Group_11169" data-name="Group 11169">
              <g id="Group_11168" data-name="Group 11168">
                <path id="Path_18942" data-name="Path 18942" d="M332.781,620.912h-3.523l.532,2.763h5.754A2.763,2.763,0,0,0,332.781,620.912Z" transform="translate(-329.258 -620.912)" fill="#3e4769"/>
              </g>
            </g>
          </g>
        </g>
      </g>
      <g id="Group_11177" data-name="Group 11177" transform="translate(18.441 66.739)">
        <g id="Group_11176" data-name="Group 11176">
          <g id="Group_11175" data-name="Group 11175">
            <g id="Group_11174" data-name="Group 11174">
              <g id="Group_11173" data-name="Group 11173">
                <path id="Path_18943" data-name="Path 18943" d="M252.1,620.912h-3.523l.532,2.763h5.754A2.763,2.763,0,0,0,252.1,620.912Z" transform="translate(-248.581 -620.912)" fill="#3e4769"/>
              </g>
            </g>
          </g>
        </g>
      </g>
      <g id="Group_11182" data-name="Group 11182" transform="translate(17.496 33.565)">
        <g id="Group_11181" data-name="Group 11181">
          <g id="Group_11180" data-name="Group 11180">
            <g id="Group_11179" data-name="Group 11179">
              <g id="Group_11178" data-name="Group 11178">
                <path id="Path_18944" data-name="Path 18944" d="M241.839,384.7a.531.531,0,1,0,.531-.531A.531.531,0,0,0,241.839,384.7Z" transform="translate(-241.839 -384.166)" fill="#2b2c40"/>
              </g>
            </g>
          </g>
        </g>
      </g>
      <g id="Group_11184" data-name="Group 11184" transform="translate(0.964 40.674)">
        <g id="Group_11183" data-name="Group 11183">
          <path id="Path_18945" data-name="Path 18945" d="M133.935,445.937h1.31v-4.114a6.931,6.931,0,0,0-6.923-6.924h-4.464v1.31h4.464a5.62,5.62,0,0,1,5.613,5.614Z" transform="translate(-123.858 -434.899)" fill="#fff"/>
        </g>
      </g>
      <g id="Group_11185" data-name="Group 11185" transform="translate(5.995 18.784)">
        <path id="Path_18946" data-name="Path 18946" d="M161.165,278.679h0c-2.6,3.882-.8,13.966-.8,13.966l3.777-.534-.773-9.089C163.2,281.178,162.2,278.619,161.165,278.679Z" transform="translate(-159.759 -278.678)" fill="#ffe6b1"/>
      </g>
      <g id="Group_11186" data-name="Group 11186" transform="translate(16.947 31.927)">
        <path id="Path_18947" data-name="Path 18947" d="M237.916,374.941l4.468.189.237-2.176-4.435-.483Z" transform="translate(-237.916 -372.471)" fill="#f59f9e"/>
      </g>
      <g id="Group_11187" data-name="Group 11187" transform="translate(23.175 24.384)">
        <path id="Path_18948" data-name="Path 18948" d="M282.368,326.833l.137-8.194.814,9.535Z" transform="translate(-282.368 -318.64)" fill="#edd6a4"/>
      </g>
      <g id="Group_11188" data-name="Group 11188" transform="translate(20.676 32.341)">
        <path id="Rectangle_2606" data-name="Rectangle 2606" d="M3.073,0h0a0,0,0,0,1,0,0V3.533A3.073,3.073,0,0,1,0,6.606H0a0,0,0,0,1,0,0V3.073A3.073,3.073,0,0,1,3.073,0Z" transform="matrix(-0.108, 0.994, -0.994, -0.108, 6.9, 0.716)" fill="#f59f9e"/>
      </g>
      <g id="Group_11189" data-name="Group 11189" transform="translate(6.606 30.791)">
        <path id="Path_18949" data-name="Path 18949" d="M164.13,366.028c-.116,1.062,1.206,2,2.866,2.08l10.549,1.038.359-3.3-13.593-1.481Z" transform="translate(-164.123 -364.367)" fill="#ffe6b1"/>
      </g>
      <g id="Group_11190" data-name="Group 11190" transform="translate(11.662 8.643)">
        <path id="Path_18950" data-name="Path 18950" d="M207.454,214.287s-.952.849-3.625.849-3.625-.849-3.625-.849V206.3h7.249Z" transform="translate(-200.205 -206.302)" fill="#faa2a1"/>
      </g>
      <g id="Group_11191" data-name="Group 11191" transform="translate(12.924 12.807)">
        <path id="Path_18951" data-name="Path 18951" d="M215.195,239.35v-3.328h-5.988S210.266,239.018,215.195,239.35Z" transform="translate(-209.207 -236.022)" fill="#db7170"/>
      </g>
      <g id="Group_11192" data-name="Group 11192" transform="translate(12.355 4.097)">
        <path id="Rectangle_2607" data-name="Rectangle 2607" d="M0,0H0A7.948,7.948,0,0,1,7.948,7.948v2.917a0,0,0,0,1,0,0H0a0,0,0,0,1,0,0V0A0,0,0,0,1,0,0Z" transform="translate(7.948 10.865) rotate(180)" fill="#faa2a1"/>
      </g>
      <g id="Group_11193" data-name="Group 11193" transform="translate(13.677 3.741)" opacity="0.12">
        <path id="Path_18952" data-name="Path 18952" d="M214.581,172.853a1.534,1.534,0,0,1,1.534-1.534h4.2a1.534,1.534,0,0,1,1.534,1.534v2.128a1.534,1.534,0,0,0-1.534-1.534h-4.2a1.534,1.534,0,0,0-1.534,1.534Z" transform="translate(-214.581 -171.319)" fill="#231f20"/>
      </g>
      <g id="Group_11194" data-name="Group 11194" transform="translate(10.842 7.868)">
        <path id="Rectangle_2608" data-name="Rectangle 2608" d="M0,0H.757a.757.757,0,0,1,.757.757V2.583a.757.757,0,0,1-.757.757h0A.757.757,0,0,1,0,2.583V0A0,0,0,0,1,0,0Z" transform="translate(1.514 3.34) rotate(180)" fill="#faa2a1"/>
      </g>
      <g id="Group_11202" data-name="Group 11202" transform="translate(12.378 8.085)">
        <g id="Group_11195" data-name="Group 11195">
          <path id="Path_18953" data-name="Path 18953" d="M205.309,202.325v3.8a3.7,3.7,0,0,0,3.52,3.861h4.405v-4.344H208.8c-1.492,0-2.7-1.683-2.7-3.319h-.791Z" transform="translate(-205.309 -202.325)" fill="#492f3b"/>
        </g>
        <g id="Group_11196" data-name="Group 11196" transform="translate(3.627 2.989)">
          <path id="Rectangle_2609" data-name="Rectangle 2609" d="M0,0H3.739a0,0,0,0,1,0,0V.854A1.869,1.869,0,0,1,1.869,2.724h0A1.869,1.869,0,0,1,0,.854V0A0,0,0,0,1,0,0Z" fill="#faa2a1"/>
        </g>
        <g id="Group_11197" data-name="Group 11197" transform="translate(5.305 5.301)">
          <rect id="Rectangle_2610" data-name="Rectangle 2610" width="0.892" height="0.646" fill="#492f3b"/>
        </g>
        <g id="Group_11198" data-name="Group 11198" transform="translate(4.162 3.583)">
          <path id="Path_18954" data-name="Path 18954" d="M236.737,229.285H236.4a1.392,1.392,0,0,1-1.392-1.392h3.118A1.391,1.391,0,0,1,236.737,229.285Z" transform="translate(-235.01 -227.893)" fill="#fff"/>
        </g>
        <g id="Group_11201" data-name="Group 11201" transform="translate(3.44 2.11)">
          <g id="Group_11199" data-name="Group 11199">
            <path id="Rectangle_2611" data-name="Rectangle 2611" d="M1.473,0H2.607a0,0,0,0,1,0,0V0A1.473,1.473,0,0,1,1.134,1.473H0a0,0,0,0,1,0,0v0A1.473,1.473,0,0,1,1.473,0Z" fill="#492f3b"/>
          </g>
          <g id="Group_11200" data-name="Group 11200" transform="translate(2.189 0)">
            <path id="Rectangle_2612" data-name="Rectangle 2612" d="M0,0H.321A1.473,1.473,0,0,1,1.793,1.473v0a0,0,0,0,1,0,0H1.473A1.473,1.473,0,0,1,0,0V0A0,0,0,0,1,0,0Z" transform="translate(1.793 1.473) rotate(-180)" fill="#492f3b"/>
          </g>
        </g>
      </g>
      <g id="Group_11204" data-name="Group 11204" transform="translate(17.683 8.449)">
        <g id="Group_11203" data-name="Group 11203">
          <path id="Path_18955" data-name="Path 18955" d="M244.11,206.665h-.939v-.424h.483l-.094-1.286.423-.031Z" transform="translate(-243.171 -204.924)" fill="#db7170"/>
        </g>
      </g>
      <g id="Group_11205" data-name="Group 11205" transform="translate(10.609 0)">
        <path id="Path_18956" data-name="Path 18956" d="M197.853,144.624c-3.07,0-5.165,2.273-5.165,4.158v.23h10.33v-.23C203.018,146.9,200.923,144.624,197.853,144.624Z" transform="translate(-192.688 -144.624)" fill="#fe6d57"/>
      </g>
      <g id="Group_11206" data-name="Group 11206" transform="translate(10.24 2.615)">
        <path id="Path_18957" data-name="Path 18957" d="M200.715,164.108a.412.412,0,0,0,0-.824H190.458a.926.926,0,0,1-.406,1.236.409.409,0,0,0,.406.412h10.257a.412.412,0,0,0,0-.824Z" transform="translate(-190.052 -163.284)" fill="#2e2f3b"/>
      </g>
      <g id="Group_11207" data-name="Group 11207" transform="translate(9.564 4.262)">
        <path id="Path_18958" data-name="Path 18958" d="M196.4,175.041h-9.932a1.242,1.242,0,0,0-1.242,1.242V188.8a4.113,4.113,0,0,0,4.113,4.112v-15.66a1.534,1.534,0,0,1,1.534-1.534h4.2a1.534,1.534,0,0,1,1.534,1.534v15.66a1.045,1.045,0,0,0,1.045-1.045V176.287A1.246,1.246,0,0,0,196.4,175.041Z" transform="translate(-185.231 -175.041)" fill="#fe6d57"/>
      </g>
    </g>
    <g id="Group_11374" data-name="Group 11374" transform="translate(7722.233 -22416.205)">
      <g id="Group_11209" data-name="Group 11209" transform="translate(17.05 4.538)">
        <rect id="Rectangle_2613" data-name="Rectangle 2613" width="5.273" height="16.229" transform="translate(5.273 16.229) rotate(180)" fill="#8893b5"/>
      </g>
      <g id="Group_11210" data-name="Group 11210" transform="translate(5.866 30.709)">
        <path id="Path_18959" data-name="Path 18959" d="M681.376,377.569l-4.423.187-.235-2.154,4.392-.479Z" transform="translate(-676.718 -375.124)" fill="#f59f9e"/>
      </g>
      <g id="Group_11211" data-name="Group 11211" transform="translate(0 31.119)">
        <path id="Rectangle_2614" data-name="Rectangle 2614" d="M0,0H0A3.043,3.043,0,0,1,3.043,3.043v3.5a0,0,0,0,1,0,0h0A3.043,3.043,0,0,1,0,3.5V0A0,0,0,0,1,0,0Z" transform="translate(6.502 0) rotate(83.781)" fill="#f59f9e"/>
      </g>
      <g id="Group_11212" data-name="Group 11212" transform="translate(7.118 29.585)">
        <path id="Path_18960" data-name="Path 18960" d="M699.287,368.744c.115,1.052-1.194,1.976-2.837,2.06l-10.444,1.028-.356-3.265,13.458-1.466Z" transform="translate(-685.649 -367.1)" fill="#3e4769"/>
      </g>
      <g id="Group_11221" data-name="Group 11221" transform="translate(17.847 22.186)">
        <g id="Group_11213" data-name="Group 11213" transform="translate(1.325 26.426)">
          <path id="Path_18961" data-name="Path 18961" d="M785.446,506.214H773.339a1.664,1.664,0,0,1-1.664-1.664h0a1.664,1.664,0,0,1,1.664-1.664h12.107a1.664,1.664,0,0,1,1.664,1.664h0A1.664,1.664,0,0,1,785.446,506.214Z" transform="translate(-771.675 -502.885)" fill="#192636"/>
        </g>
        <g id="Group_11214" data-name="Group 11214" transform="translate(6.871)">
          <path id="Rectangle_2615" data-name="Rectangle 2615" d="M6.087,0h0a6.087,6.087,0,0,1,6.087,6.087V20.338a6.087,6.087,0,0,1-6.087,6.087H0a0,0,0,0,1,0,0V6.087A6.087,6.087,0,0,1,6.087,0Z" fill="#192636"/>
        </g>
        <g id="Group_11215" data-name="Group 11215" transform="translate(8.419 29.754)">
          <rect id="Rectangle_2616" data-name="Rectangle 2616" width="2.979" height="6.757" fill="#fff"/>
        </g>
        <g id="Group_11216" data-name="Group 11216" transform="translate(9.043 36.511)">
          <rect id="Rectangle_2617" data-name="Rectangle 2617" width="1.845" height="6.641" fill="#fff"/>
        </g>
        <g id="Group_11217" data-name="Group 11217" transform="translate(1.871 42.278)">
          <rect id="Rectangle_2618" data-name="Rectangle 2618" width="16.404" height="1.437" fill="#fff"/>
        </g>
        <g id="Group_11218" data-name="Group 11218" transform="translate(16.297 42.024)">
          <circle id="Ellipse_1213" data-name="Ellipse 1213" cx="1.725" cy="1.725" r="1.725" transform="translate(0 3.406) rotate(-80.818)" fill="#192636"/>
        </g>
        <g id="Group_11219" data-name="Group 11219" transform="translate(0 42.024)">
          <circle id="Ellipse_1214" data-name="Ellipse 1214" cx="1.725" cy="1.725" r="1.725" transform="translate(0 3.406) rotate(-80.818)" fill="#192636"/>
        </g>
        <g id="Group_11220" data-name="Group 11220" transform="translate(11.785 42.277)">
          <rect id="Rectangle_2619" data-name="Rectangle 2619" width="2.464" height="3.455" fill="#192636"/>
        </g>
      </g>
      <g id="Group_11222" data-name="Group 11222" transform="translate(13.778 17.767)">
        <path id="Path_18962" data-name="Path 18962" d="M733.834,282.76l.447,12.942-1.1-.251S733.245,287.753,733.834,282.76Z" transform="translate(-733.18 -282.76)" fill="#3e4769"/>
      </g>
      <g id="Group_11227" data-name="Group 11227" transform="translate(14.432 15.41)">
        <g id="Group_11226" data-name="Group 11226">
          <g id="Group_11225" data-name="Group 11225">
            <g id="Group_11224" data-name="Group 11224">
              <g id="Group_11223" data-name="Group 11223">
                <path id="Path_18963" data-name="Path 18963" d="M737.848,268.3l4.989-2.357h5.982L754,268.3l-.455,27.392H738.794Z" transform="translate(-737.848 -265.942)" fill="#48547a"/>
              </g>
            </g>
          </g>
        </g>
      </g>
      <g id="Group_11232" data-name="Group 11232" transform="translate(15.886 14.681)">
        <g id="Group_11231" data-name="Group 11231">
          <g id="Group_11230" data-name="Group 11230">
            <g id="Group_11229" data-name="Group 11229">
              <g id="Group_11228" data-name="Group 11228">
                <path id="Path_18964" data-name="Path 18964" d="M752.195,275.7l-3.794-7.352,2-.57-2.175-1.384,3.944-5.652.316.22-3.714,5.323,2.559,1.628-2.369.677,3.357,6.506,6.906-5.806-3.126-1.237,3.785-1.937-2.455-4.417.337-.187,2.648,4.765L757.03,268l2.935,1.161Z" transform="translate(-748.223 -260.737)" fill="#2b2c40"/>
              </g>
            </g>
          </g>
        </g>
      </g>
      <g id="Group_11237" data-name="Group 11237" transform="translate(18.229 29.188)">
        <g id="Group_11236" data-name="Group 11236">
          <g id="Group_11235" data-name="Group 11235">
            <g id="Group_11234" data-name="Group 11234">
              <g id="Group_11233" data-name="Group 11233">
                <path id="Path_18965" data-name="Path 18965" d="M766.755,379.379l-1.58-1.039-.226-12.779,1.567-1.289.245.3-1.423,1.171.219,12.39,1.41.927Z" transform="translate(-764.949 -364.272)" fill="#2b2c40"/>
              </g>
            </g>
          </g>
        </g>
      </g>
      <g id="Group_11242" data-name="Group 11242" transform="translate(19.123 15.512)">
        <g id="Group_11241" data-name="Group 11241">
          <g id="Group_11240" data-name="Group 11240">
            <g id="Group_11239" data-name="Group 11239">
              <g id="Group_11238" data-name="Group 11238">
                <path id="Path_18966" data-name="Path 18966" d="M777.891,266.668l-3.753,8.81-1.945,4.565-.278-4.3-.585-9.024,2.649-.02h.128Z" transform="translate(-771.329 -266.668)" fill="#ccdfff"/>
              </g>
            </g>
          </g>
        </g>
      </g>
      <g id="Group_11253" data-name="Group 11253" transform="translate(19.709 15.458)">
        <g id="Group_11247" data-name="Group 11247" transform="translate(0.21)">
          <g id="Group_11246" data-name="Group 11246">
            <g id="Group_11245" data-name="Group 11245">
              <g id="Group_11244" data-name="Group 11244">
                <g id="Group_11243" data-name="Group 11243">
                  <path id="Path_18967" data-name="Path 18967" d="M778.516,270.007,777,268.315l1.933-2.033,1.431,2.413Z" transform="translate(-777.003 -266.282)" fill="#00a9fe"/>
                </g>
              </g>
            </g>
          </g>
        </g>
        <g id="Group_11252" data-name="Group 11252" transform="translate(0 0.927)">
          <g id="Group_11251" data-name="Group 11251">
            <g id="Group_11250" data-name="Group 11250">
              <g id="Group_11249" data-name="Group 11249">
                <g id="Group_11248" data-name="Group 11248">
                  <path id="Path_18968" data-name="Path 18968" d="M778.1,273.027l-.1,2.12-.273,5.689-1.945,4.565-.278-4.3,1.092-6.109.374-2.091Z" transform="translate(-775.506 -272.899)" fill="#00a9fe"/>
                </g>
              </g>
            </g>
          </g>
        </g>
      </g>
      <g id="Group_11258" data-name="Group 11258" transform="translate(19.122 10.576)">
        <g id="Group_11257" data-name="Group 11257">
          <g id="Group_11256" data-name="Group 11256">
            <g id="Group_11255" data-name="Group 11255">
              <g id="Group_11254" data-name="Group 11254">
                <path id="Path_18969" data-name="Path 18969" d="M771.32,236.428s.864.771,3.29.771,3.29-.771,3.29-.771v-4.985h-6.58Z" transform="translate(-771.32 -231.443)" fill="#faa2a1"/>
              </g>
            </g>
          </g>
        </g>
      </g>
      <g id="Group_11259" data-name="Group 11259" transform="translate(9.432 42.61)">
        <rect id="Rectangle_2620" data-name="Rectangle 2620" width="15.73" height="6.013" fill="#343d59"/>
      </g>
      <g id="Group_11260" data-name="Group 11260" transform="translate(19.662 42.61)">
        <path id="Rectangle_2621" data-name="Rectangle 2621" d="M0,0H10.519a0,0,0,0,1,0,0V0A6.013,6.013,0,0,1,4.506,6.013H0a0,0,0,0,1,0,0V0A0,0,0,0,1,0,0Z" fill="#3e4769"/>
      </g>
      <g id="Group_11265" data-name="Group 11265" transform="translate(16.325 42.61)">
        <g id="Group_11264" data-name="Group 11264">
          <g id="Group_11263" data-name="Group 11263">
            <g id="Group_11262" data-name="Group 11262">
              <g id="Group_11261" data-name="Group 11261">
                <path id="Path_18970" data-name="Path 18970" d="M751.357,483.781l3.264-1.155L757.892,463a2.951,2.951,0,0,0-2.952-2.942h-.246c-1.845,0-2.713,1.569-3.066,3.5Z" transform="translate(-751.357 -460.059)" fill="#3e4769"/>
              </g>
            </g>
          </g>
        </g>
      </g>
      <g id="Group_11267" data-name="Group 11267" transform="translate(16.934 44.97)">
        <g id="Group_11266" data-name="Group 11266" transform="translate(0 0)">
          <rect id="Rectangle_2622" data-name="Rectangle 2622" width="20.386" height="0.324" transform="translate(0 20.361) rotate(-87.177)" fill="#2b2c40"/>
        </g>
      </g>
      <g id="Group_11272" data-name="Group 11272" transform="translate(4.923 42.61)">
        <g id="Group_11271" data-name="Group 11271">
          <g id="Group_11270" data-name="Group 11270">
            <g id="Group_11269" data-name="Group 11269">
              <g id="Group_11268" data-name="Group 11268">
                <path id="Path_18971" data-name="Path 18971" d="M669.986,482.626h3.483l3.954-19.237a2.951,2.951,0,0,0-2.927-3.329h0a3.394,3.394,0,0,0-3.13,3.007Z" transform="translate(-669.986 -460.059)" fill="#343d59"/>
              </g>
            </g>
          </g>
        </g>
      </g>
      <g id="Group_11274" data-name="Group 11274" transform="translate(5.701 44.965)">
        <g id="Group_11273" data-name="Group 11273" transform="translate(0 0)">
          <rect id="Rectangle_2623" data-name="Rectangle 2623" width="20.426" height="0.324" transform="translate(0 20.361) rotate(-85.428)" fill="#2b2c40"/>
        </g>
      </g>
      <g id="Group_11279" data-name="Group 11279" transform="translate(2.172 65.177)">
        <g id="Group_11278" data-name="Group 11278">
          <g id="Group_11277" data-name="Group 11277">
            <g id="Group_11276" data-name="Group 11276">
              <g id="Group_11275" data-name="Group 11275">
                <path id="Path_18972" data-name="Path 18972" d="M653.089,621.107h3.488l-.527,2.736h-5.7A2.736,2.736,0,0,1,653.089,621.107Z" transform="translate(-650.353 -621.107)" fill="#fff"/>
              </g>
            </g>
          </g>
        </g>
      </g>
      <g id="Group_11284" data-name="Group 11284" transform="translate(13.365 65.177)">
        <g id="Group_11283" data-name="Group 11283">
          <g id="Group_11282" data-name="Group 11282">
            <g id="Group_11281" data-name="Group 11281">
              <g id="Group_11280" data-name="Group 11280">
                <path id="Path_18973" data-name="Path 18973" d="M732.968,621.107h3.488l-.527,2.736h-5.7A2.736,2.736,0,0,1,732.968,621.107Z" transform="translate(-730.232 -621.107)" fill="#fff"/>
              </g>
            </g>
          </g>
        </g>
      </g>
      <g id="Group_11289" data-name="Group 11289" transform="translate(19.472 32.331)">
        <g id="Group_11288" data-name="Group 11288">
          <g id="Group_11287" data-name="Group 11287">
            <g id="Group_11286" data-name="Group 11286">
              <g id="Group_11285" data-name="Group 11285">
                <path id="Path_18974" data-name="Path 18974" d="M774.871,387.229a.526.526,0,1,1-.526-.526A.526.526,0,0,1,774.871,387.229Z" transform="translate(-773.819 -386.703)" fill="#2b2c40"/>
              </g>
            </g>
          </g>
        </g>
      </g>
      <g id="Group_11294" data-name="Group 11294" transform="translate(19.615 37.653)">
        <g id="Group_11293" data-name="Group 11293">
          <g id="Group_11292" data-name="Group 11292">
            <g id="Group_11291" data-name="Group 11291">
              <g id="Group_11290" data-name="Group 11290">
                <circle id="Ellipse_1215" data-name="Ellipse 1215" cx="0.526" cy="0.526" r="0.526" fill="#2b2c40"/>
              </g>
            </g>
          </g>
        </g>
      </g>
      <g id="Group_11299" data-name="Group 11299" transform="translate(19.461 11.129)">
        <g id="Group_11298" data-name="Group 11298">
          <g id="Group_11297" data-name="Group 11297">
            <g id="Group_11296" data-name="Group 11296">
              <g id="Group_11295" data-name="Group 11295">
                <path id="Path_18975" data-name="Path 18975" d="M773.741,239.21v-3.818h5.133S778.874,239.21,773.741,239.21Z" transform="translate(-773.741 -235.392)" fill="#db7170"/>
              </g>
            </g>
          </g>
        </g>
      </g>
      <g id="Group_11305" data-name="Group 11305" transform="translate(19.521 10.175)">
        <g id="Group_11304" data-name="Group 11304">
          <g id="Group_11303" data-name="Group 11303">
            <g id="Group_11302" data-name="Group 11302">
              <g id="Group_11301" data-name="Group 11301">
                <g id="Group_11300" data-name="Group 11300">
                  <path id="Path_18976" data-name="Path 18976" d="M774.165,232.465v-3.883h5.22S779.385,232.464,774.165,232.465Z" transform="translate(-774.164 -228.581)" fill="#db7170"/>
                </g>
              </g>
            </g>
          </g>
        </g>
      </g>
      <g id="Group_11312" data-name="Group 11312" transform="translate(17.377 2.829)">
        <g id="Group_11311" data-name="Group 11311">
          <g id="Group_11310" data-name="Group 11310">
            <g id="Group_11309" data-name="Group 11309">
              <g id="Group_11308" data-name="Group 11308">
                <g id="Group_11307" data-name="Group 11307">
                  <g id="Group_11306" data-name="Group 11306">
                    <path id="Path_18977" data-name="Path 18977" d="M758.866,187.555a6.1,6.1,0,0,0,7.07-1.867V179.4s.337-3.24-2.668-3.24h-1.241c-2.647,0-3.167,2.45-3.161,4.124Z" transform="translate(-758.865 -176.157)" fill="#f59f9e"/>
                  </g>
                </g>
              </g>
            </g>
          </g>
        </g>
      </g>
      <g id="Group_11313" data-name="Group 11313" transform="translate(17.68 11.186)">
        <rect id="Rectangle_2624" data-name="Rectangle 2624" width="2.833" height="1.852" fill="#fff"/>
      </g>
      <g id="Group_11320" data-name="Group 11320" transform="translate(23.596 2.828)">
        <g id="Group_11319" data-name="Group 11319">
          <g id="Group_11318" data-name="Group 11318">
            <g id="Group_11317" data-name="Group 11317">
              <g id="Group_11316" data-name="Group 11316">
                <g id="Group_11315" data-name="Group 11315">
                  <g id="Group_11314" data-name="Group 11314">
                    <path id="Path_18978" data-name="Path 18978" d="M804.516,176.153h0a1.62,1.62,0,0,1,1.62,1.619v4.861h0a2.889,2.889,0,0,1-2.89-2.889v-2.322A1.269,1.269,0,0,1,804.516,176.153Z" transform="translate(-803.247 -176.153)" fill="#573a43"/>
                  </g>
                </g>
              </g>
            </g>
          </g>
        </g>
      </g>
      <g id="Group_11327" data-name="Group 11327" transform="translate(24.735 7.582)">
        <g id="Group_11326" data-name="Group 11326">
          <g id="Group_11325" data-name="Group 11325">
            <g id="Group_11324" data-name="Group 11324">
              <g id="Group_11323" data-name="Group 11323">
                <g id="Group_11322" data-name="Group 11322">
                  <g id="Group_11321" data-name="Group 11321">
                    <path id="Path_18979" data-name="Path 18979" d="M812.254,210.076h0a.87.87,0,0,1,.871.87v1.8a.87.87,0,0,1-.87.871h-.88v-2.66A.881.881,0,0,1,812.254,210.076Z" transform="translate(-811.373 -210.076)" fill="#f59f9e"/>
                  </g>
                </g>
              </g>
            </g>
          </g>
        </g>
      </g>
      <g id="Group_11334" data-name="Group 11334" transform="translate(18.748 9.097)">
        <g id="Group_11333" data-name="Group 11333">
          <g id="Group_11332" data-name="Group 11332">
            <g id="Group_11331" data-name="Group 11331">
              <g id="Group_11330" data-name="Group 11330">
                <g id="Group_11329" data-name="Group 11329">
                  <g id="Group_11328" data-name="Group 11328">
                    <path id="Path_18980" data-name="Path 18980" d="M769.478,222.1h-.826l.135-1.213.368.04-.089.8h.413Z" transform="translate(-768.652 -220.891)" fill="#db7170"/>
                  </g>
                </g>
              </g>
            </g>
          </g>
        </g>
      </g>
      <g id="Group_11341" data-name="Group 11341" transform="translate(18.716 10.448)">
        <g id="Group_11340" data-name="Group 11340">
          <g id="Group_11339" data-name="Group 11339">
            <g id="Group_11338" data-name="Group 11338">
              <g id="Group_11337" data-name="Group 11337">
                <g id="Group_11336" data-name="Group 11336">
                  <g id="Group_11335" data-name="Group 11335">
                    <path id="Path_18981" data-name="Path 18981" d="M771.024,232.009H769.9a1.476,1.476,0,0,1-1.477-1.476h1.134A1.466,1.466,0,0,1,771.024,232Z" transform="translate(-768.424 -230.533)" fill="#573a43"/>
                  </g>
                </g>
              </g>
            </g>
          </g>
        </g>
      </g>
      <g id="Group_11348" data-name="Group 11348" transform="translate(17.319 10.449)">
        <g id="Group_11347" data-name="Group 11347">
          <g id="Group_11346" data-name="Group 11346">
            <g id="Group_11345" data-name="Group 11345">
              <g id="Group_11344" data-name="Group 11344">
                <g id="Group_11343" data-name="Group 11343">
                  <g id="Group_11342" data-name="Group 11342">
                    <path id="Rectangle_2625" data-name="Rectangle 2625" d="M1.356,0h.561a0,0,0,0,1,0,0V0A1.476,1.476,0,0,1,.441,1.476H0a0,0,0,0,1,0,0v-.12A1.356,1.356,0,0,1,1.356,0Z" fill="#573a43"/>
                  </g>
                </g>
              </g>
            </g>
          </g>
        </g>
      </g>
      <g id="Group_11355" data-name="Group 11355" transform="translate(17.264 6.527)">
        <g id="Group_11354" data-name="Group 11354">
          <g id="Group_11353" data-name="Group 11353">
            <g id="Group_11352" data-name="Group 11352">
              <g id="Group_11351" data-name="Group 11351">
                <g id="Group_11350" data-name="Group 11350">
                  <g id="Group_11349" data-name="Group 11349">
                    <path id="Path_18982" data-name="Path 18982" d="M764.719,202.549a11.538,11.538,0,0,1-.769,3.52,2.684,2.684,0,0,1-2.778,1.565,1.221,1.221,0,0,1-1.216,1.014,1.354,1.354,0,0,1-1.294-1.035c-.469-.6-.491-3.111-.491-3.111l-.113,5.893s.606,1,2.95,1c3.823,0,4.828-2.335,4.828-2.335l-.307-5Z" transform="translate(-758.059 -202.549)" fill="#573a43"/>
                  </g>
                </g>
              </g>
            </g>
          </g>
        </g>
      </g>
      <g id="Group_11356" data-name="Group 11356" transform="translate(22.569 2.308)">
        <path id="Rectangle_2626" data-name="Rectangle 2626" d="M0,0H1.389a0,0,0,0,1,0,0V3.561a0,0,0,0,1,0,0h0A1.389,1.389,0,0,1,0,2.172V0A0,0,0,0,1,0,0Z" fill="#573a43"/>
      </g>
      <g id="Group_11358" data-name="Group 11358" transform="translate(25.618 39.37)">
        <g id="Group_11357" data-name="Group 11357">
          <path id="Path_18983" data-name="Path 18983" d="M817.676,447.863h1.3V443.79a5.564,5.564,0,0,1,5.558-5.558h4.42v-1.3h-4.42a6.863,6.863,0,0,0-6.855,6.855Z" transform="translate(-817.676 -436.935)" fill="#fff"/>
        </g>
      </g>
      <g id="Group_11359" data-name="Group 11359" transform="translate(27.567 17.696)">
        <path id="Path_18984" data-name="Path 18984" d="M834.54,282.259h0c2.578,3.844.787,13.828.787,13.828l-3.739-.529.765-9C832.525,284.733,833.515,282.2,834.54,282.259Z" transform="translate(-831.588 -282.258)" fill="#53618c"/>
      </g>
      <g id="Group_11360" data-name="Group 11360" transform="translate(16.41 30.709)">
        <path id="Path_18985" data-name="Path 18985" d="M756.624,377.569l-4.423.187-.235-2.154,4.392-.479Z" transform="translate(-751.966 -375.124)" fill="#f59f9e"/>
      </g>
      <g id="Group_11368" data-name="Group 11368" transform="translate(10.908 28.204)">
        <g id="Group_11361" data-name="Group 11361" transform="translate(1.135 0.917)">
          <path id="Path_18986" data-name="Path 18986" d="M725.12,363.8l.256.258-4.317,4.3-.256-.258Z" transform="translate(-720.804 -363.797)" fill="#fbb03b"/>
        </g>
        <g id="Group_11362" data-name="Group 11362" transform="translate(1 0.781)">
          <path id="Path_18987" data-name="Path 18987" d="M724.157,362.826l.135.136-4.317,4.3-.135-.136Z" transform="translate(-719.84 -362.826)" fill="#ffc271"/>
        </g>
        <g id="Group_11363" data-name="Group 11363" transform="translate(1.389 1.174)">
          <path id="Path_18988" data-name="Path 18988" d="M726.933,365.626l.135.136-4.317,4.3-.135-.136Z" transform="translate(-722.617 -365.626)" fill="#ffc271"/>
        </g>
        <g id="Group_11364" data-name="Group 11364" transform="translate(5.745 0)">
          <rect id="Rectangle_2627" data-name="Rectangle 2627" width="0.744" height="0.506" rx="0.253" transform="translate(0.524 0.885) rotate(-134.762)" fill="#c1452a"/>
        </g>
        <g id="Group_11365" data-name="Group 11365" transform="translate(5.317 0.274)">
          <rect id="Rectangle_2628" data-name="Rectangle 2628" width="0.744" height="0.721" transform="translate(0.524 1.036) rotate(-134.761)" fill="#f2f2f2"/>
        </g>
        <g id="Group_11366" data-name="Group 11366" transform="translate(0 5.081)">
          <path id="Path_18989" data-name="Path 18989" d="M714.226,394.042l-1.524.989,1-1.518.236.036.027.229.227.027Z" transform="translate(-712.702 -393.514)" fill="#ffe7ca"/>
        </g>
        <g id="Group_11367" data-name="Group 11367" transform="translate(0 6.116)">
          <path id="Path_18990" data-name="Path 18990" d="M712.7,401.38l.484-.314-.037-.13-.128-.039Z" transform="translate(-712.702 -400.896)" fill="#414042"/>
        </g>
      </g>
      <g id="Group_11369" data-name="Group 11369" transform="translate(10.544 31.119)">
        <path id="Rectangle_2629" data-name="Rectangle 2629" d="M0,0H0A3.042,3.042,0,0,1,3.043,3.042v3.5a0,0,0,0,1,0,0h0A3.043,3.043,0,0,1,0,3.5V0A0,0,0,0,1,0,0Z" transform="translate(6.502 0) rotate(83.782)" fill="#f59f9e"/>
      </g>
      <g id="Group_11370" data-name="Group 11370" transform="translate(17.662 29.585)">
        <path id="Path_18991" data-name="Path 18991" d="M774.535,368.744c.115,1.052-1.194,1.976-2.837,2.06l-10.444,1.028-.356-3.265,13.458-1.466Z" transform="translate(-760.897 -367.1)" fill="#53618c"/>
      </g>
      <g id="Group_11371" data-name="Group 11371" transform="translate(17.004 3.905)" opacity="0.12">
        <path id="Path_18992" data-name="Path 18992" d="M763.246,185.326a1.487,1.487,0,0,0-1.488-1.487H757.69a1.487,1.487,0,0,0-1.487,1.487v2.062a1.487,1.487,0,0,1,1.487-1.487h4.069a1.487,1.487,0,0,1,1.488,1.487Z" transform="translate(-756.202 -183.839)" fill="#231f20"/>
      </g>
      <g id="Group_11372" data-name="Group 11372" transform="translate(16.067 0)">
        <path id="Path_18993" data-name="Path 18993" d="M750.513,160.119V160c0-1.828,2-4.031,4.922-4.031s4.922,2.2,4.922,4.031v.12a1.2,1.2,0,0,1,1,1.184V173.44a3.953,3.953,0,0,1-3.919,3.986v-15.18a1.474,1.474,0,0,0-1.461-1.487h-4a1.474,1.474,0,0,0-1.462,1.487v15.18a1,1,0,0,1-1-1.013V161.308A1.2,1.2,0,0,1,750.513,160.119Z" transform="translate(-749.517 -155.968)" fill="#fff"/>
      </g>
      <g id="Group_11373" data-name="Group 11373" transform="translate(16.746 2.589)">
        <path id="Path_18994" data-name="Path 18994" d="M754.751,175.243a.4.4,0,0,1,0-.8h9.774a.9.9,0,0,0,.387,1.2.393.393,0,0,1-.387.4h-9.774a.4.4,0,0,1,0-.8Z" transform="translate(-754.364 -174.445)" fill="#2e2f3b"/>
      </g>
    </g>
    <g id="Group_11379" data-name="Group 11379" transform="translate(7673.201 -22394.488)">
      <g id="Group_11375" data-name="Group 11375" transform="translate(12.068)">
        <path id="Path_18995" data-name="Path 18995" d="M371.459,323.438h2.953a.777.777,0,0,0,.7-.546l3.257-11.393a.4.4,0,0,0-.384-.546h-2.953a.777.777,0,0,0-.7.546l-3.257,11.393A.4.4,0,0,0,371.459,323.438Z" transform="translate(-371.053 -310.953)" fill="#fff"/>
      </g>
      <g id="Group_11376" data-name="Group 11376" transform="translate(12.462)">
        <path id="Path_18996" data-name="Path 18996" d="M374.271,323.438h2.953a.777.777,0,0,0,.7-.546l3.257-11.393a.4.4,0,0,0-.384-.546h-2.952a.777.777,0,0,0-.7.546l-3.257,11.393A.4.4,0,0,0,374.271,323.438Z" transform="translate(-373.865 -310.953)" fill="#192636"/>
      </g>
      <g id="Group_11377" data-name="Group 11377" transform="translate(0.973 12.485)">
        <path id="Path_18997" data-name="Path 18997" d="M292.2,400.7h14.2a.324.324,0,0,0,.324-.324h0a.324.324,0,0,0-.324-.324H292.2a.324.324,0,0,0-.324.324h0A.324.324,0,0,0,292.2,400.7Z" transform="translate(-291.877 -400.052)" fill="#fff"/>
      </g>
      <g id="Group_11378" data-name="Group 11378" transform="translate(0 12.485)">
        <rect id="Rectangle_2630" data-name="Rectangle 2630" width="12.692" height="0.649" rx="0.324" transform="translate(12.692 0.649) rotate(180)" fill="#ccc6ca"/>
      </g>
    </g>
    <g id="Group_11392" data-name="Group 11392" transform="translate(7672.474 -22381.373)">
      <g id="Group_11380" data-name="Group 11380" transform="translate(0.505 0)">
        <rect id="Rectangle_2631" data-name="Rectangle 2631" width="67.842" height="2.28" fill="#fff"/>
      </g>
      <g id="Group_11384" data-name="Group 11384" transform="translate(45.199 2.28)">
        <g id="Group_11381" data-name="Group 11381" transform="translate(6.547 0)">
          <path id="Path_18998" data-name="Path 18998" d="M659.613,422.175a.949.949,0,0,1-.949.949h-8.685a.949.949,0,0,1-.949-.949V420.82h10.583Z" transform="translate(-649.03 -420.82)" fill="#192636"/>
        </g>
        <g id="Group_11382" data-name="Group 11382">
          <path id="Path_18999" data-name="Path 18999" d="M602.31,451.625h1.615l2.377-7.159.532-1.6,6.55-19.739.6-1.808.164-.5h-1.615l-.765,2.3Z" transform="translate(-602.31 -420.82)" fill="#192636"/>
        </g>
        <g id="Group_11383" data-name="Group 11383" transform="translate(11.509)">
          <path id="Path_19000" data-name="Path 19000" d="M684.443,420.82l.165.5.6,1.808,6.551,19.739.532,1.6,2.377,7.159h1.615l-9.46-28.5-.765-2.3Z" transform="translate(-684.443 -420.82)" fill="#192636"/>
        </g>
      </g>
      <g id="Group_11388" data-name="Group 11388" transform="translate(0 2.28)">
        <g id="Group_11385" data-name="Group 11385" transform="translate(6.547 0)">
          <path id="Path_19001" data-name="Path 19001" d="M337.048,422.175a.949.949,0,0,1-.949.949h-8.685a.949.949,0,0,1-.949-.949V420.82h10.583Z" transform="translate(-326.465 -420.82)" fill="#192636"/>
        </g>
        <g id="Group_11386" data-name="Group 11386">
          <path id="Path_19002" data-name="Path 19002" d="M279.742,451.625h1.615l2.377-7.159.532-1.6,6.55-19.739.6-1.811.164-.493h-1.613l-.765,2.3Z" transform="translate(-279.742 -420.82)" fill="#192636"/>
        </g>
        <g id="Group_11387" data-name="Group 11387" transform="translate(11.51)">
          <path id="Path_19003" data-name="Path 19003" d="M361.886,420.82l.164.493.6,1.811,6.55,19.739.532,1.6,2.377,7.159h1.615l-9.46-28.5-.765-2.3Z" transform="translate(-361.886 -420.82)" fill="#192636"/>
        </g>
      </g>
      <g id="Group_11390" data-name="Group 11390" transform="translate(48.423 24.323)">
        <g id="Group_11389" data-name="Group 11389">
          <rect id="Rectangle_2632" data-name="Rectangle 2632" width="17.186" height="1.603" fill="#192636"/>
        </g>
      </g>
      <g id="Group_11391" data-name="Group 11391" transform="translate(3.006 24.323)">
        <rect id="Rectangle_2633" data-name="Rectangle 2633" width="17.186" height="1.603" fill="#192636"/>
      </g>
    </g>
    <g id="Group_11407" data-name="Group 11407" transform="translate(7708.595 -22385.354)">
      <g id="Group_11393" data-name="Group 11393" transform="translate(0 2.653)">
        <path id="Path_19004" data-name="Path 19004" d="M549.6,395.343v.775a.288.288,0,0,1-.3.276H537.522v-.048h.171l-.171-1.2v-.077h11.784A.288.288,0,0,1,549.6,395.343Z" transform="translate(-537.522 -395.067)" fill="#fe6d57"/>
      </g>
      <g id="Group_11394" data-name="Group 11394" transform="translate(0 2.73)">
        <path id="Path_19005" data-name="Path 19005" d="M543.554,395.891v.65a.288.288,0,0,1-.3.276h-5.667l-.051-.919-.016-.282h5.734A.288.288,0,0,1,543.554,395.891Z" transform="translate(-537.521 -395.616)" fill="#fff"/>
      </g>
      <g id="Group_11395" data-name="Group 11395" transform="translate(0.979 1.326)">
        <path id="Path_19006" data-name="Path 19006" d="M554.305,385.878v.775a.288.288,0,0,1-.3.276h-9.5v-.048h.171l-.171-1.2V385.6h9.5A.288.288,0,0,1,554.305,385.878Z" transform="translate(-544.511 -385.602)" fill="#fec857"/>
      </g>
      <g id="Group_11396" data-name="Group 11396" transform="translate(0.979 1.403)">
        <path id="Path_19007" data-name="Path 19007" d="M551.5,386.421v.654a.288.288,0,0,1-.3.276h-6.629l-.052-.93-.015-.271h6.7A.288.288,0,0,1,551.5,386.421Z" transform="translate(-544.51 -386.15)" fill="#fff"/>
      </g>
      <g id="Group_11397" data-name="Group 11397" transform="translate(0.979 1.403)" opacity="0.1">
        <path id="Path_19008" data-name="Path 19008" d="M551.5,386.421h-6.98l-.015-.271h6.7A.288.288,0,0,1,551.5,386.421Z" transform="translate(-544.51 -386.15)" fill="#231f20"/>
      </g>
      <g id="Group_11398" data-name="Group 11398" transform="translate(1.586 0)">
        <path id="Path_19009" data-name="Path 19009" d="M549.139,376.137h9.5v.077l-.171,1.2h.171v.048h-9.5a.288.288,0,0,1-.3-.276v-.775A.288.288,0,0,1,549.139,376.137Z" transform="translate(-548.84 -376.137)" fill="#b83e4d"/>
      </g>
      <g id="Group_11399" data-name="Group 11399" transform="translate(4.756 0)">
        <path id="Path_19010" data-name="Path 19010" d="M571.758,376.136h.794a.288.288,0,0,0-.3.276v.775a.288.288,0,0,0,.3.276h-.794a.288.288,0,0,1-.3-.276v-.775A.288.288,0,0,1,571.758,376.136Z" transform="translate(-571.459 -376.136)" fill="#96323f"/>
      </g>
      <g id="Group_11400" data-name="Group 11400" transform="translate(8.969 1.326)">
        <path id="Path_19011" data-name="Path 19011" d="M601.529,385.6h.795a.288.288,0,0,1,.3.276v.775a.288.288,0,0,1-.3.276h-.795a.288.288,0,0,0,.3-.276v-.775A.288.288,0,0,0,601.529,385.6Z" transform="translate(-601.529 -385.602)" fill="#deaf4c"/>
      </g>
      <g id="Group_11401" data-name="Group 11401" transform="translate(9.544 2.653)">
        <path id="Path_19012" data-name="Path 19012" d="M605.633,395.067h.795a.288.288,0,0,1,.3.276v.775a.288.288,0,0,1-.3.276h-.795a.288.288,0,0,0,.3-.276v-.775A.288.288,0,0,0,605.633,395.067Z" transform="translate(-605.633 -395.067)" fill="#de5f4b"/>
      </g>
      <g id="Group_11402" data-name="Group 11402" transform="translate(8.883 0.077)">
        <path id="Path_19013" data-name="Path 19013" d="M601.212,376.685h2.2l-.015.271-.052.93h-2.132a.288.288,0,0,1-.3-.276v-.654A.288.288,0,0,1,601.212,376.685Z" transform="translate(-600.913 -376.685)" fill="#fff"/>
      </g>
      <g id="Group_11403" data-name="Group 11403" transform="translate(8.883 0.077)" opacity="0.1">
        <path id="Path_19014" data-name="Path 19014" d="M601.212,376.685h2.2l-.015.271h-2.483A.288.288,0,0,1,601.212,376.685Z" transform="translate(-600.913 -376.685)" fill="#231f20"/>
      </g>
      <g id="Group_11404" data-name="Group 11404" transform="translate(0 2.73)" opacity="0.1">
        <path id="Path_19015" data-name="Path 19015" d="M543.554,395.891v.007h-6.017l-.016-.282h5.734A.288.288,0,0,1,543.554,395.891Z" transform="translate(-537.521 -395.616)" fill="#231f20"/>
      </g>
      <g id="Group_11405" data-name="Group 11405" transform="translate(0.979 2.653)" opacity="0.28">
        <path id="Path_19016" data-name="Path 19016" d="M551.506,395.546l-6.995-.479h9.5Z" transform="translate(-544.511 -395.067)" fill="#231f20"/>
      </g>
      <g id="Group_11406" data-name="Group 11406" transform="translate(1.848 1.326)" opacity="0.28">
        <path id="Path_19017" data-name="Path 19017" d="M557.775,385.907l-7.069-.3h8.583Z" transform="translate(-550.706 -385.602)" fill="#231f20"/>
      </g>
    </g>
  </g>
</svg>
