<svg xmlns="http://www.w3.org/2000/svg" width="23.666" height="23.666" viewBox="0 0 23.666 23.666">
  <g id="notifcation" transform="translate(-1 -1)">
    <path id="Path_19056" data-name="Path 19056" d="M12.833,1A11.833,11.833,0,1,0,24.666,12.833,11.833,11.833,0,0,0,12.833,1Zm0,21.515a9.682,9.682,0,1,1,9.682-9.682A9.682,9.682,0,0,1,12.833,22.515Z" fill="#c4963a"/>
    <path id="Path_19057" data-name="Path 19057" d="M12.076,9A1.076,1.076,0,0,0,11,10.076v7.53a1.076,1.076,0,1,0,2.151,0v-7.53A1.076,1.076,0,0,0,12.076,9Z" transform="translate(0.757 0.606)" fill="#c4963a"/>
    <circle id="Ellipse_1227" data-name="Ellipse 1227" cx="1.121" cy="1.121" r="1.121" transform="translate(11.463 6.232)" fill="#c4963a"/>
  </g>
</svg>
