<svg width="20" height="20" viewBox="0 0 20 20" fill="none" xmlns="http://www.w3.org/2000/svg">
<path d="M9.92422 15.4495H18.3C18.4297 15.4498 18.5539 15.5014 18.6456 15.5931C18.7373 15.6848 18.7889 15.809 18.7893 15.9386V16.9844H9.43506V15.9386C9.43542 15.809 9.48706 15.6848 9.57869 15.5932C9.67033 15.5015 9.79462 15.4499 9.92422 15.4495ZM10.4471 17.3751H17.7772V18.2073H10.4472L10.4471 17.3751Z" fill="#828E9F"/>
<path d="M15.4087 15.5471H12.8149V14.9072C12.8149 14.7829 12.9166 14.6813 13.041 14.6813H15.1829C15.3071 14.6813 15.4087 14.7829 15.4087 14.9072V15.5471ZM15.0983 13.2232H13.1254C12.5697 13.2232 12.5268 12.354 13.1254 12.354H15.0983C15.697 12.354 15.6542 13.2232 15.0983 13.2232Z" fill="#828E9F"/>
<path d="M14.8864 14.2905H13.3375V13.1255H14.8864V14.2905ZM13.5733 11.9633C13.5484 10.8832 13.4797 8.28974 13.2404 7.92307C12.7963 7.24255 13.2787 6.31543 14.1119 6.31543C14.9451 6.31543 15.4276 7.24255 14.9834 7.92307C14.7442 8.28986 14.6755 10.8832 14.6507 11.9633H13.5733Z" fill="#828E9F"/>
<path d="M10.0563 18.2073H1.21094V1.79272H14.112V5.92486C13.5736 5.92486 13.0938 6.21668 12.8454 6.69373C12.607 7.15164 12.6287 7.69467 12.9084 8.12917C13.0493 8.43505 13.1045 9.79171 13.1227 10.1692C13.1514 10.7669 13.1687 11.3652 13.1825 11.9634H13.1254C12.5811 11.9634 12.2117 12.4281 12.3199 12.9544C12.3374 13.0399 12.3678 13.1227 12.4101 13.1989C12.4653 13.3001 12.5419 13.388 12.6346 13.4566C12.7273 13.5251 12.8338 13.5726 12.9468 13.5957V14.2979C12.8014 14.3206 12.6689 14.3944 12.5731 14.5062C12.4774 14.6179 12.4246 14.7601 12.4244 14.9073V15.0589H9.92401C9.43945 15.0589 9.04429 15.4541 9.04429 15.9388V17.3751H10.0564L10.0563 18.2073ZM2.99148 16.6948H8.25523V17.0855H2.99136L2.99148 16.6948ZM2.99148 15.3732H8.25523V15.7639H2.99136L2.99148 15.3732ZM3.2435 14.0518H12.0793V14.4423H3.2435V14.0518ZM3.2435 12.7302H12.0793V13.1208H3.2435V12.7302ZM3.2435 11.4086H12.0793V11.7992H3.2435V11.4086ZM4.84653 10.0871H10.4764V10.4776H4.84653V10.0871ZM7.66145 9.27774C6.10353 8.81118 5.28113 7.22165 5.19428 4.50915C6.26431 4.32668 7.16733 3.81444 7.66145 3.10982C8.15546 3.81456 9.05848 4.32668 10.1286 4.50915C10.0417 7.22165 9.21926 8.81118 7.66145 9.27774Z" fill="#828E9F"/>
<rect x="4" y="5" width="8" height="1" rx="0.5" fill="white"/>
<rect x="4" y="7" width="8" height="1" rx="0.5" fill="white"/>
<rect x="4" y="9" width="8" height="1" rx="0.5" fill="white"/>
<rect x="4" y="11" width="8" height="1" rx="0.5" fill="white"/>
</svg>
