<svg width="20" height="20" viewBox="0 0 20 20" fill="none" xmlns="http://www.w3.org/2000/svg">
<g clip-path="url(#clip0_340_30)">
<path d="M10 8.07153C11.8769 8.07153 13.3984 6.55 13.3984 4.6731C13.3984 2.79619 11.8769 1.27466 10 1.27466C8.12309 1.27466 6.60156 2.79619 6.60156 4.6731C6.60156 6.55 8.12309 8.07153 10 8.07153Z" fill="#828E9F"/>
<path d="M16.875 8.07153C18.0615 8.07153 19.0234 7.10965 19.0234 5.9231C19.0234 4.73655 18.0615 3.77466 16.875 3.77466C15.6885 3.77466 14.7266 4.73655 14.7266 5.9231C14.7266 7.10965 15.6885 8.07153 16.875 8.07153Z" fill="#828E9F"/>
<path d="M3.125 8.07153C4.31155 8.07153 5.27344 7.10965 5.27344 5.9231C5.27344 4.73655 4.31155 3.77466 3.125 3.77466C1.93845 3.77466 0.976562 4.73655 0.976562 5.9231C0.976562 7.10965 1.93845 8.07153 3.125 8.07153Z" fill="#828E9F"/>
<path d="M5.2418 10.0009C4.39609 9.30805 3.6302 9.39977 2.65234 9.39977C1.18984 9.39977 0 10.5826 0 12.0361V16.3021C0 16.9334 0.515234 17.4466 1.14883 17.4466C3.88422 17.4466 3.55469 17.4961 3.55469 17.3287C3.55469 14.3058 3.19664 12.089 5.2418 10.0009Z" fill="#828E9F"/>
<path d="M10.9302 9.41523C9.22222 9.27277 7.73765 9.41687 6.45715 10.4738C4.31429 12.1902 4.72668 14.5013 4.72668 17.3285C4.72668 18.0765 5.33527 18.6965 6.09465 18.6965C14.34 18.6965 14.6682 18.9625 15.1571 17.8797C15.3175 17.5135 15.2736 17.6299 15.2736 14.127C15.2736 11.3447 12.8645 9.41523 10.9302 9.41523ZM17.3478 9.39961C16.3646 9.39961 15.6029 9.30883 14.7583 10.0008C16.7882 12.0733 16.4454 14.1389 16.4454 17.3285C16.4454 17.497 16.1719 17.4465 18.8103 17.4465C19.4665 17.4465 20.0001 16.9148 20.0001 16.2613V12.0359C20.0001 10.5824 18.8103 9.39961 17.3478 9.39961Z" fill="#828E9F"/>
</g>
<defs>
<clipPath id="clip0_340_30">
<rect width="20" height="20" fill="white"/>
</clipPath>
</defs>
</svg>
