<svg id="Group_11425" data-name="Group 11425" xmlns="http://www.w3.org/2000/svg" width="174.107" height="177.143" viewBox="0 0 174.107 177.143">
  <g id="Group_11424" data-name="Group 11424" transform="translate(0 120.461)">
    <g id="Group_11421" data-name="Group 11421" transform="translate(0 30.73)">
      <g id="Group_11418" data-name="Group 11418" transform="translate(0 0)">
        <path id="Path_11415" data-name="Path 11415" d="M355.043,1641.63q-3.8.311-3.8,6.21a29.459,29.459,0,0,0,1.357,7.131l-.759-.121q-3.443-3.812-3.443-7.187a6.584,6.584,0,0,1,2.046-4.951,6.938,6.938,0,0,1,5.017-1.937,5.408,5.408,0,0,1,.882-1.045,6,6,0,0,1,4.23-1.518,5.9,5.9,0,0,1,4.149,1.467,5.189,5.189,0,0,1,1.668,4.034,5.284,5.284,0,0,1-1.166,3.483h2.888v1.112h-4.162a6.352,6.352,0,0,1-3.445.895,5.789,5.789,0,0,1-4.162-1.519,5.466,5.466,0,0,1-1.626-4.081A5.793,5.793,0,0,1,355.043,1641.63Zm2.143,2.042a7.466,7.466,0,0,0,.677,3.416,2.878,2.878,0,0,0,2.767,1.737,2.839,2.839,0,0,0,2.712-1.737,7.6,7.6,0,0,0,.664-3.4,7.388,7.388,0,0,0-.677-3.388,2.9,2.9,0,0,0-2.767-1.709,2.844,2.844,0,0,0-2.7,1.722A7.349,7.349,0,0,0,357.186,1643.672Z" transform="translate(-348.4 -1629.018)" fill="#fff"/>
        <path id="Path_11416" data-name="Path 11416" d="M454.07,1642.453h6.67a3.116,3.116,0,0,1-.867-1.478,10.232,10.232,0,0,1-.121-1.94v-3.2a6.427,6.427,0,0,0-.123-1.586,1.2,1.2,0,0,0-1.194-.8v-.183a22.955,22.955,0,0,0,4.069-.854q-.149,2.1-.15,4.365v1.844a21.784,21.784,0,0,0,.1,2.751,2.3,2.3,0,0,0,1.467,2.075l-.013.108H454.07Zm.04,3.891a1.5,1.5,0,0,1,.462-1.118,1.542,1.542,0,0,1,1.124-.456,1.583,1.583,0,0,1,1.14.448,1.508,1.508,0,0,1,.46,1.126,1.446,1.446,0,0,1-.46,1.1,1.712,1.712,0,0,1-2.272,0A1.454,1.454,0,0,1,454.11,1646.343Zm3.667,0a1.505,1.505,0,0,1,.462-1.118,1.636,1.636,0,0,1,2.257,0,1.516,1.516,0,0,1,.455,1.125,1.442,1.442,0,0,1-.462,1.1,1.694,1.694,0,0,1-2.257,0,1.455,1.455,0,0,1-.447-1.108Z" transform="translate(-434.695 -1624.281)" fill="#fff"/>
        <path id="Path_11417" data-name="Path 11417" d="M520.6,1652.268h1.857v1.111h-1.833a4.7,4.7,0,0,1-1,2.915A3.884,3.884,0,0,1,516.4,1658a3.512,3.512,0,0,1-2.618-1.283l.638-2.384h.163q.594,2.995,1.925,3,1.8,0,1.833-4.7v-4.868a5.945,5.945,0,0,0-.121-1.533,1.144,1.144,0,0,0-1.139-.772v-.183a13.994,13.994,0,0,0,3.524-.842Q520.472,1646.585,520.6,1652.268Z" transform="translate(-483.457 -1634.095)" fill="#fff"/>
        <path id="Path_11418" data-name="Path 11418" d="M567.692,1620.77l-.935,2.169h-.15q-.827-3.428-4.951-3.43a2.83,2.83,0,0,0-2.264,1.219,3.98,3.98,0,0,0-.895,2.483q0,2.2,3.621,2.2h8.4q3.592,0,3.594,3.838v2.265H582v1.111H549.18v-1.111H571.6l-.015-3.282q0-1.722-3.077-1.722h-7q-5.534,0-5.534-3.011a3.968,3.968,0,0,1,1.723-3.363,6.077,6.077,0,0,1,3.7-1.126A12.413,12.413,0,0,1,567.692,1620.77Z" transform="translate(-511.543 -1613.337)" fill="#fff"/>
        <path id="Path_11419" data-name="Path 11419" d="M674.22,1606.283h3.159a2.555,2.555,0,0,1-1-2.428v-12.408a5.922,5.922,0,0,0-.121-1.531,1.158,1.158,0,0,0-1.14-.773v-.183a14.147,14.147,0,0,0,3.513-.84q-.125,1.911-.123,4.338v10.4a16.157,16.157,0,0,0,.163,2.536,2.4,2.4,0,0,0,1.262,1.993h-5.71Z" transform="translate(-604.122 -1588.111)" fill="#fff"/>
        <path id="Path_11420" data-name="Path 11420" d="M714.095,1607.421l-.015-.183a2.041,2.041,0,0,0,1.384-1.834,18.922,18.922,0,0,0,.094-2.508v-11.5a5.937,5.937,0,0,0-.121-1.531,1.164,1.164,0,0,0-1.154-.774v-.183a14.1,14.1,0,0,0,3.526-.84q-.121,1.91-.108,4.338v10.4q.106,2.184.149,2.549a2,2,0,0,0,1.37,1.872v.183q-1.284-.068-2.5-.068Q715.151,1607.353,714.095,1607.421Z" transform="translate(-636.674 -1588.07)" fill="#fff"/>
      </g>
    </g>
    <g id="Group_11420" data-name="Group 11420" transform="translate(88.942 26.939)">
      <path id="Path_11421" data-name="Path 11421" d="M777.554,1636.009a9.672,9.672,0,0,1-3.782-.55,6.766,6.766,0,0,1-1.953-1.65,7.354,7.354,0,0,1-1.925-5.317c.009-.379.013-.734.013-1.043a6.681,6.681,0,0,0-.244-2.508,1.667,1.667,0,0,0-1-.6v-.183q1.342.094,2.6.094.948,0,2.278-.094v.183a1.59,1.59,0,0,0-1.139.917,4.317,4.317,0,0,0-.271,1.573l.027,1.573a8.2,8.2,0,0,0,1.284,4.767,4.808,4.808,0,0,0,8.244,0,8.286,8.286,0,0,0,1.284-4.767q0-.786.013-1.573a4.132,4.132,0,0,0-.284-1.573,1.561,1.561,0,0,0-1.139-.917v-.183q1.342.094,2.4.094,1.259,0,2.589-.094v.183a1.666,1.666,0,0,0-.99.6,6.63,6.63,0,0,0-.244,2.508v1.043a6.914,6.914,0,0,1-2.141,5.5A7.913,7.913,0,0,1,777.554,1636.009Zm-1.467-14.766a1.506,1.506,0,0,1,.462-1.119,1.651,1.651,0,0,1,2.27,0,1.511,1.511,0,0,1,.455,1.126,1.449,1.449,0,0,1-.46,1.1,1.584,1.584,0,0,1-1.126.433,1.6,1.6,0,0,1-1.139-.427,1.435,1.435,0,0,1-.46-1.113Z" transform="translate(-768.66 -1611.074)" fill="#fff"/>
      <path id="Path_11422" data-name="Path 11422" d="M878.227,1572.77a4.6,4.6,0,0,1-.623,1.41,1.518,1.518,0,0,1-1.357.5,7.327,7.327,0,0,1-1.65-.352,1.081,1.081,0,0,0-.244-.028q-.746,0-1.912,1.357.489-2.118,1.844-2.116a2.61,2.61,0,0,1,.95.2,3.48,3.48,0,0,0,1.246.271A1.851,1.851,0,0,0,878.227,1572.77Zm-4.813,22.156-.014-.183a2.042,2.042,0,0,0,1.384-1.833,18.928,18.928,0,0,0,.094-2.508v-11.5a5.923,5.923,0,0,0-.121-1.531,1.163,1.163,0,0,0-1.153-.774v-.184a14.052,14.052,0,0,0,3.526-.84q-.125,1.912-.108,4.339v10.4q.107,2.184.148,2.548a2.007,2.007,0,0,0,1.37,1.873v.183q-1.284-.067-2.5-.068-1.575.009-2.631.077Z" transform="translate(-853.411 -1572.77)" fill="#fff"/>
      <path id="Path_11423" data-name="Path 11423" d="M919.482,1652.268h1.85v1.111H919.5a4.7,4.7,0,0,1-1,2.916,3.88,3.88,0,0,1-3.227,1.709,3.506,3.506,0,0,1-2.618-1.284l.638-2.384h.163q.6,2.995,1.925,3,1.8,0,1.845-4.7v-4.868a5.916,5.916,0,0,0-.123-1.533,1.146,1.146,0,0,0-1.138-.772v-.183a14.022,14.022,0,0,0,3.526-.841Q919.346,1646.586,919.482,1652.268Z" transform="translate(-886.249 -1631.291)" fill="#fff"/>
      <path id="Path_11424" data-name="Path 11424" d="M954.922,1614.894a5.02,5.02,0,0,1,1.722-3.974,6.056,6.056,0,0,1,4.136-1.422,5.877,5.877,0,0,1,4.149,1.477,5.143,5.143,0,0,1,1.667,4.014,5.022,5.022,0,0,1-2.277,4.488H977v1.112H939.05v-1.112H957.2a4.255,4.255,0,0,1-.678-.55A5.368,5.368,0,0,1,954.922,1614.894Zm2.4-9.058a1.485,1.485,0,0,1,.462-1.111,1.674,1.674,0,0,1,2.27,0,1.5,1.5,0,0,1,.455,1.119,1.447,1.447,0,0,1-.46,1.1,1.583,1.583,0,0,1-1.126.434,1.611,1.611,0,0,1-1.139-.427A1.438,1.438,0,0,1,957.322,1605.836Zm.068,9.113q0,3.3,1.533,4.528h3.77q1.505-1.247,1.5-4.516a7.477,7.477,0,0,0-.663-3.39,3.044,3.044,0,0,0-5.479.015A7.562,7.562,0,0,0,957.39,1614.949Zm3.933-9.113a1.481,1.481,0,0,1,.46-1.111,1.552,1.552,0,0,1,1.125-.447,1.588,1.588,0,0,1,1.139.44,1.48,1.48,0,0,1,.462,1.119,1.441,1.441,0,0,1-.462,1.1,1.712,1.712,0,0,1-2.272,0A1.446,1.446,0,0,1,961.323,1605.836Z" transform="translate(-903.965 -1598.501)" fill="#fff"/>
      <path id="Path_11425" data-name="Path 11425" d="M1038.51,1606.283h3.159a2.559,2.559,0,0,1-1-2.428v-12.408a5.927,5.927,0,0,0-.121-1.531,1.158,1.158,0,0,0-1.139-.774v-.183a14.13,14.13,0,0,0,3.511-.84q-.122,1.91-.123,4.338v10.4a16.137,16.137,0,0,0,.163,2.536,2.4,2.4,0,0,0,1.261,1.993h-5.708Z" transform="translate(-965.825 -1585.305)" fill="#fff"/>
      <path id="Path_11426" data-name="Path 11426" d="M1078.383,1607.421l-.013-.183a2.04,2.04,0,0,0,1.382-1.834,19.068,19.068,0,0,0,.1-2.508v-11.5a5.9,5.9,0,0,0-.123-1.531,1.164,1.164,0,0,0-1.153-.774v-.183a14.1,14.1,0,0,0,3.526-.84q-.121,1.91-.108,4.338v10.4c.072,1.456.123,2.305.149,2.549a2,2,0,0,0,1.37,1.872v.183q-1.284-.068-2.494-.068Q1079.441,1607.353,1078.383,1607.421Z" transform="translate(-998.378 -1585.265)" fill="#fff"/>
    </g>
    <g id="Group_11419" data-name="Group 11419" transform="translate(3.482 0)">
      <path id="Path_11427" data-name="Path 11427" d="M1141.631,1622.2h11.489a3.055,3.055,0,0,1-.99-1.478,9.2,9.2,0,0,1-.136-1.94v-3.2a5.788,5.788,0,0,0-.135-1.586,1.2,1.2,0,0,0-1.194-.8v-.183a22.93,22.93,0,0,0,4.069-.854q-.149,2.1-.149,4.366v1.844a22.175,22.175,0,0,0,.094,2.75,2.3,2.3,0,0,0,1.467,2.076l-.013.108h-16.319a13.869,13.869,0,0,1-4.554-.57,3.138,3.138,0,0,1-2.252-2.3,3.353,3.353,0,0,1-.068-.664,3.844,3.844,0,0,1,1.736-3.011,11.473,11.473,0,0,1,4.976-2.224,14.445,14.445,0,0,1,2.983-.284,12.048,12.048,0,0,1,2.821.366l-.312,2.807-.218.013a3.784,3.784,0,0,0-1.979-2.142,4.823,4.823,0,0,0-1.925-.382,6.646,6.646,0,0,0-1.3.136,5.263,5.263,0,0,0-2.658,1.283,3.867,3.867,0,0,0-1.262,2.616c0,.117-.013.231-.013.339a2.115,2.115,0,0,0,.652,1.681,3.742,3.742,0,0,0,1.4.814A15.632,15.632,0,0,0,1141.631,1622.2Zm-.121-13.018a1.516,1.516,0,0,1,.46-1.119,1.638,1.638,0,0,1,2.259,0,1.512,1.512,0,0,1,.453,1.124,1.443,1.443,0,0,1-.46,1.1,1.7,1.7,0,0,1-2.257,0A1.445,1.445,0,0,1,1141.51,1609.186Zm4,0a1.507,1.507,0,0,1,.462-1.119,1.635,1.635,0,0,1,2.257,0,1.511,1.511,0,0,1,.455,1.124,1.44,1.44,0,0,1-.462,1.1,1.7,1.7,0,0,1-2.257,0A1.447,1.447,0,0,1,1145.509,1609.186Z" transform="translate(-1132.94 -1604.039)" fill="#fff"/>
      <path id="Path_11428" data-name="Path 11428" d="M1269.465,1607.386l-.015-.108a2.039,2.039,0,0,0,1.385-1.833,19.129,19.129,0,0,0,.1-2.509v-11.5a5.9,5.9,0,0,0-.123-1.531,1.164,1.164,0,0,0-1.153-.774v-.183a14.093,14.093,0,0,0,3.526-.839q-.122,1.857-.109,4.338v13.818H1275v1.111h-5.532Z" transform="translate(-1244.422 -1588.11)" fill="#fff"/>
      <path id="Path_11429" data-name="Path 11429" d="M1314.625,1614.893a5.021,5.021,0,0,1,1.722-3.973,6.06,6.06,0,0,1,4.137-1.423,5.872,5.872,0,0,1,4.149,1.478,5.14,5.14,0,0,1,1.667,4.014,5.019,5.019,0,0,1-2.278,4.488h3.838v1.111h-70.6v-1.111H1316.9a4.333,4.333,0,0,1-.679-.55A5.368,5.368,0,0,1,1314.625,1614.893Zm2.4-9.058a1.485,1.485,0,0,1,.462-1.111,1.674,1.674,0,0,1,2.27,0,1.492,1.492,0,0,1,.454,1.119,1.448,1.448,0,0,1-.459,1.1,1.587,1.587,0,0,1-1.126.435,1.613,1.613,0,0,1-1.139-.427,1.437,1.437,0,0,1-.465-1.115Zm.068,9.113q0,3.3,1.533,4.529h3.77q1.5-1.249,1.5-4.516a7.46,7.46,0,0,0-.666-3.391,3.043,3.043,0,0,0-5.477.015,7.51,7.51,0,0,0-.669,3.363Zm3.933-9.113a1.489,1.489,0,0,1,.46-1.111,1.549,1.549,0,0,1,1.126-.447,1.583,1.583,0,0,1,1.139.44,1.48,1.48,0,0,1,.462,1.118,1.444,1.444,0,0,1-.462,1.1,1.713,1.713,0,0,1-2.272,0,1.447,1.447,0,0,1-.456-1.1Z" transform="translate(-1227.774 -1601.312)" fill="#fff"/>
      <path id="Path_11430" data-name="Path 11430" d="M1378.24,1642.453h5.667a3.147,3.147,0,0,1-.854-1.478,9.977,9.977,0,0,1-.123-1.94v-3.2a5.772,5.772,0,0,0-.135-1.586,1.2,1.2,0,0,0-1.192-.8v-.183a22.939,22.939,0,0,0,4.067-.854q-.149,2.1-.148,4.365v1.844a22.356,22.356,0,0,0,.093,2.751,2.3,2.3,0,0,0,1.467,2.075l-.013.108h-8.827Zm1.707,3.891a1.5,1.5,0,0,1,.462-1.118,1.637,1.637,0,0,1,2.257,0,1.516,1.516,0,0,1,.455,1.125,1.442,1.442,0,0,1-.462,1.1,1.7,1.7,0,0,1-2.257,0A1.454,1.454,0,0,1,1379.947,1646.343Z" transform="translate(-1278.508 -1624.288)" fill="#fff"/>
      <path id="Path_11431" data-name="Path 11431" d="M1436.823,1607.386l-.012-.108a2.039,2.039,0,0,0,1.382-1.833,18.935,18.935,0,0,0,.1-2.509v-11.5a5.887,5.887,0,0,0-.123-1.531,1.165,1.165,0,0,0-1.154-.774v-.183a14.089,14.089,0,0,0,3.527-.839q-.121,1.857-.108,4.338v13.818h1.925v1.111h-5.532Z" transform="translate(-1322.866 -1588.11)" fill="#fff"/>
      <path id="Path_11432" data-name="Path 11432" d="M1487.391,1648.919v1.112h-.651a3.914,3.914,0,0,1-3.239-1.247,3.764,3.764,0,0,1-3.242,1.316q-2.684-.1-3.471-3.172a4.668,4.668,0,0,1-.814,1.833,3.688,3.688,0,0,1-3.268,1.342q-2.7-.095-3.484-3.117a4.527,4.527,0,0,1-.8,1.777,3.9,3.9,0,0,1-3.267,1.284l-11.552-.015v-1.111l11.5.015a2.274,2.274,0,0,0,2.047-1.669,20.952,20.952,0,0,0,.163-3.646q0-2.672-1.342-3.107v-.183q1.043.069,2.383.067,1.521,0,2.468-.067l.014.183a1.761,1.761,0,0,0-1.207,1.357,8.08,8.08,0,0,0-.163,1.938v1.283a5.636,5.636,0,0,0,.611,2.551,2.259,2.259,0,0,0,2.1,1.3,4.619,4.619,0,0,0,.488-.028,2.224,2.224,0,0,0,2.033-1.65,21.232,21.232,0,0,0,.163-3.646q0-2.672-1.342-3.107v-.183q1.045.069,2.4.067,1.5,0,2.453-.067l.014.183a1.76,1.76,0,0,0-1.206,1.357,8.162,8.162,0,0,0-.164,1.938v1.283a5.645,5.645,0,0,0,.61,2.551,2.261,2.261,0,0,0,2.1,1.3,4.616,4.616,0,0,0,.488-.028,2.224,2.224,0,0,0,2.033-1.65,20.592,20.592,0,0,0,.163-3.646q0-2.7-1.355-3.107l.013-.183q1.262.069,2.549.067t2.3-.067l.014.183q-1.357.407-1.356,3.107v.733a14.483,14.483,0,0,0,.163,2.915,2.274,2.274,0,0,0,2.048,1.669Z" transform="translate(-1335.189 -1630.754)" fill="#fff"/>
      <path id="Path_11433" data-name="Path 11433" d="M1587.22,1647.2h8.308a5.441,5.441,0,0,1-1.194-3.594,5.006,5.006,0,0,1,1.722-3.958,6.123,6.123,0,0,1,4.149-1.425,5.881,5.881,0,0,1,4.136,1.467,5.7,5.7,0,0,1-.014,8.067,6.087,6.087,0,0,1-4.2,1.451,6.012,6.012,0,0,1-3.375-.917v.027h-9.529Zm9.6-3.516a7.586,7.586,0,0,0,.664,3.416,2.891,2.891,0,0,0,2.767,1.737,2.848,2.848,0,0,0,2.725-1.737,7.7,7.7,0,0,0,.651-3.4,7.534,7.534,0,0,0-.664-3.389,2.926,2.926,0,0,0-2.779-1.709,2.865,2.865,0,0,0-2.7,1.722A7.436,7.436,0,0,0,1596.817,1643.68Z" transform="translate(-1435.383 -1629.032)" fill="#fff"/>
    </g>
  </g>
  <g id="Group_11423" data-name="Group 11423" transform="translate(37.774)">
    <path id="Path_11410" data-name="Path 11410" d="M923.535,101l-1.718,5.043-5.327-.075,4.266,3.192-1.719,5.044,4.354-3.071,4.266,3.192-1.575-5.09,4.355-3.071-5.328-.075Z" transform="translate(-873.939 -101)" fill="#c9a969"/>
    <path id="Path_11411" data-name="Path 11411" d="M787.128,259.7l-.877,2.576-2.721-.039,2.179,1.631-.877,2.576,2.223-1.569,2.179,1.631-.8-2.6,2.223-1.568-2.721-.039Z" transform="translate(-751.045 -247.686)" fill="#c9a969"/>
    <path id="Path_11412" data-name="Path 11412" d="M1154.01,257.51l-.71,2.084-2.2-.031,1.762,1.319-.709,2.084,1.8-1.269,1.762,1.319-.651-2.1,1.8-1.268-2.2-.032Z" transform="translate(-1090.789 -245.662)" fill="#c9a969"/>
    <path id="Path_11413" data-name="Path 11413" d="M851.782,1016.019l-2.511-.919a7.094,7.094,0,0,0-5.8.418l-38.261,20.591c-.477.259-.955.514-1.435.77q-1.968,1.051-3.955,2.055a32.323,32.323,0,0,0-4.119,2.493,28.121,28.121,0,0,0-8.271,8.9,1.308,1.308,0,0,0,1.143,1.947h7.13a2.228,2.228,0,0,0,1.9-1.083,14.406,14.406,0,0,1,6.156-5.879s.009,0,.013-.005l.011.005a11.948,11.948,0,0,1,3.407,2.357,17.693,17.693,0,0,1,2.756,3.522,2.227,2.227,0,0,0,1.9,1.083h7.129a1.308,1.308,0,0,0,1.145-1.947,26.26,26.26,0,0,0-5.224-6.449,31.894,31.894,0,0,0-3.051-2.451q3.61-1.831,7.162-3.774l33.032-18.105a1.943,1.943,0,0,0-.267-3.529" transform="translate(-754.5 -945.502)" fill="#535353"/>
    <path id="Path_11414" data-name="Path 11414" d="M355.427,1019.551l33.034,18.107q1.81.985,3.634,1.949.712-.556,1.463-1.089a35.994,35.994,0,0,1,4.578-2.768c.577-.291,1.164-.592,1.768-.9L364,1015.52a7.1,7.1,0,0,0-5.8-.418l-2.511.919a1.943,1.943,0,0,0-.267,3.529" transform="translate(-354.417 -945.505)" fill="#535353"/>
    <path id="Path_11434" data-name="Path 11434" d="M1061.824,733l-39.091,23.556-3.813-2.989c.663-.727,1.287-1.424,1.922-2.106a90.218,90.218,0,0,1,8.716-8.42,29.315,29.315,0,0,1,8.086-4.447c3.008-1.167,6.081-2.164,9.115-3.262a24.841,24.841,0,0,0,7.343-3.914c.418-.339.782-.743,1.184-1.1.245-.217.243-.4.1-.7q-2.542-5.072-5.053-10.164c-.4-.8-.795-1.61-1.24-2.513.6.2,1.107.355,1.609.523,1.005.335,2.015.665,3.012,1.022a.892.892,0,0,1,.449.368q3.789,6.943,7.555,13.9c.037.069.063.141.108.241" transform="translate(-968.615 -670.321)" fill="#ce9b2b"/>
    <path id="Path_11435" data-name="Path 11435" d="M467.824,753.566c-1.238,1.027-2.432,2.018-3.643,3.028L425.09,733.03c.076-.16.138-.287.2-.409q3.693-6.808,7.4-13.607a1.22,1.22,0,0,1,.606-.521c1.461-.515,2.934-.992,4.507-1.514-.106.238-.172.4-.25.559q-2.995,6.043-6,12.08a.569.569,0,0,0,.109.776,16.63,16.63,0,0,0,5.741,3.818c2.322.957,4.716,1.741,7.086,2.585a62.628,62.628,0,0,1,10.1,4.373,24.345,24.345,0,0,1,5.171,4.012c2.668,2.666,5.254,5.413,7.873,8.128.064.066.112.151.195.256" transform="translate(-419.74 -670.348)" fill="#ce9b2b"/>
    <g id="Group_10254" data-name="Group 10254" transform="translate(14.552 15.039)">
      <path id="Path_11436" data-name="Path 11436" d="M615.886,720.393a14.521,14.521,0,0,1-5.006,3.213c-.006,0-.011.005-.016.005-2.038.812-4.133,1.47-6.208,2.185a67.492,67.492,0,0,0-8.809,3.661,43.807,43.807,0,0,0-12.692,9.859,11.041,11.041,0,0,0-.993,1.334c-.3.46-.55.953-.811,1.419-2.044-3.882-5.466-6.442-8.826-9.07a46.439,46.439,0,0,0-12.611-6.516c-2.233-.839-4.532-1.5-6.779-2.31-.437-.159-.874-.33-1.3-.517a17.889,17.889,0,0,1-4.251-2.548c-1.152-.942-1.146-.942-.488-2.236q2.368-4.674,4.74-9.337c.278-.545.55-1.089.833-1.634.085-.17.176-.334.255-.488.057-.005.091-.023.114-.011a64.239,64.239,0,0,0,9.938,4.133,51.58,51.58,0,0,1,11.392,5.5,16.451,16.451,0,0,1,5.71,5.943,33.233,33.233,0,0,1,1.311,3.139c.17-.522.363-1.277.659-1.986a15.329,15.329,0,0,1,5.006-6.17,42.918,42.918,0,0,1,9.69-5.284c1.532-.641,3.1-1.192,4.671-1.737a51.845,51.845,0,0,0,8.31-3.593c.076.13.159.244.221.363.3.606.618,1.215.926,1.822q2.562,5.067,5.148,10.12a.542.542,0,0,1-.125.738" transform="translate(-546.648 -676.487)" fill="#ce9b2b"/>
      <path id="Path_11437" data-name="Path 11437" d="M1089.149,405.914a5.229,5.229,0,1,1-5.2-5.255,5.229,5.229,0,0,1,5.2,5.255" transform="translate(-1038.413 -393.013)" fill="#ce9b2b"/>
      <path id="Path_11438" data-name="Path 11438" d="M964.536,329.992c-2.569,2.768-2.769,7.626-2.189,12.165-2.927.943-5.581,3.323-8.4,4.65-5.083-9.894-6.938-20.16-6.231-33.246.275-5.087,1.909-13.9,1.909-13.9l5.3,16.591c1.4,5.068,1.864,5.44,6.469,5.092,5.811-.439,23.371-3.836,23.371-3.836s-15.561,7.454-20.229,12.485" transform="translate(-917.218 -299.66)" fill="#ce9b2b"/>
      <path id="Path_11439" data-name="Path 11439" d="M601.212,517.071c1.548-3.747,3.167-9.614,0-11.938l-18.807-7.362,21.785.105,3.13-6.986v.012c0,.466-.061,13.762,3.482,25.467.319,1.027,1.907,5.557,2.28,6.586l-3.355-1.828a72.317,72.317,0,0,0-8.523-4.054" transform="translate(-579.703 -476.413)" fill="#ce9b2b"/>
      <path id="Path_11440" data-name="Path 11440" d="M788.6,483.427a2.625,2.625,0,1,1-2.613-2.638,2.625,2.625,0,0,1,2.613,2.638" transform="translate(-765.431 -467.078)" fill="#ce9b2b"/>
    </g>
  </g>
</svg>
