<svg id="islamic_vector" xmlns="http://www.w3.org/2000/svg" width="102.374" height="45.803" viewBox="0 0 102.374 45.803">
  <g id="Group_127" data-name="Group 127">
    <path id="shutterstock_498893479_Converted_copy" data-name="shutterstock_498893479 [Converted] copy" d="M108.243,86.04a41.947,41.947,0,0,0,.427-9.052l-.028-.6-.6-.028a41.977,41.977,0,0,0-9.052.427A43.451,43.451,0,0,0,92.9,70.1l-.455-.4-.455.4a41.951,41.951,0,0,0-6.092,6.69,42.254,42.254,0,0,0-9.081-.427l-.626.028-.028.6a41.974,41.974,0,0,0,.427,9.052,43.452,43.452,0,0,0-6.69,6.092l-.4.455.4.455a41.951,41.951,0,0,0,6.69,6.092,41.948,41.948,0,0,0-.427,9.052l.028.6.6.028c.142,0,1.2.085,2.676.085a37.506,37.506,0,0,0,6.377-.484,43.454,43.454,0,0,0,6.092,6.69l.455.4.455-.4a43.453,43.453,0,0,0,6.092-6.69,37.507,37.507,0,0,0,6.377.484c1.48,0,2.534-.057,2.676-.085l.6-.028.028-.6a41.97,41.97,0,0,0-.427-9.052,43.454,43.454,0,0,0,6.69-6.092l.4-.455-.4-.455A40.452,40.452,0,0,0,108.243,86.04Zm-.939-8.312a42.288,42.288,0,0,1-.342,7.515,8.245,8.245,0,0,0-3.985-1.366h-1.822V82.054a8.34,8.34,0,0,0-1.366-4.014A41.954,41.954,0,0,1,107.3,77.728Zm-6.149,11.244V85.243h1.822a7.574,7.574,0,0,1,3.729,1.423,7.607,7.607,0,0,1-1.623,3.644L103.8,91.591Zm3.9,5.893a7.607,7.607,0,0,1,1.623,3.644,7.574,7.574,0,0,1-3.729,1.423h-1.822V96.2l2.647-2.647ZM99.76,82.054v1.822H96.031l-2.647-2.647,1.281-1.281a7.606,7.606,0,0,1,3.644-1.623A7.649,7.649,0,0,1,99.76,82.054Zm-7.344-10.5A42.312,42.312,0,0,1,97.483,77.1a8.289,8.289,0,0,0-3.786,1.85l-1.281,1.281-1.281-1.281a8.3,8.3,0,0,0-3.786-1.85A40.41,40.41,0,0,1,92.416,71.55Zm-7.344,10.5a7.574,7.574,0,0,1,1.423-3.729,7.48,7.48,0,0,1,3.644,1.623l1.281,1.281-2.647,2.647H85.043V82.054Zm-7.544-4.327a42.289,42.289,0,0,1,7.515.342,8.245,8.245,0,0,0-1.366,3.985v1.822H81.854a8.151,8.151,0,0,0-3.985,1.366A39.838,39.838,0,0,1,77.528,77.728Zm2.22,12.611a7.606,7.606,0,0,1-1.623-3.644,7.574,7.574,0,0,1,3.729-1.423h1.822V89l-2.647,2.647Zm3.928,5.893V99.96H81.854a7.574,7.574,0,0,1-3.729-1.423,7.48,7.48,0,0,1,1.623-3.644l1.281-1.281ZM71.35,92.616A42.308,42.308,0,0,1,76.9,87.549a8.288,8.288,0,0,0,1.85,3.786l1.281,1.281L78.752,93.9a8.3,8.3,0,0,0-1.85,3.786A42.308,42.308,0,0,1,71.35,92.616ZM77.528,107.5a42.291,42.291,0,0,1,.342-7.515,8.245,8.245,0,0,0,3.985,1.366h1.822v1.822a8.15,8.15,0,0,0,1.366,3.985A42.388,42.388,0,0,1,77.528,107.5Zm7.544-4.355v-1.822H88.8l2.619,2.619-1.281,1.281a7.606,7.606,0,0,1-3.644,1.623A7.392,7.392,0,0,1,85.071,103.148Zm7.344,10.5a42.31,42.31,0,0,1-5.067-5.551,8.039,8.039,0,0,0,3.786-1.879l1.281-1.281,1.281,1.281a8.611,8.611,0,0,0,3.786,1.879A38.917,38.917,0,0,1,92.416,113.652Zm7.344-10.5a7.574,7.574,0,0,1-1.423,3.729,7.606,7.606,0,0,1-3.644-1.623l-1.281-1.281,2.619-2.619H99.76Zm0-5.523V99.96h-4.3l-1.395,1.395-1.651,1.651-1.651-1.651L89.37,99.96h-4.3v-4.3l-1.395-1.395-1.651-1.651,1.651-1.651,1.395-1.395v-4.3h4.3l1.395-1.395,1.651-1.651,1.651,1.651,1.395,1.395h4.3v4.3l1.395,1.395,1.651,1.651-1.651,1.651L99.76,95.662ZM107.3,107.5a42.286,42.286,0,0,1-7.515-.342,8.245,8.245,0,0,0,1.366-4.014v-1.822h1.822a8.15,8.15,0,0,0,3.985-1.366A42.7,42.7,0,0,1,107.3,107.5Zm.626-9.821a8.289,8.289,0,0,0-1.85-3.786L104.8,92.616l1.281-1.281a8.3,8.3,0,0,0,1.85-3.786,42.311,42.311,0,0,1,5.551,5.067A42.311,42.311,0,0,1,107.93,97.683Z" transform="translate(-41.257 -69.7)" fill="#38b4c8"/>
    <line id="Line_12" data-name="Line 12" x1="23.374" transform="translate(0 23.114)" fill="none" stroke="#38b4c8" stroke-width="1.5"/>
    <line id="Line_13" data-name="Line 13" x1="23.374" transform="translate(79 23.114)" fill="none" stroke="#38b4c8" stroke-width="1.5"/>
  </g>
  <g id="Group_128" data-name="Group 128">
    <path id="shutterstock_498893479_Converted_copy-2" data-name="shutterstock_498893479 [Converted] copy" d="M108.243,86.04a41.947,41.947,0,0,0,.427-9.052l-.028-.6-.6-.028a41.977,41.977,0,0,0-9.052.427A43.451,43.451,0,0,0,92.9,70.1l-.455-.4-.455.4a41.951,41.951,0,0,0-6.092,6.69,42.254,42.254,0,0,0-9.081-.427l-.626.028-.028.6a41.974,41.974,0,0,0,.427,9.052,43.452,43.452,0,0,0-6.69,6.092l-.4.455.4.455a41.951,41.951,0,0,0,6.69,6.092,41.948,41.948,0,0,0-.427,9.052l.028.6.6.028c.142,0,1.2.085,2.676.085a37.506,37.506,0,0,0,6.377-.484,43.454,43.454,0,0,0,6.092,6.69l.455.4.455-.4a43.453,43.453,0,0,0,6.092-6.69,37.507,37.507,0,0,0,6.377.484c1.48,0,2.534-.057,2.676-.085l.6-.028.028-.6a41.97,41.97,0,0,0-.427-9.052,43.454,43.454,0,0,0,6.69-6.092l.4-.455-.4-.455A40.452,40.452,0,0,0,108.243,86.04Zm-.939-8.312a42.288,42.288,0,0,1-.342,7.515,8.245,8.245,0,0,0-3.985-1.366h-1.822V82.054a8.34,8.34,0,0,0-1.366-4.014A41.954,41.954,0,0,1,107.3,77.728Zm-6.149,11.244V85.243h1.822a7.574,7.574,0,0,1,3.729,1.423,7.607,7.607,0,0,1-1.623,3.644L103.8,91.591Zm3.9,5.893a7.607,7.607,0,0,1,1.623,3.644,7.574,7.574,0,0,1-3.729,1.423h-1.822V96.2l2.647-2.647ZM99.76,82.054v1.822H96.031l-2.647-2.647,1.281-1.281a7.606,7.606,0,0,1,3.644-1.623A7.649,7.649,0,0,1,99.76,82.054Zm-7.344-10.5A42.312,42.312,0,0,1,97.483,77.1a8.289,8.289,0,0,0-3.786,1.85l-1.281,1.281-1.281-1.281a8.3,8.3,0,0,0-3.786-1.85A40.41,40.41,0,0,1,92.416,71.55Zm-7.344,10.5a7.574,7.574,0,0,1,1.423-3.729,7.48,7.48,0,0,1,3.644,1.623l1.281,1.281-2.647,2.647H85.043V82.054Zm-7.544-4.327a42.289,42.289,0,0,1,7.515.342,8.245,8.245,0,0,0-1.366,3.985v1.822H81.854a8.151,8.151,0,0,0-3.985,1.366A39.838,39.838,0,0,1,77.528,77.728Zm2.22,12.611a7.606,7.606,0,0,1-1.623-3.644,7.574,7.574,0,0,1,3.729-1.423h1.822V89l-2.647,2.647Zm3.928,5.893V99.96H81.854a7.574,7.574,0,0,1-3.729-1.423,7.48,7.48,0,0,1,1.623-3.644l1.281-1.281ZM71.35,92.616A42.308,42.308,0,0,1,76.9,87.549a8.288,8.288,0,0,0,1.85,3.786l1.281,1.281L78.752,93.9a8.3,8.3,0,0,0-1.85,3.786A42.308,42.308,0,0,1,71.35,92.616ZM77.528,107.5a42.291,42.291,0,0,1,.342-7.515,8.245,8.245,0,0,0,3.985,1.366h1.822v1.822a8.15,8.15,0,0,0,1.366,3.985A42.388,42.388,0,0,1,77.528,107.5Zm7.544-4.355v-1.822H88.8l2.619,2.619-1.281,1.281a7.606,7.606,0,0,1-3.644,1.623A7.392,7.392,0,0,1,85.071,103.148Zm7.344,10.5a42.31,42.31,0,0,1-5.067-5.551,8.039,8.039,0,0,0,3.786-1.879l1.281-1.281,1.281,1.281a8.611,8.611,0,0,0,3.786,1.879A38.917,38.917,0,0,1,92.416,113.652Zm7.344-10.5a7.574,7.574,0,0,1-1.423,3.729,7.606,7.606,0,0,1-3.644-1.623l-1.281-1.281,2.619-2.619H99.76Zm0-5.523V99.96h-4.3l-1.395,1.395-1.651,1.651-1.651-1.651L89.37,99.96h-4.3v-4.3l-1.395-1.395-1.651-1.651,1.651-1.651,1.395-1.395v-4.3h4.3l1.395-1.395,1.651-1.651,1.651,1.651,1.395,1.395h4.3v4.3l1.395,1.395,1.651,1.651-1.651,1.651L99.76,95.662ZM107.3,107.5a42.286,42.286,0,0,1-7.515-.342,8.245,8.245,0,0,0,1.366-4.014v-1.822h1.822a8.15,8.15,0,0,0,3.985-1.366A42.7,42.7,0,0,1,107.3,107.5Zm.626-9.821a8.289,8.289,0,0,0-1.85-3.786L104.8,92.616l1.281-1.281a8.3,8.3,0,0,0,1.85-3.786,42.311,42.311,0,0,1,5.551,5.067A42.311,42.311,0,0,1,107.93,97.683Z" transform="translate(-41.257 -69.7)" fill="#38b4c8"/>
    <line id="Line_12-2" data-name="Line 12" x1="23.374" transform="translate(0 23.114)" fill="none" stroke="#38b4c8" stroke-width="1.5"/>
    <line id="Line_13-2" data-name="Line 13" x1="23.374" transform="translate(79 23.114)" fill="none" stroke="#38b4c8" stroke-width="1.5"/>
  </g>
</svg>
