<svg xmlns="http://www.w3.org/2000/svg" width="817.68" height="818.189" viewBox="0 0 817.68 818.189">
  <path id="shutterstock_498893479_Converted_copy" data-name="shutterstock_498893479 [Converted] copy" d="M761.579,361.584c13.221-73.225,8.136-156.112,7.628-161.706L768.7,189.2l-10.679-.508c-5.085-.509-88.48-5.594-161.705,7.628C553.6,135.3,491.561,80.379,487.493,76.819L479.357,69.7l-8.136,7.119c-4.068,3.56-66.614,58.478-108.82,119.5-73.733-13.221-157.129-8.136-162.214-7.628L189,189.2l-.509,10.679c-.508,5.085-5.594,88.48,7.628,161.705C135.1,404.3,80.179,466.336,76.619,470.4L69.5,478.54l7.119,8.136c3.56,4.068,58.478,66.615,119.5,108.821-13.221,73.225-8.136,156.112-7.628,161.705L189,767.881l10.679.508c2.542,0,21.357,1.526,47.8,1.526,31.527,0,74.242-1.526,113.906-8.645C404.1,822.292,466.136,877.211,470.2,880.77l8.136,7.119,8.136-7.119c4.068-3.56,66.106-58.478,108.821-119.5,39.664,7.119,82.378,8.645,113.906,8.645,26.442,0,45.257-1.017,47.8-1.526l10.679-.508.509-10.679c.509-5.085,5.594-88.48-7.628-161.705,61.021-42.715,115.94-104.753,119.5-108.821l7.119-8.136-7.119-8.136C877.518,466.845,822.6,404.3,761.579,361.584ZM744.8,213.1c1.526,32.544,1.017,85.938-6.1,134.246-24.917-14.746-49.325-24.408-71.191-24.408H634.96V290.392c0-21.866-9.662-46.783-24.408-71.7C658.86,211.574,712.253,211.574,744.8,213.1ZM634.96,413.96V347.345H667.5c19.323,0,42.715,10.17,66.614,25.425-6.1,27.459-15.255,51.359-28.985,65.089l-22.883,22.883Zm69.666,105.261c13.73,13.729,22.883,37.63,28.985,65.089-23.9,15.255-47.291,25.425-66.615,25.425H634.452V543.121l47.291-47.292ZM610.043,290.392v32.545H543.429l-47.291-47.291,22.883-22.883c13.73-13.73,37.629-22.883,65.089-28.985C599.365,247.678,610.043,271.069,610.043,290.392Zm-131.2-187.639c23.9,21.866,61.529,60,90.515,99.159-27.968,7.119-52.376,17.8-67.632,33.053l-22.883,22.883-22.883-22.883c-15.764-15.764-40.172-25.934-67.632-33.053C416.811,162.757,454.949,124.619,478.848,102.753ZM347.654,290.392c0-19.323,10.17-42.715,25.425-66.615,27.968,6.1,51.359,15.256,65.089,28.985l22.883,22.883L413.76,322.937H347.145V290.392ZM212.9,213.1c32.544-1.526,85.938-1.017,134.246,6.1-14.747,24.917-24.408,49.325-24.408,71.191v32.545H290.192c-21.866,0-46.783,9.662-71.191,24.408C211.374,299.037,211.374,245.135,212.9,213.1Zm39.664,225.269c-13.73-13.73-22.883-37.63-28.985-65.089,23.9-15.255,47.291-25.425,66.614-25.425h32.545v66.615L275.446,461.76Zm70.174,105.261v66.615H290.192c-19.323,0-42.714-10.17-66.614-25.425,6.1-27.968,15.255-51.359,28.985-65.089l22.883-22.883ZM102.553,479.049c21.866-23.9,60-61.53,99.159-90.514,7.119,27.968,17.8,52.376,33.053,67.632l22.883,22.883-22.883,22.883C219,517.7,208.831,542.1,201.712,569.563,162.557,540.578,124.419,502.949,102.553,479.049ZM212.9,745c-1.526-32.544-1.017-85.938,6.1-134.246,24.917,14.747,49.325,24.408,71.191,24.408h32.545v32.545c0,21.866,9.662,46.783,24.408,71.191C298.837,746.016,244.935,746.524,212.9,745Zm134.755-77.8V634.652h66.614l46.783,46.783-22.883,22.883c-13.73,13.73-37.629,22.883-65.089,28.985C357.824,709.911,347.654,686.52,347.654,667.2Zm131.195,187.64c-23.9-21.866-61.529-60-90.514-99.159,27.968-7.119,52.376-17.8,67.632-33.562l22.883-22.883,22.883,22.883c15.764,15.764,40.172,25.934,67.632,33.562C540.378,795.341,502.748,833.479,478.848,854.836Zm131.2-187.64c0,19.323-10.17,42.715-25.425,66.615-27.459-6.1-51.359-15.255-65.089-28.985l-22.883-22.883,46.783-46.783h66.615Zm0-98.651v41.7H533.259l-24.917,24.917-29.494,29.493-29.493-29.493-24.917-24.917H347.654V533.459l-24.917-24.917-29.493-29.493,29.493-29.494,24.917-24.917V347.854h76.785l24.917-24.917,29.493-29.494,29.494,29.494,24.917,24.917h76.784v76.785l24.917,24.917,29.494,29.494L634.96,508.542l-24.917,24.917ZM744.8,745c-32.544,1.525-85.938,1.017-134.246-6.1,14.747-24.917,24.408-49.325,24.408-71.7V634.652H667.5c21.866,0,46.783-9.662,71.191-24.408C745.815,659.061,746.323,712.454,744.8,745Zm11.187-175.435c-7.119-27.968-17.8-52.376-33.053-67.632l-22.883-22.883,22.883-22.883c15.764-15.764,25.934-40.172,33.053-67.632,39.155,28.985,77.293,66.615,99.159,90.514C833.278,502.949,795.14,540.578,755.985,569.563Z" transform="translate(-69.5 -69.7)" fill="#fff" opacity="0.07"/>
</svg>
