<svg xmlns="http://www.w3.org/2000/svg" width="184" height="184.115" viewBox="0 0 184 184.115">
  <path id="shutterstock_498893479_Converted_copy" data-name="shutterstock_498893479 [Converted] copy" d="M225.236,135.382c2.975-16.478,1.831-35.129,1.716-36.388l-.114-2.4-2.4-.114c-1.144-.114-19.91-1.259-36.388,1.716C178.436,84.461,164.475,72.1,163.56,71.3l-1.831-1.6L159.9,71.3c-.915.8-14.99,13.159-24.488,26.891-16.592-2.975-35.358-1.831-36.5-1.716l-2.517.114-.114,2.4c-.114,1.144-1.259,19.91,1.717,36.388C84.261,144.994,71.9,158.954,71.1,159.869L69.5,161.7l1.6,1.831c.8.915,13.159,14.99,26.891,24.488-2.975,16.478-1.831,35.129-1.717,36.388l.114,2.4,2.4.114c.572,0,4.806.343,10.756.343a150.764,150.764,0,0,0,25.632-1.945c9.612,13.731,23.572,26.09,24.488,26.891l1.831,1.6,1.831-1.6c.915-.8,14.876-13.159,24.488-26.891a150.765,150.765,0,0,0,25.632,1.945c5.95,0,10.184-.229,10.756-.343l2.4-.114.115-2.4c.115-1.144,1.259-19.91-1.716-36.388,13.731-9.612,26.089-23.572,26.891-24.488l1.6-1.831-1.6-1.831C251.326,159.068,238.968,144.994,225.236,135.382Zm-3.776-33.413a169.986,169.986,0,0,1-1.373,30.209c-5.607-3.318-11.1-5.493-16.02-5.493h-7.323v-7.323c0-4.92-2.174-10.527-5.493-16.134A168.641,168.641,0,0,1,221.46,101.969Zm-24.716,45.2v-14.99h7.323c4.348,0,9.612,2.288,14.99,5.721-1.373,6.179-3.433,11.557-6.522,14.647l-5.149,5.149Zm15.677,23.687c3.089,3.089,5.149,8.468,6.522,14.647-5.378,3.433-10.642,5.721-14.99,5.721h-7.323v-14.99l10.642-10.642Zm-21.284-51.493v7.323h-14.99L165.5,116.043l5.149-5.149c3.09-3.09,8.468-5.149,14.647-6.522C188.734,109.75,191.137,115.013,191.137,119.362ZM161.615,77.138a170.086,170.086,0,0,1,20.368,22.313c-6.293,1.6-11.786,4.005-15.219,7.438l-5.149,5.149-5.149-5.149c-3.547-3.547-9.04-5.836-15.219-7.438A162.439,162.439,0,0,1,161.615,77.138Zm-29.522,42.224c0-4.348,2.289-9.612,5.721-14.99,6.294,1.373,11.557,3.433,14.647,6.522l5.149,5.149-10.642,10.642h-14.99v-7.323Zm-30.323-17.393a169.988,169.988,0,0,1,30.209,1.373c-3.318,5.607-5.493,11.1-5.493,16.02v7.323h-7.323c-4.92,0-10.527,2.174-16.02,5.493A160.135,160.135,0,0,1,101.769,101.969Zm8.925,50.691c-3.089-3.089-5.149-8.468-6.522-14.647,5.378-3.433,10.642-5.721,14.99-5.721h7.323v14.99l-10.642,10.642Zm15.791,23.687v14.99h-7.323c-4.348,0-9.612-2.289-14.99-5.721,1.373-6.294,3.433-11.557,6.522-14.647l5.149-5.149ZM76.938,161.814a170.059,170.059,0,0,1,22.313-20.368c1.6,6.294,4,11.786,7.438,15.219l5.149,5.149-5.149,5.149c-3.547,3.547-5.836,9.04-7.438,15.219A170.078,170.078,0,0,1,76.938,161.814Zm24.831,59.846a170,170,0,0,1,1.373-30.209c5.607,3.318,11.1,5.492,16.02,5.492h7.323v7.323c0,4.92,2.174,10.527,5.493,16.02A170.385,170.385,0,0,1,101.769,221.66Zm30.323-17.507v-7.323h14.99l10.527,10.527-5.149,5.149c-3.089,3.089-8.468,5.149-14.647,6.522C134.381,213.765,132.092,208.5,132.092,204.153Zm29.522,42.224a170.081,170.081,0,0,1-20.368-22.313c6.294-1.6,11.786-4.005,15.219-7.552l5.149-5.149,5.149,5.149c3.547,3.547,9.04,5.836,15.219,7.552A156.443,156.443,0,0,1,161.615,246.377Zm29.522-42.224c0,4.348-2.289,9.612-5.721,14.99-6.179-1.373-11.557-3.433-14.647-6.522l-5.149-5.149,10.527-10.527h14.99Zm0-22.2v9.383H173.858l-5.607,5.607-6.637,6.637-6.637-6.637-5.607-5.607H132.092V174.058l-5.607-5.607-6.637-6.637,6.637-6.637,5.607-5.607V132.292h17.279l5.607-5.607,6.637-6.637,6.637,6.637,5.607,5.607h17.279v17.279l5.607,5.607,6.637,6.637-6.637,6.637-5.607,5.607ZM221.46,221.66a169.977,169.977,0,0,1-30.209-1.373c3.318-5.607,5.493-11.1,5.493-16.134v-7.323h7.323c4.921,0,10.527-2.174,16.02-5.492A171.63,171.63,0,0,1,221.46,221.66Zm2.518-39.478c-1.6-6.293-4.005-11.786-7.438-15.219l-5.149-5.149,5.149-5.149c3.547-3.547,5.836-9.04,7.438-15.219a170.07,170.07,0,0,1,22.313,20.368A170.09,170.09,0,0,1,223.978,182.183Z" transform="translate(-69.5 -69.7)" fill="rgba(56,180,200,0.09)"/>
</svg>
