<svg id="logo" xmlns="http://www.w3.org/2000/svg" width="158.032" height="78" viewBox="0 0 158.032 78">
  <g id="Group_10205" data-name="Group 10205" transform="translate(0 15.782)">
    <path id="Path_11415" data-name="Path 11415" d="M353.253,1640.708q-2.773.227-2.774,4.537a21.522,21.522,0,0,0,.991,5.209l-.555-.088q-2.515-2.785-2.516-5.251a4.81,4.81,0,0,1,1.495-3.617,5.069,5.069,0,0,1,3.665-1.415,3.949,3.949,0,0,1,.644-.764,4.387,4.387,0,0,1,3.09-1.109,4.31,4.31,0,0,1,3.031,1.072,3.791,3.791,0,0,1,1.219,2.947,3.861,3.861,0,0,1-.852,2.545h2.11v.812h-3.041a4.639,4.639,0,0,1-2.517.654,4.228,4.228,0,0,1-3.04-1.109,3.993,3.993,0,0,1-1.188-2.981A4.232,4.232,0,0,1,353.253,1640.708Zm1.566,1.492a5.454,5.454,0,0,0,.494,2.5,2.1,2.1,0,0,0,2.021,1.269,2.074,2.074,0,0,0,1.981-1.269,5.557,5.557,0,0,0,.485-2.486,5.4,5.4,0,0,0-.494-2.475,2.116,2.116,0,0,0-2.021-1.249,2.078,2.078,0,0,0-1.972,1.258A5.368,5.368,0,0,0,354.819,1642.2Z" transform="translate(-348.374 -1591.691)" fill="#363636"/>
    <path id="Path_11416" data-name="Path 11416" d="M454.07,1639.746h4.873a2.276,2.276,0,0,1-.634-1.08,7.476,7.476,0,0,1-.088-1.417v-2.337a4.693,4.693,0,0,0-.09-1.159.878.878,0,0,0-.872-.586v-.134a16.767,16.767,0,0,0,2.972-.624q-.109,1.535-.11,3.189v1.348a15.915,15.915,0,0,0,.07,2.009,1.682,1.682,0,0,0,1.072,1.516l-.009.079H454.07Zm.03,2.842a1.1,1.1,0,0,1,.338-.817,1.126,1.126,0,0,1,.821-.333,1.156,1.156,0,0,1,.833.327,1.1,1.1,0,0,1,.336.822,1.056,1.056,0,0,1-.336.8,1.251,1.251,0,0,1-1.66,0A1.063,1.063,0,0,1,454.1,1642.588Zm2.679,0a1.1,1.1,0,0,1,.338-.817,1.2,1.2,0,0,1,1.649,0,1.108,1.108,0,0,1,.332.822,1.054,1.054,0,0,1-.338.8,1.238,1.238,0,0,1-1.649,0,1.063,1.063,0,0,1-.327-.809Z" transform="translate(-439.889 -1586.668)" fill="#363636"/>
    <path id="Path_11417" data-name="Path 11417" d="M518.765,1650.156h1.357v.812h-1.339a3.432,3.432,0,0,1-.733,2.13,2.837,2.837,0,0,1-2.357,1.248,2.565,2.565,0,0,1-1.913-.937l.466-1.741h.119q.434,2.188,1.406,2.188,1.316,0,1.339-3.437v-3.556a4.345,4.345,0,0,0-.088-1.12.836.836,0,0,0-.832-.564v-.134a10.233,10.233,0,0,0,2.574-.615Q518.669,1646,518.765,1650.156Z" transform="translate(-491.602 -1597.078)" fill="#363636"/>
    <path id="Path_11418" data-name="Path 11418" d="M562.7,1620.3l-.683,1.584h-.11q-.6-2.5-3.617-2.506a2.067,2.067,0,0,0-1.654.891,2.907,2.907,0,0,0-.654,1.814q0,1.607,2.645,1.607h6.136q2.624,0,2.625,2.8v1.654h5.764v.812H537.18v-.812h28.38l-.011-2.4q0-1.258-2.248-1.258h-5.114q-4.043,0-4.042-2.2a2.9,2.9,0,0,1,1.259-2.457,4.44,4.44,0,0,1,2.7-.822A9.069,9.069,0,0,1,562.7,1620.3Z" transform="translate(-510.766 -1575.063)" fill="#363636"/>
    <path id="Path_11419" data-name="Path 11419" d="M674.22,1601.389h2.308a1.867,1.867,0,0,1-.733-1.773v-9.064a4.326,4.326,0,0,0-.089-1.119.846.846,0,0,0-.833-.565v-.134a10.33,10.33,0,0,0,2.566-.614q-.091,1.4-.09,3.169v7.6a11.806,11.806,0,0,0,.119,1.853,1.755,1.755,0,0,0,.922,1.456H674.22Z" transform="translate(-612.092 -1548.311)" fill="#363636"/>
    <path id="Path_11420" data-name="Path 11420" d="M714.091,1602.206l-.011-.134a1.491,1.491,0,0,0,1.011-1.339,13.83,13.83,0,0,0,.068-1.832v-8.4a4.338,4.338,0,0,0-.088-1.118.85.85,0,0,0-.843-.565v-.134a10.292,10.292,0,0,0,2.576-.614q-.088,1.4-.079,3.169v7.6q.078,1.6.108,1.862a1.463,1.463,0,0,0,1,1.367v.134q-.938-.05-1.823-.049Q714.862,1602.157,714.091,1602.206Z" transform="translate(-646.613 -1548.267)" fill="#363636"/>
    <path id="Path_11421" data-name="Path 11421" d="M775.157,1631.607a7.067,7.067,0,0,1-2.763-.4,4.941,4.941,0,0,1-1.426-1.206,5.371,5.371,0,0,1-1.407-3.884c.007-.277.009-.536.009-.762a4.88,4.88,0,0,0-.178-1.832,1.217,1.217,0,0,0-.733-.437v-.134q.98.069,1.9.069.693,0,1.664-.069v.134a1.161,1.161,0,0,0-.832.67,3.153,3.153,0,0,0-.2,1.149l.02,1.149a5.989,5.989,0,0,0,.938,3.483,3.513,3.513,0,0,0,6.022,0,6.054,6.054,0,0,0,.938-3.483q0-.574.009-1.149a3.018,3.018,0,0,0-.208-1.149,1.141,1.141,0,0,0-.832-.67v-.134q.981.069,1.753.069.92,0,1.891-.069v.134a1.216,1.216,0,0,0-.724.437,4.842,4.842,0,0,0-.178,1.832v.762a5.051,5.051,0,0,1-1.564,4.019A5.781,5.781,0,0,1,775.157,1631.607Zm-1.071-10.787a1.1,1.1,0,0,1,.337-.817,1.206,1.206,0,0,1,1.658,0,1.1,1.1,0,0,1,.332.823,1.058,1.058,0,0,1-.336.8,1.157,1.157,0,0,1-.822.316,1.17,1.17,0,0,1-.832-.312,1.048,1.048,0,0,1-.336-.813Z" transform="translate(-768.657 -1594.712)" fill="#363636"/>
    <path id="Path_11422" data-name="Path 11422" d="M876.667,1572.77a3.362,3.362,0,0,1-.456,1.03,1.109,1.109,0,0,1-.991.367,5.348,5.348,0,0,1-1.205-.257.783.783,0,0,0-.178-.02q-.545,0-1.4.991.357-1.547,1.347-1.546a1.9,1.9,0,0,1,.694.149,2.545,2.545,0,0,0,.911.2A1.352,1.352,0,0,0,876.667,1572.77Zm-3.516,16.186-.01-.134a1.492,1.492,0,0,0,1.011-1.339,13.827,13.827,0,0,0,.068-1.832v-8.4a4.323,4.323,0,0,0-.089-1.118.85.85,0,0,0-.842-.565v-.134a10.271,10.271,0,0,0,2.576-.614q-.091,1.4-.079,3.169v7.6q.078,1.6.108,1.862a1.466,1.466,0,0,0,1,1.368v.134q-.938-.049-1.823-.05-1.151.007-1.922.056Z" transform="translate(-858.536 -1554.091)" fill="#363636"/>
    <path id="Path_11423" data-name="Path 11423" d="M917.641,1650.156h1.351v.812h-1.339a3.432,3.432,0,0,1-.733,2.13,2.834,2.834,0,0,1-2.357,1.249,2.562,2.562,0,0,1-1.913-.938l.466-1.741h.119q.435,2.188,1.407,2.189,1.315,0,1.347-3.437v-3.556a4.325,4.325,0,0,0-.09-1.12.837.837,0,0,0-.832-.564v-.134a10.248,10.248,0,0,0,2.576-.615Q917.542,1646,917.641,1650.156Z" transform="translate(-893.36 -1616.152)" fill="#363636"/>
    <path id="Path_11424" data-name="Path 11424" d="M950.645,1612.033a3.667,3.667,0,0,1,1.258-2.9,4.425,4.425,0,0,1,3.022-1.039,4.293,4.293,0,0,1,3.031,1.079,3.757,3.757,0,0,1,1.218,2.932,3.668,3.668,0,0,1-1.664,3.279h9.264v.812H928.05v-.812h24.26a3.106,3.106,0,0,1-.5-.4A3.921,3.921,0,0,1,950.645,1612.033Zm1.753-6.617a1.085,1.085,0,0,1,.338-.812,1.223,1.223,0,0,1,1.658,0,1.093,1.093,0,0,1,.332.817,1.058,1.058,0,0,1-.336.8,1.157,1.157,0,0,1-.822.317,1.177,1.177,0,0,1-.832-.312A1.051,1.051,0,0,1,952.4,1605.416Zm.05,6.657q0,2.411,1.12,3.308h2.754a4.106,4.106,0,0,0,1.1-3.3,5.462,5.462,0,0,0-.485-2.476,2.224,2.224,0,0,0-4,.011A5.524,5.524,0,0,0,952.448,1612.073Zm2.873-6.657a1.082,1.082,0,0,1,.336-.812,1.133,1.133,0,0,1,.822-.327,1.16,1.16,0,0,1,.832.321,1.081,1.081,0,0,1,.338.817,1.052,1.052,0,0,1-.338.8,1.251,1.251,0,0,1-1.66,0A1.056,1.056,0,0,1,955.321,1605.416Z" transform="translate(-904.525 -1581.379)" fill="#363636"/>
    <path id="Path_11425" data-name="Path 11425" d="M1038.51,1601.389h2.308a1.869,1.869,0,0,1-.734-1.774v-9.064a4.325,4.325,0,0,0-.089-1.118.846.846,0,0,0-.832-.565v-.134a10.326,10.326,0,0,0,2.565-.614q-.089,1.4-.09,3.169v7.6a11.8,11.8,0,0,0,.119,1.853,1.756,1.756,0,0,0,.922,1.456h-4.17Z" transform="translate(-976.518 -1567.385)" fill="#363636"/>
    <path id="Path_11426" data-name="Path 11426" d="M1078.379,1602.206l-.009-.134a1.49,1.49,0,0,0,1.01-1.339,13.907,13.907,0,0,0,.07-1.832v-8.4a4.305,4.305,0,0,0-.09-1.118.85.85,0,0,0-.843-.565v-.134a10.293,10.293,0,0,0,2.576-.614q-.089,1.4-.079,3.169v7.6c.052,1.064.09,1.684.109,1.862a1.463,1.463,0,0,0,1,1.367v.134q-.938-.05-1.822-.049Q1079.152,1602.157,1078.379,1602.206Z" transform="translate(-1011.039 -1567.342)" fill="#363636"/>
    <path id="Path_11427" data-name="Path 11427" d="M1139.289,1618.273h8.393a2.233,2.233,0,0,1-.723-1.08,6.727,6.727,0,0,1-.1-1.417v-2.337a4.221,4.221,0,0,0-.1-1.159.875.875,0,0,0-.872-.586v-.134a16.763,16.763,0,0,0,2.973-.624q-.109,1.535-.109,3.189v1.348a16.209,16.209,0,0,0,.068,2.009,1.682,1.682,0,0,0,1.071,1.516l-.009.079h-11.921a10.128,10.128,0,0,1-3.327-.417,2.292,2.292,0,0,1-1.645-1.684,2.445,2.445,0,0,1-.05-.485,2.808,2.808,0,0,1,1.269-2.2,8.381,8.381,0,0,1,3.635-1.625,10.555,10.555,0,0,1,2.179-.207,8.816,8.816,0,0,1,2.061.268l-.228,2.051-.159.009a2.764,2.764,0,0,0-1.445-1.565,3.523,3.523,0,0,0-1.406-.279,4.863,4.863,0,0,0-.951.1,3.847,3.847,0,0,0-1.942.938,2.826,2.826,0,0,0-.922,1.911c0,.086-.009.169-.009.248a1.545,1.545,0,0,0,.476,1.228,2.734,2.734,0,0,0,1.021.595A11.423,11.423,0,0,0,1139.289,1618.273Zm-.088-9.51a1.106,1.106,0,0,1,.336-.817,1.2,1.2,0,0,1,1.65,0,1.1,1.1,0,0,1,.331.821,1.054,1.054,0,0,1-.336.8,1.238,1.238,0,0,1-1.649,0A1.055,1.055,0,0,1,1139.2,1608.762Zm2.921,0a1.1,1.1,0,0,1,.338-.817,1.2,1.2,0,0,1,1.649,0,1.1,1.1,0,0,1,.332.821,1.051,1.051,0,0,1-.337.8,1.238,1.238,0,0,1-1.649,0A1.057,1.057,0,0,1,1142.122,1608.762Z" transform="translate(-1132.94 -1605.003)" fill="#363636"/>
    <path id="Path_11428" data-name="Path 11428" d="M1269.461,1602.192l-.011-.079a1.489,1.489,0,0,0,1.011-1.339,13.947,13.947,0,0,0,.07-1.833v-8.4a4.312,4.312,0,0,0-.09-1.119.851.851,0,0,0-.843-.565v-.134a10.292,10.292,0,0,0,2.576-.613q-.089,1.357-.079,3.169v10.094h1.406v.812h-4.041Z" transform="translate(-1251.165 -1588.11)" fill="#363636"/>
    <path id="Path_11429" data-name="Path 11429" d="M1299.166,1612.032a3.668,3.668,0,0,1,1.258-2.9,4.427,4.427,0,0,1,3.022-1.039,4.29,4.29,0,0,1,3.031,1.079,3.755,3.755,0,0,1,1.218,2.932,3.667,3.667,0,0,1-1.664,3.279h2.8v.812H1297.8v-.812h3.031a3.161,3.161,0,0,1-.5-.4A3.921,3.921,0,0,1,1299.166,1612.032Zm1.753-6.617a1.085,1.085,0,0,1,.337-.812,1.223,1.223,0,0,1,1.659,0,1.091,1.091,0,0,1,.332.817,1.058,1.058,0,0,1-.336.8,1.158,1.158,0,0,1-.823.318,1.179,1.179,0,0,1-.832-.312,1.05,1.05,0,0,1-.34-.815Zm.049,6.657q0,2.411,1.12,3.308h2.754a4.112,4.112,0,0,0,1.1-3.3,5.45,5.45,0,0,0-.486-2.477,2.223,2.223,0,0,0-4,.011,5.486,5.486,0,0,0-.489,2.457Zm2.873-6.657a1.087,1.087,0,0,1,.336-.812,1.131,1.131,0,0,1,.822-.327,1.156,1.156,0,0,1,.832.321,1.081,1.081,0,0,1,.338.817,1.054,1.054,0,0,1-.338.8,1.251,1.251,0,0,1-1.66,0,1.057,1.057,0,0,1-.333-.8Z" transform="translate(-1275.718 -1602.111)" fill="#363636"/>
    <path id="Path_11430" data-name="Path 11430" d="M1378.24,1639.746h4.14a2.3,2.3,0,0,1-.624-1.08,7.3,7.3,0,0,1-.09-1.417v-2.337a4.21,4.21,0,0,0-.1-1.159.875.875,0,0,0-.871-.586v-.134a16.758,16.758,0,0,0,2.971-.624q-.109,1.535-.109,3.189v1.348a16.329,16.329,0,0,0,.068,2.009,1.683,1.683,0,0,0,1.072,1.516l-.009.079h-6.448Zm1.247,2.842a1.1,1.1,0,0,1,.338-.817,1.2,1.2,0,0,1,1.649,0,1.108,1.108,0,0,1,.332.822,1.054,1.054,0,0,1-.338.8,1.238,1.238,0,0,1-1.649,0A1.063,1.063,0,0,1,1379.487,1642.588Z" transform="translate(-1345.383 -1626.476)" fill="#363636"/>
    <path id="Path_11431" data-name="Path 11431" d="M1436.819,1602.192l-.009-.079a1.49,1.49,0,0,0,1.01-1.339,13.845,13.845,0,0,0,.07-1.833v-8.4a4.3,4.3,0,0,0-.09-1.119.851.851,0,0,0-.843-.565v-.134a10.289,10.289,0,0,0,2.576-.613q-.089,1.357-.079,3.169v10.094h1.406v.812h-4.041Z" transform="translate(-1396.108 -1588.11)" fill="#363636"/>
    <path id="Path_11432" data-name="Path 11432" d="M1482.285,1646.6v.812h-.476a2.86,2.86,0,0,1-2.366-.911,2.749,2.749,0,0,1-2.368.961,2.631,2.631,0,0,1-2.536-2.317,3.408,3.408,0,0,1-.594,1.339,2.694,2.694,0,0,1-2.387.98,2.62,2.62,0,0,1-2.545-2.277,3.308,3.308,0,0,1-.585,1.3,2.849,2.849,0,0,1-2.387.938h-.911v-.812H1466a1.661,1.661,0,0,0,1.5-1.219,15.312,15.312,0,0,0,.119-2.664q0-1.952-.98-2.269v-.134q.762.051,1.741.049,1.111,0,1.8-.049l.01.134a1.286,1.286,0,0,0-.881.992,5.906,5.906,0,0,0-.119,1.416v.937a4.115,4.115,0,0,0,.446,1.863,1.65,1.65,0,0,0,1.535.951,3.375,3.375,0,0,0,.357-.02,1.625,1.625,0,0,0,1.485-1.205,15.522,15.522,0,0,0,.119-2.664q0-1.952-.981-2.269v-.134q.764.051,1.753.049,1.1,0,1.792-.049l.01.134a1.285,1.285,0,0,0-.881.992,5.95,5.95,0,0,0-.12,1.416v.937a4.122,4.122,0,0,0,.446,1.863,1.651,1.651,0,0,0,1.535.951,3.37,3.37,0,0,0,.356-.02,1.625,1.625,0,0,0,1.485-1.205,15.058,15.058,0,0,0,.119-2.664q0-1.971-.99-2.269l.009-.134q.922.051,1.862.049t1.684-.049l.011.134q-.991.3-.991,2.269v.536a10.575,10.575,0,0,0,.119,2.13,1.661,1.661,0,0,0,1.5,1.219Z" transform="translate(-1420.635 -1633.335)" fill="#363636"/>
    <path id="Path_11433" data-name="Path 11433" d="M1591.22,1644.777h2.069a3.974,3.974,0,0,1-.872-2.625,3.657,3.657,0,0,1,1.258-2.892,4.472,4.472,0,0,1,3.031-1.041,4.3,4.3,0,0,1,3.022,1.072,4.162,4.162,0,0,1-.01,5.893,4.447,4.447,0,0,1-3.07,1.06,4.392,4.392,0,0,1-2.466-.67v.02h-2.961Zm3.011-2.569a5.541,5.541,0,0,0,.485,2.5,2.111,2.111,0,0,0,2.021,1.269,2.08,2.08,0,0,0,1.991-1.269,5.628,5.628,0,0,0,.475-2.486,5.5,5.5,0,0,0-.485-2.475,2.137,2.137,0,0,0-2.031-1.249,2.093,2.093,0,0,0-1.971,1.258A5.433,5.433,0,0,0,1594.231,1642.209Z" transform="translate(-1529.836 -1631.508)" fill="#363636"/>
  </g>
  <g id="Group_10204" data-name="Group 10204" transform="translate(86.032)">
    <path id="Path_11410" data-name="Path 11410" d="M921.636,101l-1.255,3.684-3.892-.055,3.116,2.332-1.255,3.685,3.181-2.243,3.116,2.332-1.15-3.719,3.181-2.243-3.892-.055Z" transform="translate(-885.406 -101)" fill="#c9a969"/>
    <path id="Path_11411" data-name="Path 11411" d="M786.159,259.7l-.641,1.882-1.988-.029,1.592,1.191-.641,1.882,1.624-1.146,1.592,1.191-.587-1.9,1.624-1.145-1.988-.028Z" transform="translate(-759.799 -250.923)" fill="#c9a969"/>
    <path id="Path_11412" data-name="Path 11412" d="M1153.226,257.51l-.519,1.523-1.608-.023,1.287.963-.518,1.523,1.315-.927,1.287.963-.476-1.536,1.315-.926-1.609-.023Z" transform="translate(-1107.041 -248.855)" fill="#c9a969"/>
    <path id="Path_11413" data-name="Path 11413" d="M834.4,1015.656l-1.834-.672a5.182,5.182,0,0,0-4.233.305l-27.951,15.042c-.348.189-.7.375-1.048.562q-1.438.768-2.889,1.5a23.624,23.624,0,0,0-3.009,1.821,20.544,20.544,0,0,0-6.042,6.5.956.956,0,0,0,.835,1.422h5.209a1.627,1.627,0,0,0,1.39-.792,10.524,10.524,0,0,1,4.5-4.295s.007,0,.009,0l.008,0a8.728,8.728,0,0,1,2.489,1.722,12.922,12.922,0,0,1,2.013,2.573,1.627,1.627,0,0,0,1.39.792h5.208a.956.956,0,0,0,.836-1.422,19.189,19.189,0,0,0-3.816-4.711,23.316,23.316,0,0,0-2.229-1.791q2.637-1.337,5.232-2.757l24.131-13.227a1.419,1.419,0,0,0-.2-2.578" transform="translate(-763.33 -964.141)" fill="#535353"/>
    <path id="Path_11414" data-name="Path 11414" d="M355.155,1018.236l24.132,13.227q1.322.719,2.655,1.424.52-.406,1.069-.8a26.3,26.3,0,0,1,3.344-2.022c.421-.213.85-.432,1.292-.661l-26.229-14.117a5.185,5.185,0,0,0-4.233-.305l-1.834.671a1.419,1.419,0,0,0-.2,2.578" transform="translate(-354.417 -964.144)" fill="#535353"/>
    <path id="Path_11434" data-name="Path 11434" d="M1050.262,728.677l-28.557,17.209-2.785-2.183c.484-.531.94-1.04,1.4-1.538a65.9,65.9,0,0,1,6.367-6.151,21.415,21.415,0,0,1,5.907-3.249c2.2-.852,4.442-1.581,6.658-2.383a18.149,18.149,0,0,0,5.364-2.859c.306-.248.571-.543.865-.8.179-.159.178-.3.071-.508q-1.857-3.705-3.692-7.425c-.292-.587-.581-1.176-.906-1.835.438.143.809.259,1.176.382.734.245,1.472.486,2.2.747a.652.652,0,0,1,.328.269q2.768,5.072,5.519,10.153c.027.05.046.1.079.176" transform="translate(-982.171 -682.886)" fill="#b59357"/>
    <path id="Path_11435" data-name="Path 11435" d="M456.308,743.707c-.9.75-1.777,1.474-2.661,2.212L425.09,728.705c.055-.117.1-.21.149-.3q2.7-4.973,5.4-9.94a.892.892,0,0,1,.442-.381c1.067-.376,2.144-.725,3.293-1.106-.077.174-.125.293-.183.408q-2.188,4.415-4.386,8.825a.416.416,0,0,0,.08.567,12.149,12.149,0,0,0,4.194,2.789c1.7.7,3.445,1.272,5.176,1.889a45.756,45.756,0,0,1,7.375,3.194,17.785,17.785,0,0,1,3.778,2.931c1.949,1.948,3.838,3.955,5.752,5.938.046.048.082.11.142.187" transform="translate(-421.182 -682.914)" fill="#b59357"/>
    <g id="Group_10254" data-name="Group 10254" transform="translate(10.631 10.987)">
      <path id="Path_11436" data-name="Path 11436" d="M597.228,716.878a10.608,10.608,0,0,1-3.657,2.347s-.008,0-.012,0c-1.489.593-3.019,1.074-4.535,1.6a49.312,49.312,0,0,0-6.435,2.675,32,32,0,0,0-9.272,7.2,8.062,8.062,0,0,0-.726.974c-.221.336-.4.7-.593,1.036-1.493-2.836-3.993-4.706-6.448-6.626a33.925,33.925,0,0,0-9.213-4.76c-1.631-.613-3.311-1.094-4.953-1.687-.32-.116-.639-.241-.949-.378a13.071,13.071,0,0,1-3.105-1.861c-.842-.688-.837-.688-.357-1.634q1.73-3.414,3.463-6.821c.2-.4.4-.8.608-1.194.062-.125.128-.244.186-.357.042,0,.066-.017.083-.008a46.923,46.923,0,0,0,7.26,3.019,37.678,37.678,0,0,1,8.322,4.021,12.019,12.019,0,0,1,4.171,4.341,24.293,24.293,0,0,1,.958,2.293c.124-.382.265-.933.481-1.451a11.2,11.2,0,0,1,3.657-4.507,31.353,31.353,0,0,1,7.079-3.86c1.119-.469,2.267-.871,3.412-1.269a37.878,37.878,0,0,0,6.071-2.625c.055.1.116.178.161.265.221.442.452.888.676,1.331q1.872,3.7,3.761,7.393a.4.4,0,0,1-.091.539" transform="translate(-546.648 -684.804)" fill="#c9a969"/>
      <path id="Path_11437" data-name="Path 11437" d="M1086.331,404.5a3.82,3.82,0,1,1-3.8-3.839,3.82,3.82,0,0,1,3.8,3.839" transform="translate(-1049.267 -395.074)" fill="#c9a969"/>
      <path id="Path_11438" data-name="Path 11438" d="M959.964,321.818c-1.876,2.022-2.023,5.571-1.6,8.887-2.138.689-4.077,2.428-6.139,3.4-3.713-7.228-5.068-14.727-4.552-24.287.2-3.716,1.395-10.155,1.395-10.155l3.871,12.12c1.025,3.7,1.362,3.974,4.726,3.72,4.245-.321,17.073-2.8,17.073-2.8s-11.368,5.445-14.777,9.121" transform="translate(-925.397 -299.66)" fill="#c9a969"/>
      <path id="Path_11439" data-name="Path 11439" d="M596.146,510.016c1.131-2.737,2.313-7.023,0-8.721l-13.739-5.378,15.915.077,2.287-5.1v.009a71.994,71.994,0,0,0,2.544,18.6c.233.75,1.393,4.06,1.666,4.811l-2.451-1.336a52.826,52.826,0,0,0-6.226-2.961" transform="translate(-580.432 -480.314)" fill="#c9a969"/>
      <path id="Path_11440" data-name="Path 11440" d="M787.186,482.716a1.918,1.918,0,1,1-1.909-1.927,1.918,1.918,0,0,1,1.909,1.927" transform="translate(-770.26 -470.773)" fill="#c9a969"/>
    </g>
  </g>
</svg>
