<svg xmlns="http://www.w3.org/2000/svg" width="33.357" height="37.667" viewBox="0 0 33.357 37.667">
  <g id="marker" transform="translate(-29.291)">
    <path id="Path_19711" data-name="Path 19711" d="M45.97,90.579a3.472,3.472,0,1,0,3.472,3.472A3.476,3.476,0,0,0,45.97,90.579Zm11.311,21.249a35.384,35.384,0,0,0-6.133-1.1c-2.209,3.335-4.117,5.755-4.306,5.994a1.114,1.114,0,0,1-1.745,0c-.189-.239-2.1-2.659-4.306-5.994a35.384,35.384,0,0,0-6.133,1.1c-3.561,1.015-5.367,2.43-5.367,4.206s1.806,3.192,5.367,4.206a43.084,43.084,0,0,0,11.311,1.341,43.09,43.09,0,0,0,11.311-1.341c3.562-1.015,5.367-2.43,5.367-4.206S60.842,112.843,57.281,111.828Z" transform="translate(0 -83.915)" fill="#3a3a3a"/>
    <path id="Path_19712" data-name="Path 19712" d="M128.367,0a10.147,10.147,0,0,0-10.135,10.135c0,2.983,1.887,7.592,5.456,13.33,1.813,2.914,3.639,5.434,4.679,6.821,1.043-1.391,2.876-3.921,4.69-6.84,3.562-5.729,5.445-10.332,5.445-13.311A10.147,10.147,0,0,0,128.367,0Zm0,15.834a5.7,5.7,0,1,1,5.7-5.7A5.706,5.706,0,0,1,128.367,15.834Z" transform="translate(-82.398)" fill="#3a3a3a"/>
  </g>
</svg>
