<svg xmlns="http://www.w3.org/2000/svg" width="70.979" height="77.035" viewBox="0 0 70.979 77.035">
  <g id="megaphone_2_" data-name="megaphone (2)" transform="matrix(0.966, -0.259, 0.259, 0.966, -4.018, 16.279)">
    <g id="Group_10467" data-name="Group 10467" transform="translate(0 15.524)">
      <g id="Group_10466" data-name="Group 10466" transform="translate(0 0)">
        <path id="Path_11771" data-name="Path 11771" d="M31.448,23.987V0c-.68.063-1.352.169-2.036.2H9.827A1.966,1.966,0,0,0,7.862,2.166V4.131h-5.9A1.966,1.966,0,0,0,0,6.1V17.89a1.966,1.966,0,0,0,1.965,1.965h5.9v1.965a1.966,1.966,0,0,0,1.965,1.966h1.191l7.9,21.062a3.909,3.909,0,0,0,2.893,2.445,3.848,3.848,0,0,0,3.55-1.081l4.721-4.682a3.922,3.922,0,0,0,.723-4.548l-6.6-13.2h5.22C30.108,23.818,30.776,23.924,31.448,23.987Z" fill="#38b4c8"/>
      </g>
    </g>
    <g id="Group_10469" data-name="Group 10469" transform="translate(35.379 0)">
      <g id="Group_10468" data-name="Group 10468" transform="translate(0 0)">
        <path id="Path_11772" data-name="Path 11772" d="M27.195.951a1.393,1.393,0,0,0-.126-.185,1.942,1.942,0,0,0-.822-.629c-.012,0-.02-.02-.031-.024-.039-.012-.075.008-.114,0a1.955,1.955,0,0,0-.55-.11,1.827,1.827,0,0,0-.381.079,2.176,2.176,0,0,0-.22.043,1.951,1.951,0,0,0-.861.558c-.016.016-.039.02-.055.035A41.363,41.363,0,0,1,0,14.957V40.08A41.357,41.357,0,0,1,24.034,54.319c.016.02.043.028.063.051a1.906,1.906,0,0,0,.487.377c.059.035.106.086.165.114a2.023,2.023,0,0,0,.8.173,2.053,2.053,0,0,0,.664-.114c.012,0,.02-.02.031-.024a1.911,1.911,0,0,0,.822-.629c.047-.063.083-.118.126-.185a1.9,1.9,0,0,0,.322-1.014V1.965A1.9,1.9,0,0,0,27.195.951Z" fill="#38b4c8"/>
      </g>
    </g>
  </g>
</svg>
