<svg id="microphone" xmlns="http://www.w3.org/2000/svg" width="62.106" height="70.373" viewBox="0 0 62.106 70.373">
  <path id="Path_11784" data-name="Path 11784" d="M222.882,112.108l15.471,15.471,5.356-4.282-16.554-16.554Z" transform="translate(-196.307 -92.036)" fill="#38b4c8"/>
  <path id="Path_11785" data-name="Path 11785" d="M78.037,320.825H37.912a3.779,3.779,0,0,1-2.672-6.451l4.169-4.169,3.345,3.345,8.72-6.972L40.163,295.267,33.206,304l3.28,3.28-4.169,4.169a7.915,7.915,0,0,0,5.595,13.507H78.037Z" transform="translate(-30 -254.586)" fill="#38b4c8"/>
  <path id="Path_11786" data-name="Path 11786" d="M122.571,183.4l11.968,11.968,14.075-11.255L133.8,169.3Z" transform="translate(-109.817 -145.978)" fill="#38b4c8"/>
  <path id="Path_11787" data-name="Path 11787" d="M284.159,29.761a15.293,15.293,0,1,0-19.4-19.4Z" transform="translate(-232.41 0.001)" fill="#38b4c8"/>
</svg>
