<svg id="reading-quran" xmlns="http://www.w3.org/2000/svg" width="80.938" height="58.802" viewBox="0 0 80.938 58.802">
  <path id="Path_11249" data-name="Path 11249" d="M80.786,85.69,65.261,60.229A1.035,1.035,0,0,0,64,59.8l-1.856.723-.261-.427a1.525,1.525,0,0,0-1.856-.627L40.468,67.094,20.908,59.472a1.525,1.525,0,0,0-1.856.627l-.261.427L16.935,59.8a1.035,1.035,0,0,0-1.259.426L.151,85.691a1.035,1.035,0,0,0,.5,1.5l21.328,8.776-2.072,21.009a1.035,1.035,0,0,0,1.023,1.194h2.585a1.036,1.036,0,0,0,.586-.182l16.366-11.241,16.366,11.241a1.035,1.035,0,0,0,.586.182H60a1.035,1.035,0,0,0,1.023-1.194L58.956,95.967l21.328-8.776a1.035,1.035,0,0,0,.5-1.5Zm-39.49,7.8V80.246a.828.828,0,1,0-1.656,0V93.494L9.536,81.563,20.991,62.778l18.924,7.373a1.526,1.526,0,0,0,1.107,0l18.924-7.373L71.4,81.563Z" transform="translate(0.001 -59.368)" fill="#38b4c8"/>
  <path id="Path_11250" data-name="Path 11250" d="M231.364,104.907a.828.828,0,0,0-1.072-.471L218.079,109.2a.828.828,0,1,0,.6,1.543l12.213-4.761A.828.828,0,0,0,231.364,104.907Z" transform="translate(-172.518 -95.062)" fill="#38b4c8"/>
  <path id="Path_11251" data-name="Path 11251" d="M227.808,131.182a.828.828,0,1,0,.6,1.543l12.213-4.761a.828.828,0,0,0-.6-1.543Z" transform="translate(-180.233 -112.496)" fill="#38b4c8"/>
  <path id="Path_11252" data-name="Path 11252" d="M237.845,156.27a.828.828,0,0,0,1.072.471l12.213-4.761a.828.828,0,0,0-.6-1.543L238.315,155.2A.828.828,0,0,0,237.845,156.27Z" transform="translate(-188.565 -131.54)" fill="#38b4c8"/>
  <path id="Path_11253" data-name="Path 11253" d="M119.788,109.2l-12.213-4.761a.828.828,0,1,0-.6,1.543l12.213,4.761a.828.828,0,0,0,.6-1.543Z" transform="translate(-84.411 -95.063)" fill="#38b4c8"/>
  <path id="Path_11254" data-name="Path 11254" d="M110.06,131.182l-12.213-4.761a.828.828,0,1,0-.6,1.543l12.213,4.761a.828.828,0,0,0,.6-1.543Z" transform="translate(-76.697 -112.496)" fill="#38b4c8"/>
  <path id="Path_11255" data-name="Path 11255" d="M99.552,155.2l-12.213-4.761a.828.828,0,0,0-.6,1.543l12.213,4.761a.828.828,0,0,0,.6-1.543Z" transform="translate(-68.364 -131.541)" fill="#38b4c8"/>
</svg>
