<svg id="target_3_" data-name="target (3)" xmlns="http://www.w3.org/2000/svg" width="71.563" height="71.566" viewBox="0 0 71.563 71.566">
  <g id="Group_10479" data-name="Group 10479" transform="translate(29.072 0)">
    <g id="Group_10478" data-name="Group 10478" transform="translate(0 0)">
      <path id="Path_11777" data-name="Path 11777" d="M250.325,8.093a2.236,2.236,0,0,0-2.066-1.382h-4.473V2.238a2.239,2.239,0,0,0-3.82-1.583l-6.709,6.709a2.252,2.252,0,0,0-.653,1.583v5.783L208.657,38.673a2.239,2.239,0,0,0,3.167,3.167l23.943-23.947h5.783a2.252,2.252,0,0,0,1.583-.653l6.709-6.709A2.249,2.249,0,0,0,250.325,8.093Z" transform="translate(-208.003 0)" fill="#38b4c8"/>
    </g>
  </g>
  <g id="Group_10481" data-name="Group 10481" transform="translate(13.418 22.366)">
    <g id="Group_10480" data-name="Group 10480">
      <path id="Path_11778" data-name="Path 11778" d="M130.4,170.995l-7.626,7.653A8.923,8.923,0,1,1,113.437,169l7.51-7.537a17.91,17.91,0,1,0,9.451,9.527Z" transform="translate(-96.011 -160.014)" fill="#38b4c8"/>
    </g>
  </g>
  <g id="Group_10483" data-name="Group 10483" transform="translate(0 8.947)">
    <g id="Group_10482" data-name="Group 10482" transform="translate(0)">
      <path id="Path_11779" data-name="Path 11779" d="M57.7,78.5,51.1,85.116a22.1,22.1,0,0,1,2.581,10.207A22.364,22.364,0,1,1,31.32,72.96,22.073,22.073,0,0,1,41.643,75.6L48.227,69A31.4,31.4,0,1,0,57.7,78.5Z" transform="translate(-0.011 -64.014)" fill="#38b4c8"/>
    </g>
  </g>
</svg>
