<svg id="teamwork_1_" data-name="teamwork (1)" xmlns="http://www.w3.org/2000/svg" width="68.713" height="68.896" viewBox="0 0 68.713 68.896">
  <g id="Group_10485" data-name="Group 10485" transform="translate(25.912 0)">
    <g id="Group_10484" data-name="Group 10484" transform="translate(0)">
      <ellipse id="Ellipse_1204" data-name="Ellipse 1204" cx="8.3" cy="8.715" rx="8.3" ry="8.715" fill="#38b4c8"/>
    </g>
  </g>
  <g id="Group_10487" data-name="Group 10487" transform="translate(21.473 21.657)">
    <g id="Group_10486" data-name="Group 10486">
      <path id="Path_11780" data-name="Path 11780" d="M185.75,179.055,183.8,163.87A4.278,4.278,0,0,0,179.532,160h-2.353a2.163,2.163,0,0,0-1.52.627l-2.774,2.774-2.774-2.774a2.163,2.163,0,0,0-1.52-.627H166.24a4.268,4.268,0,0,0-4.269,3.809l-1.954,15.245a2.151,2.151,0,0,0,2.13,2.418h2.319l1.8,21.9a4.279,4.279,0,0,0,4.273,3.865h4.7a4.293,4.293,0,0,0,4.277-3.9l1.791-21.863h2.315a2.142,2.142,0,0,0,1.61-.73A2.115,2.115,0,0,0,185.75,179.055Z" transform="translate(-160 -160.005)" fill="#38b4c8"/>
    </g>
  </g>
  <g id="Group_10489" data-name="Group 10489" transform="translate(47.492 0)">
    <g id="Group_10488" data-name="Group 10488" transform="translate(0)">
      <ellipse id="Ellipse_1205" data-name="Ellipse 1205" cx="8.3" cy="8.715" rx="8.3" ry="8.715" fill="#38b4c8"/>
    </g>
  </g>
  <g id="Group_10491" data-name="Group 10491" transform="translate(4.294 0.184)">
    <g id="Group_10490" data-name="Group 10490" transform="translate(0 0)">
      <path id="Path_11781" data-name="Path 11781" d="M40.588.005a8.589,8.589,0,1,0,8.589,8.589A8.6,8.6,0,0,0,40.588.005Z" transform="translate(-31.999 -0.005)" fill="#38b4c8"/>
    </g>
  </g>
  <g id="Group_10493" data-name="Group 10493" transform="translate(47.785 21.657)">
    <g id="Group_10492" data-name="Group 10492">
      <path id="Path_11782" data-name="Path 11782" d="M376.973,179.055l-1.95-15.181a4.275,4.275,0,0,0-4.269-3.869H368.4a2.162,2.162,0,0,0-1.52.627l-2.774,2.774-2.774-2.774a2.16,2.16,0,0,0-1.516-.627h-2.353a4.091,4.091,0,0,0-.76.142,8.358,8.358,0,0,1,1.117,3.229l1.945,15.134a6.426,6.426,0,0,1-1.572,5.093,6.226,6.226,0,0,1-2.13,1.512l1.426,13.97a4.279,4.279,0,0,0,4.273,3.865h4.7a4.293,4.293,0,0,0,4.277-3.9l1.787-17.569h2.315a2.142,2.142,0,0,0,1.61-.73A2.115,2.115,0,0,0,376.973,179.055Z" transform="translate(-356.063 -160.005)" fill="#38b4c8"/>
    </g>
  </g>
  <g id="Group_10495" data-name="Group 10495" transform="translate(0 21.657)">
    <g id="Group_10494" data-name="Group 10494" transform="translate(0)">
      <path id="Path_11783" data-name="Path 11783" d="M18.784,183.582a6.432,6.432,0,0,1-1.555-5.063l1.954-15.25a7.939,7.939,0,0,1,1.069-3.126,4.039,4.039,0,0,0-.721-.137H17.177a2.163,2.163,0,0,0-1.52.627l-2.774,2.774-2.774-2.774A2.16,2.16,0,0,0,8.593,160H6.239a4.268,4.268,0,0,0-4.269,3.809L.016,179.06a2.151,2.151,0,0,0,2.13,2.418H4.466l1.8,17.607a4.279,4.279,0,0,0,4.273,3.865h4.7a4.293,4.293,0,0,0,4.277-3.9l1.426-13.936A6.44,6.44,0,0,1,18.784,183.582Z" transform="translate(0.001 -160.005)" fill="#38b4c8"/>
    </g>
  </g>
</svg>
