<svg xmlns="http://www.w3.org/2000/svg" width="23.568" height="26.463" viewBox="0 0 23.568 26.463"><defs><style>.a{fill:#fff;}</style></defs><g transform="translate(0)"><path class="a" d="M51.54,25.483l-2.1-7.67a.775.775,0,0,0-.3-.427l-5.074-3.614a6,6,0,0,0,1.7-4.174A27.232,27.232,0,0,0,45.7,5.732,5.668,5.668,0,0,0,39.9,0h-.241a5.668,5.668,0,0,0-5.8,5.732A27.233,27.233,0,0,0,33.8,9.6a6,6,0,0,0,1.7,4.174l-5.074,3.614a.775.775,0,0,0-.3.427l-2.1,7.67a.776.776,0,0,0,.748.98H39.009V18.27l.775-.509.775.509v8.193H50.793A.776.776,0,0,0,51.54,25.483ZM39.278,2.512H40.29a.775.775,0,0,1,0,1.551H39.278a.775.775,0,1,1,0-1.551Zm-.269,13.9L37.3,17.535,35.029,16.01l1.742-1.24a5.964,5.964,0,0,0,2.238.761Zm.775-2.385A4.436,4.436,0,0,1,35.347,9.6c0-.555,0-1.015,0-1.4l.417.608a.775.775,0,0,0,.64.337h6.764a.775.775,0,0,0,.64-.337l.417-.608c0,.385,0,.844,0,1.4A4.435,4.435,0,0,1,39.784,14.029Zm.775,2.385V15.53a5.958,5.958,0,0,0,2.238-.761l1.742,1.24-2.275,1.526ZM46.37,23.16H43.652a.775.775,0,1,1,0-1.551H46.37a.775.775,0,0,1,0,1.551Z" transform="translate(-28)"/></g></svg>