<svg xmlns="http://www.w3.org/2000/svg" width="31.999" height="25.039" viewBox="0 0 31.999 25.039"><defs><style>.a{fill:#fff;}</style></defs><g transform="translate(0 0)"><path class="a" d="M.746,90.938H3.983a.745.745,0,0,0,.745-.745V79.863a.745.745,0,0,0-.745-.745H.746A.745.745,0,0,0,0,79.863V90.193A.745.745,0,0,0,.746,90.938Zm5.628-9.646a8.72,8.72,0,0,1,3.813-.928,9.939,9.939,0,0,1,4.771,1.719h6.361a2.416,2.416,0,0,1,2.559,2.493,2.584,2.584,0,0,1-2.559,2.493h-7.35a2.178,2.178,0,0,0-1.246.807h8.652A3.45,3.45,0,0,0,24.643,85.7a39.768,39.768,0,0,0,5.138-4.78c1.255-1.317,3,.111,1.834,1.776-.574.82-2.808,3.22-5.4,5.872-2.326,2.378-6.48,3.03-9.685,3.03-3.418,0-6.856-1.86-10.094-2.388a.454.454,0,0,1-.332-.469v-7A.5.5,0,0,1,6.374,81.292Zm18.593,2.732c-.433-.106-.847-.611-.661-.925a18.214,18.214,0,0,1,4.422-3.63c.838-.336,1.028.393,1.028.393Zm-.853-1.783c-.433-.106-.847-.611-.661-.925a11.04,11.04,0,0,1,3.492-2.7c.838-.336,1.028.393,1.028.393S24.474,81.928,24.113,82.241ZM10.036,68.862v7.691a2.306,2.306,0,0,0,2.306,2.306h8.664a2.306,2.306,0,0,0,2.306-2.306V68.862a2.306,2.306,0,0,0-2.306-2.306H17.481v1.736H15.845V66.556h-3.5A2.306,2.306,0,0,0,10.036,68.862Zm4.452,4.391,2.471-2.945,2.48,2.935H17.991v3.389H15.944V73.243C14.5,73.243,14.488,73.254,14.488,73.254Z" transform="translate(-0.001 -66.556)"/></g></svg>