<svg xmlns="http://www.w3.org/2000/svg" width="26.203" height="26.203" viewBox="0 0 26.203 26.203"><defs><style>.a{fill:#fff;}</style></defs><g transform="translate(0 0)"><path class="a" d="M25.267,6.551H20.588V.936A.936.936,0,0,0,19.652,0H.936A.936.936,0,0,0,0,.936V22.46A3.743,3.743,0,0,0,3.743,26.2H22.46A3.743,3.743,0,0,0,26.2,22.46V7.487A.936.936,0,0,0,25.267,6.551ZM7.487,4.679H13.1a.936.936,0,0,1,0,1.872H7.487a.936.936,0,0,1,0-1.872ZM15.909,22.46H4.679a.936.936,0,0,1,0-1.872h11.23a.936.936,0,0,1,0,1.872Zm0-3.743H4.679a.936.936,0,0,1,0-1.872h11.23a.936.936,0,0,1,0,1.872Zm0-3.743H4.679a.936.936,0,0,1,0-1.872h11.23a.936.936,0,0,1,0,1.872Zm0-3.743H4.679a.936.936,0,0,1,0-1.872h11.23a.936.936,0,0,1,0,1.872Zm8.422,11.23a1.872,1.872,0,1,1-3.743,0V8.422h3.743V22.46Z"/></g></svg>