<svg xmlns="http://www.w3.org/2000/svg" width="26.463" height="26.451" viewBox="0 0 26.463 26.451"><defs><style>.a{fill:#fff;}</style></defs><g transform="translate(0 0)"><path class="a" d="M11.051,33a9.87,9.87,0,0,0,2.567,6.19l1.67-1.67A7.521,7.521,0,0,1,13.414,33Z" transform="translate(-7.719 -19.296)"/><path class="a" d="M21.323,35.179A4.232,4.232,0,0,1,20.418,33H18.051a6.578,6.578,0,0,0,1.6,3.853Z" transform="translate(-11.411 -19.296)"/><path class="a" d="M29.321,26.035V25.08a3.283,3.283,0,0,0-1.5.624l.676.676A2.344,2.344,0,0,1,29.321,26.035Z" transform="translate(-16.562 -15.119)"/><path class="a" d="M26.7,18.051a6.577,6.577,0,0,0-3.853,1.6l1.674,1.674a4.232,4.232,0,0,1,2.179-.905Z" transform="translate(-13.94 -11.411)"/><path class="a" d="M19.649,22.846a6.577,6.577,0,0,0-1.6,3.853h2.367a4.232,4.232,0,0,1,.905-2.179Z" transform="translate(-11.411 -13.94)"/><path class="a" d="M6.392,26.025a10.848,10.848,0,0,1,.266-1.978c-.37-.488-1.029-1.395-1.689-2.48a13.034,13.034,0,0,0-.941,4.458Z" transform="translate(-4.015 -13.266)"/><path class="a" d="M11.385,23.023a.47.47,0,0,1-.18.134,9.92,9.92,0,0,0-.174,1.461H13.4A7.521,7.521,0,0,1,15.278,20.1l-1.195-1.2a28.752,28.752,0,0,1-2.7,4.123Z" transform="translate(-7.708 -11.859)"/><path class="a" d="M25.08,33a3.283,3.283,0,0,0,.624,1.5l.676-.676A2.344,2.344,0,0,1,26.035,33Z" transform="translate(-15.119 -19.296)"/><path class="a" d="M7.308,14.09c.932-1.254,3.308-4.653,3.308-6.783A3.308,3.308,0,1,0,4,7.308C4,9.44,6.375,12.837,7.308,14.09Zm0-9.145A2.363,2.363,0,1,1,4.945,7.308,2.363,2.363,0,0,1,7.308,4.945Z" transform="translate(-4 -4)"/><path class="a" d="M9.237,39.867A10.828,10.828,0,0,1,6.388,33H4.025a13.184,13.184,0,0,0,3.542,8.537Z" transform="translate(-4.013 -19.296)"/><circle class="a" cx="1.5" cy="1.5" r="1.5" transform="translate(1.247 1.527)"/><path class="a" d="M24.734,6.4V4.032A13.219,13.219,0,0,0,19.121,5.5a4.225,4.225,0,0,1,.415,1.821,4.423,4.423,0,0,1-.067.7A10.9,10.9,0,0,1,24.734,6.4Z" transform="translate(-11.976 -4.017)"/><path class="a" d="M25.7,27.816a3.283,3.283,0,0,0-.624,1.5h.955a2.344,2.344,0,0,1,.346-.828Z" transform="translate(-15.119 -16.562)"/><path class="a" d="M18.408,13.855l1.429,1.429a7.521,7.521,0,0,1,4.521-1.875V11.043a9.935,9.935,0,0,0-5.66,2.106Q18.566,13.5,18.408,13.855Z" transform="translate(-11.599 -7.715)"/><path class="a" d="M43.876,12.934l-7.709,7.709a2.347,2.347,0,0,1,0,2.6l7.709,7.709A13.2,13.2,0,0,0,43.876,12.934Z" transform="translate(-20.966 -8.712)"/><path class="a" d="M33,45.857V48.22a9.832,9.832,0,0,0,6.2-2.564l-1.675-1.675A7.466,7.466,0,0,1,33,45.857Z" transform="translate(-19.296 -25.088)"/><path class="a" d="M33,20.417a4.228,4.228,0,0,1,2.182.9l1.671-1.671A6.53,6.53,0,0,0,33,18.049Z" transform="translate(-19.296 -11.41)"/><path class="a" d="M33,26.034a2.344,2.344,0,0,1,.828.346l.678-.677A3.288,3.288,0,0,0,33,25.079Z" transform="translate(-19.296 -15.118)"/><path class="a" d="M33,54.152a13.184,13.184,0,0,0,8.537-3.544l-1.673-1.673A10.767,10.767,0,0,1,33,51.778Z" transform="translate(-19.296 -27.701)"/><path class="a" d="M33,39.933V42.3a6.53,6.53,0,0,0,3.853-1.6l-1.671-1.671a4.228,4.228,0,0,1-2.182.9Z" transform="translate(-19.296 -22.477)"/><path class="a" d="M33,36.512v.956a3.289,3.289,0,0,0,1.507-.625l-.678-.678a2.344,2.344,0,0,1-.828.347Z" transform="translate(-19.296 -20.965)"/><path class="a" d="M26.7,39.93a4.232,4.232,0,0,1-2.179-.905L22.846,40.7A6.577,6.577,0,0,0,26.7,42.3Z" transform="translate(-13.94 -22.474)"/><path class="a" d="M21.471,51.8A10.828,10.828,0,0,1,14.6,48.946l-1.67,1.67a13.184,13.184,0,0,0,8.537,3.542Z" transform="translate(-8.712 -27.707)"/><path class="a" d="M29.321,36.514a2.344,2.344,0,0,1-.828-.346l-.676.677a3.283,3.283,0,0,0,1.5.624Z" transform="translate(-16.562 -20.967)"/><path class="a" d="M24.09,45.857a7.521,7.521,0,0,1-4.521-1.875L17.9,45.652a9.87,9.87,0,0,0,6.19,2.567Z" transform="translate(-11.332 -25.088)"/><path class="a" d="M33,13.412a7.466,7.466,0,0,1,4.521,1.876L39.2,13.613A9.832,9.832,0,0,0,33,11.049Z" transform="translate(-19.296 -7.718)"/><ellipse class="a" cx="2" cy="1.5" rx="2" ry="1.5" transform="translate(11.247 11.527)"/><path class="a" d="M41.537,7.567A13.184,13.184,0,0,0,33,4.025V6.4A10.767,10.767,0,0,1,39.864,9.24Z" transform="translate(-19.296 -4.013)"/></g></svg>