<svg xmlns="http://www.w3.org/2000/svg" width="28.434" height="25.031" viewBox="0 0 28.434 25.031"><defs><style>.a{fill:#fff;}</style></defs><g transform="translate(0)"><g transform="translate(0 0)"><g transform="translate(0)"><path class="a" d="M16.294,49.011a6.839,6.839,0,0,1,.838-3.293c-.774-.436-1.344-.721-1.582-.838a.206.206,0,0,1-.116-.192v-4.6a2.148,2.148,0,0,0,.96-1.786V33.543A4.294,4.294,0,0,0,12.1,29.25H11.076a4.294,4.294,0,0,0-4.293,4.293v4.764a2.148,2.148,0,0,0,.96,1.786v4.6a.216.216,0,0,1-.116.192A37.259,37.259,0,0,0,.838,49.232,2.3,2.3,0,0,0,0,51.018v3.263H18.754a5.978,5.978,0,0,1-.448-.413A6.83,6.83,0,0,1,16.294,49.011Z" transform="translate(0 -29.25)"/></g><g transform="translate(17.894 14.491)"><path class="a" d="M312.87,278.35a5.27,5.27,0,1,0,5.27,5.27A5.273,5.273,0,0,0,312.87,278.35Zm.1,6.9-1.088,1.088-1.088-1.088-1.309-1.309,1.088-1.088,1.309,1.309,3.275-3.275,1.088,1.088Z" transform="translate(-307.6 -278.35)"/></g></g></g></svg>