<svg xmlns="http://www.w3.org/2000/svg" width="26" height="26" viewBox="0 0 26 26"><defs><style>.a{fill:#fff;}</style></defs><path class="a" d="M59.375,119.875v-2.25H67.25v-4.5A1.125,1.125,0,0,0,66.125,112H62.75v3.375H60.5V112H57.125A1.125,1.125,0,0,0,56,113.125v9a1.125,1.125,0,0,0,1.125,1.125h9a1.125,1.125,0,0,0,1.125-1.125v-2.25Z" transform="translate(-48.625 -97.25)"/><path class="a" d="M25.554,8.874,13.637.207a1.083,1.083,0,0,0-1.274,0L.446,8.874A1.083,1.083,0,0,0,0,9.75V24.917A1.083,1.083,0,0,0,1.083,26h3.25V15.167a3.25,3.25,0,0,1,3.25-3.25H18.417a3.25,3.25,0,0,1,3.25,3.25V26h3.25A1.083,1.083,0,0,0,26,24.917V9.75a1.083,1.083,0,0,0-.446-.876Zm-9.3.876H9.75V8.667h6.5Zm0-2.167H9.75V6.5h6.5Zm0-2.167H9.75V4.333h6.5Z" transform="translate(0 0)"/></svg>